<svg width="1539" height="817" viewBox="0 0 1539 817" fill="none" xmlns="http://www.w3.org/2000/svg">
<line y1="-0.801079" x2="1797.87" y2="-0.801079" transform="matrix(-0.93767 -0.347526 -0.966138 0.258027 1685.39 625.958)" stroke="#003D71" stroke-width="1.60216"/>
<line y1="-0.801079" x2="1797.87" y2="-0.801079" transform="matrix(-0.93767 -0.347526 -0.966138 0.258027 1680.24 643.303)" stroke="#003D71" stroke-width="1.60216"/>
<line y1="-0.801079" x2="1797.87" y2="-0.801079" transform="matrix(-0.93767 -0.347526 -0.966138 0.258027 1675.09 660.649)" stroke="#003D71" stroke-width="1.60216"/>
<line y1="-0.801079" x2="1797.87" y2="-0.801079" transform="matrix(-0.93767 -0.347526 -0.966138 0.258027 1669.94 677.994)" stroke="#003D71" stroke-width="1.60216"/>
<line y1="-0.801079" x2="1797.87" y2="-0.801079" transform="matrix(-0.93767 -0.347526 -0.966138 0.258027 1664.79 695.339)" stroke="#003D71" stroke-width="1.60216"/>
<line y1="-0.801079" x2="1797.87" y2="-0.801079" transform="matrix(-0.93767 -0.347526 -0.966138 0.258027 1659.64 712.684)" stroke="#003D71" stroke-width="1.60216"/>
<line y1="-0.801079" x2="1797.87" y2="-0.801079" transform="matrix(-0.93767 -0.347526 -0.966138 0.258027 1654.49 730.029)" stroke="#003D71" stroke-width="1.60216"/>
<line y1="-0.801079" x2="1797.87" y2="-0.801079" transform="matrix(-0.93767 -0.347526 -0.966138 0.258027 1649.34 747.374)" stroke="#003D71" stroke-width="1.60216"/>
<line y1="-0.801079" x2="1797.87" y2="-0.801079" transform="matrix(-0.93767 -0.347526 -0.966138 0.258027 1644.19 764.719)" stroke="#003D71" stroke-width="1.60216"/>
<line y1="-0.801079" x2="1797.87" y2="-0.801079" transform="matrix(-0.93767 -0.347526 -0.966138 0.258027 1639.04 782.064)" stroke="#003D71" stroke-width="1.60216"/>
<line y1="-0.801079" x2="1797.87" y2="-0.801079" transform="matrix(-0.93767 -0.347526 -0.966138 0.258027 1633.89 799.409)" stroke="#003D71" stroke-width="1.60216"/>
<line y1="-0.801079" x2="1797.87" y2="-0.801079" transform="matrix(-0.93767 -0.347526 -0.966138 0.258027 1628.74 816.755)" stroke="#003D71" stroke-width="1.60216"/>
</svg>
