<svg width="1539" height="830" viewBox="0 0 1539 830" fill="none" xmlns="http://www.w3.org/2000/svg">
<line y1="-0.801079" x2="1823.23" y2="-0.801079" transform="matrix(0.937569 -0.347798 0.965632 0.259915 -80.4043 635.117)" stroke="#EAEAEA" stroke-width="1.60216"/>
<line y1="-0.801079" x2="1823.23" y2="-0.801079" transform="matrix(0.937569 -0.347798 0.965632 0.259915 -75.1602 652.784)" stroke="#EAEAEA" stroke-width="1.60216"/>
<line y1="-0.801079" x2="1823.23" y2="-0.801079" transform="matrix(0.937569 -0.347798 0.965632 0.259915 -69.916 670.451)" stroke="#EAEAEA" stroke-width="1.60216"/>
<line y1="-0.801079" x2="1823.23" y2="-0.801079" transform="matrix(0.937569 -0.347798 0.965632 0.259915 -64.6699 688.117)" stroke="#EAEAEA" stroke-width="1.60216"/>
<line y1="-0.801079" x2="1823.23" y2="-0.801079" transform="matrix(0.937569 -0.347798 0.965632 0.259915 -59.4238 705.784)" stroke="#EAEAEA" stroke-width="1.60216"/>
<line y1="-0.801079" x2="1823.23" y2="-0.801079" transform="matrix(0.937569 -0.347798 0.965632 0.259915 -54.1797 723.45)" stroke="#EAEAEA" stroke-width="1.60216"/>
<line y1="-0.801079" x2="1823.23" y2="-0.801079" transform="matrix(0.937569 -0.347798 0.965632 0.259915 -48.9355 741.117)" stroke="#EAEAEA" stroke-width="1.60216"/>
<line y1="-0.801079" x2="1823.23" y2="-0.801079" transform="matrix(0.937569 -0.347798 0.965632 0.259915 -43.6895 758.784)" stroke="#EAEAEA" stroke-width="1.60216"/>
<line y1="-0.801079" x2="1823.23" y2="-0.801079" transform="matrix(0.937569 -0.347798 0.965632 0.259915 -38.4434 776.45)" stroke="#EAEAEA" stroke-width="1.60216"/>
<line y1="-0.801079" x2="1823.23" y2="-0.801079" transform="matrix(0.937569 -0.347798 0.965632 0.259915 -33.1973 794.117)" stroke="#EAEAEA" stroke-width="1.60216"/>
<line y1="-0.801079" x2="1823.23" y2="-0.801079" transform="matrix(0.937569 -0.347798 0.965632 0.259915 -27.9531 811.783)" stroke="#EAEAEA" stroke-width="1.60216"/>
<line y1="-0.801079" x2="1823.23" y2="-0.801079" transform="matrix(0.937569 -0.347798 0.965632 0.259915 -22.709 829.451)" stroke="#EAEAEA" stroke-width="1.60216"/>
</svg>
