<svg width="1501" height="537" viewBox="0 0 1501 537" fill="none" xmlns="http://www.w3.org/2000/svg">
<line y1="-0.801079" x2="1755.54" y2="-0.801079" transform="matrix(-0.93767 -0.347526 -0.966138 0.258027 1499.43 610.943)" stroke="#EAEAEA" stroke-width="1.60216"/>
<line y1="-0.801079" x2="1755.54" y2="-0.801079" transform="matrix(-0.93767 -0.347526 -0.966138 0.258027 1494.4 627.88)" stroke="#EAEAEA" stroke-width="1.60216"/>
<line y1="-0.801079" x2="1755.54" y2="-0.801079" transform="matrix(-0.93767 -0.347526 -0.966138 0.258027 1489.37 644.817)" stroke="#EAEAEA" stroke-width="1.60216"/>
<line y1="-0.801079" x2="1755.54" y2="-0.801079" transform="matrix(-0.93767 -0.347526 -0.966138 0.258027 1484.34 661.754)" stroke="#EAEAEA" stroke-width="1.60216"/>
<line y1="-0.801079" x2="1755.54" y2="-0.801079" transform="matrix(-0.93767 -0.347526 -0.966138 0.258027 1479.31 678.69)" stroke="#EAEAEA" stroke-width="1.60216"/>
<line y1="-0.801079" x2="1755.54" y2="-0.801079" transform="matrix(-0.93767 -0.347526 -0.966138 0.258027 1474.28 695.627)" stroke="#EAEAEA" stroke-width="1.60216"/>
<line y1="-0.801079" x2="1755.54" y2="-0.801079" transform="matrix(-0.93767 -0.347526 -0.966138 0.258027 1469.26 712.563)" stroke="#EAEAEA" stroke-width="1.60216"/>
<line y1="-0.801079" x2="1755.54" y2="-0.801079" transform="matrix(-0.93767 -0.347526 -0.966138 0.258027 1464.23 729.501)" stroke="#EAEAEA" stroke-width="1.60216"/>
<line y1="-0.801079" x2="1755.54" y2="-0.801079" transform="matrix(-0.93767 -0.347526 -0.966138 0.258027 1459.2 746.438)" stroke="#EAEAEA" stroke-width="1.60216"/>
<line y1="-0.801079" x2="1755.54" y2="-0.801079" transform="matrix(-0.93767 -0.347526 -0.966138 0.258027 1454.17 763.373)" stroke="#EAEAEA" stroke-width="1.60216"/>
<line y1="-0.801079" x2="1755.54" y2="-0.801079" transform="matrix(-0.93767 -0.347526 -0.966138 0.258027 1449.14 780.31)" stroke="#EAEAEA" stroke-width="1.60216"/>
<line y1="-0.801079" x2="1755.54" y2="-0.801079" transform="matrix(-0.93767 -0.347526 -0.966138 0.258027 1444.11 797.247)" stroke="#EAEAEA" stroke-width="1.60216"/>
</svg>
