<svg width="27" height="26" viewBox="0 0 27 26" fill="none" xmlns="http://www.w3.org/2000/svg">
<g filter="url(#filter0_i_2702_2235)">
<path fill-rule="evenodd" clip-rule="evenodd" d="M7.80319 0.465123C9.1963 0.40417 9.64049 0.390625 13.1892 0.390625C16.7379 0.390625 17.1821 0.405299 18.574 0.465123C19.966 0.524948 20.9161 0.736026 21.7474 1.04192C22.618 1.35459 23.4078 1.84334 24.061 2.47545C24.7261 3.09514 25.2391 3.84464 25.5669 4.67315C25.89 5.46328 26.1109 6.36629 26.175 7.68694C26.2391 9.01324 26.2534 9.4354 26.2534 12.807C26.2534 16.1798 26.238 16.6019 26.175 17.9259C26.1121 19.2466 25.89 20.1496 25.5669 20.9397C25.2391 21.7684 24.7252 22.5191 24.061 23.1397C23.4078 23.7718 22.618 24.2594 21.7474 24.571C20.9161 24.878 19.966 25.0879 18.5764 25.1489C17.1821 25.2099 16.7379 25.2234 13.1892 25.2234C9.64049 25.2234 9.1963 25.2087 7.80319 25.1489C6.41363 25.0891 5.46351 24.878 4.63215 24.571C3.76032 24.2594 2.97041 23.771 2.31741 23.1397C1.65277 22.5196 1.13844 21.7693 0.810277 20.9409C0.488422 20.1507 0.267519 19.2477 0.203385 17.9271C0.139252 16.6008 0.125 16.1786 0.125 12.807C0.125 9.43427 0.140439 9.01211 0.203385 7.6892C0.266331 6.36629 0.488422 5.46328 0.810277 4.67315C1.13893 3.84473 1.65365 3.09436 2.3186 2.47432C2.97067 1.84278 3.75978 1.35396 4.63096 1.04192C5.46232 0.736026 6.41244 0.526076 7.802 0.465123H7.80319ZM18.4683 2.70007C17.0906 2.64025 16.6773 2.62783 13.1892 2.62783C9.70106 2.62783 9.28775 2.64025 7.91007 2.70007C6.63572 2.75538 5.94451 2.95743 5.4837 3.12787C4.87443 3.35363 4.43856 3.62114 3.98131 4.05572C3.54787 4.45649 3.2143 4.94437 3.00506 5.4836C2.82573 5.92156 2.61314 6.5785 2.55494 7.78966C2.492 9.09903 2.47893 9.49184 2.47893 12.807C2.47893 16.1222 2.492 16.515 2.55494 17.8244C2.61314 19.0355 2.82573 19.6925 3.00506 20.1304C3.21409 20.6688 3.54782 21.1576 3.98131 21.5583C4.40293 21.9703 4.91719 22.2875 5.4837 22.4861C5.94451 22.6566 6.63572 22.8586 7.91007 22.9139C9.28775 22.9738 9.69987 22.9862 13.1892 22.9862C16.6785 22.9862 17.0906 22.9738 18.4683 22.9139C19.7427 22.8586 20.4339 22.6566 20.8947 22.4861C21.504 22.2604 21.9398 21.9929 22.3971 21.5583C22.8306 21.1576 23.1643 20.6688 23.3733 20.1304C23.5527 19.6925 23.7653 19.0355 23.8235 17.8244C23.8864 16.515 23.8995 16.1222 23.8995 12.807C23.8995 9.49184 23.8864 9.09903 23.8235 7.78966C23.7653 6.5785 23.5527 5.92156 23.3733 5.4836C23.1358 4.90455 22.8543 4.49029 22.3971 4.05572C21.9754 3.6438 21.462 3.32677 20.8947 3.12787C20.4339 2.95743 19.7427 2.75538 18.4683 2.70007ZM11.5205 16.6346C12.4524 17.0033 13.4901 17.0531 14.4563 16.7754C15.4226 16.4978 16.2574 15.9099 16.8182 15.1122C17.379 14.3146 17.6311 13.3566 17.5313 12.4019C17.4315 11.4472 16.9861 10.5551 16.2712 9.87787C15.8154 9.44497 15.2643 9.11349 14.6575 8.9073C14.0508 8.70112 13.4035 8.62535 12.7622 8.68547C12.121 8.74558 11.5017 8.94007 10.949 9.25494C10.3964 9.56981 9.92403 9.99723 9.56602 10.5064C9.20802 11.0156 8.97325 11.5939 8.87862 12.1997C8.784 12.8055 8.83187 13.4236 9.0188 14.0097C9.20572 14.5958 9.52704 15.1352 9.95963 15.5891C10.3922 16.043 10.9253 16.4001 11.5205 16.6346ZM8.44096 8.29422C9.0645 7.70159 9.80476 7.23149 10.6195 6.91076C11.4342 6.59004 12.3074 6.42496 13.1892 6.42496C14.071 6.42496 14.9442 6.59004 15.7589 6.91076C16.5736 7.23149 17.3139 7.70159 17.9374 8.29422C18.561 8.88685 19.0556 9.5904 19.3931 10.3647C19.7305 11.139 19.9042 11.9689 19.9042 12.807C19.9042 13.6451 19.7305 14.475 19.3931 15.2493C19.0556 16.0236 18.561 16.7272 17.9374 17.3198C16.6781 18.5167 14.9701 19.1891 13.1892 19.1891C11.4083 19.1891 9.70027 18.5167 8.44096 17.3198C7.18164 16.1229 6.47417 14.4996 6.47417 12.807C6.47417 11.1144 7.18164 9.49109 8.44096 8.29422ZM21.3935 7.37541C21.548 7.23687 21.6717 7.07028 21.7573 6.88549C21.8429 6.70071 21.8885 6.50148 21.8916 6.29962C21.8947 6.09775 21.8552 5.89735 21.7753 5.71027C21.6955 5.52319 21.5769 5.35324 21.4267 5.21048C21.2765 5.06773 21.0977 4.95507 20.9009 4.87917C20.704 4.80327 20.4932 4.76568 20.2808 4.76862C20.0684 4.77157 19.8587 4.81498 19.6643 4.8963C19.4699 4.97762 19.2946 5.09519 19.1488 5.24205C18.8654 5.52766 18.7102 5.90702 18.7162 6.29962C18.7222 6.69221 18.889 7.06712 19.1811 7.34475C19.4732 7.62239 19.8677 7.78089 20.2808 7.78661C20.6938 7.79234 21.093 7.64483 21.3935 7.37541Z" fill="#2E2E27"/>
</g>
<defs>
<filter id="filter0_i_2702_2235" x="0.125" y="0.390625" width="26.1289" height="30.6693" filterUnits="userSpaceOnUse" color-interpolation-filters="sRGB">
<feFlood flood-opacity="0" result="BackgroundImageFix"/>
<feBlend mode="normal" in="SourceGraphic" in2="BackgroundImageFix" result="shape"/>
<feColorMatrix in="SourceAlpha" type="matrix" values="0 0 0 0 0 0 0 0 0 0 0 0 0 0 0 0 0 0 127 0" result="hardAlpha"/>
<feOffset dy="5.83727"/>
<feGaussianBlur stdDeviation="2.91863"/>
<feComposite in2="hardAlpha" operator="arithmetic" k2="-1" k3="1"/>
<feColorMatrix type="matrix" values="0 0 0 0 0 0 0 0 0 0 0 0 0 0 0 0 0 0 0.25 0"/>
<feBlend mode="normal" in2="shape" result="effect1_innerShadow_2702_2235"/>
</filter>
</defs>
</svg>
