<svg width="26" height="26" viewBox="0 0 26 26" fill="none" xmlns="http://www.w3.org/2000/svg">
<g filter="url(#filter0_i_2702_2228)">
<path fill-rule="evenodd" clip-rule="evenodd" d="M18.4484 15.3309C18.141 15.1767 16.634 14.4335 16.3534 14.33C16.0728 14.2276 15.8686 14.1769 15.6633 14.4853C15.4591 14.7917 14.8721 15.4851 14.6937 15.6901C14.5142 15.896 14.3357 15.9209 14.0294 15.7677C13.723 15.6124 12.7348 15.2885 11.564 14.241C10.6532 13.4254 10.0374 12.4184 9.8589 12.1099C9.68044 11.8025 9.8393 11.6359 9.993 11.4827C10.1312 11.3451 10.2994 11.1236 10.4531 10.9445C10.6068 10.7644 10.6573 10.6361 10.7594 10.4301C10.8626 10.2252 10.811 10.0461 10.7336 9.89191C10.6573 9.7377 10.0446 8.22347 9.78875 7.60764C9.54016 7.00837 9.28743 7.09014 9.09969 7.07979C8.92021 7.07151 8.71597 7.06944 8.51172 7.06944C8.30748 7.06944 7.97533 7.14603 7.69475 7.45446C7.41315 7.76186 6.62196 8.50603 6.62196 10.0203C6.62196 11.5334 7.71951 12.9959 7.87321 13.2019C8.02691 13.4068 10.0343 16.5139 13.1092 17.846C13.8416 18.1627 14.4121 18.3521 14.8566 18.4929C15.5911 18.7278 16.2595 18.6947 16.7877 18.615C17.3756 18.527 18.6011 17.8708 18.8569 17.1525C19.1117 16.4342 19.1117 15.8184 19.0354 15.6901C18.959 15.5617 18.7548 15.4851 18.4474 15.3309H18.4484ZM12.8555 22.9931H12.8514C11.025 22.9934 9.23211 22.5008 7.66071 21.5669L7.28936 21.3454L3.42939 22.3617L4.45988 18.586L4.21747 18.1989C3.1964 16.5681 2.65604 14.6807 2.65884 12.7548C2.6609 7.11394 7.23469 2.5247 12.8596 2.5247C15.5828 2.5247 18.1431 3.59076 20.0679 5.52416C21.0173 6.47283 21.7698 7.60098 22.2819 8.84334C22.7939 10.0857 23.0554 11.4176 23.0511 12.762C23.049 18.4028 18.4752 22.9931 12.8555 22.9931ZM21.5327 4.05548C20.3962 2.90757 19.0439 1.99739 17.5542 1.37769C16.0645 0.757995 14.4671 0.441094 12.8545 0.445355C6.09382 0.445355 0.589591 5.96715 0.587528 12.7537C0.586496 14.9231 1.15074 17.0407 2.22456 18.9069L0.484375 25.2857L6.98712 23.5737C8.78598 24.5571 10.8018 25.0724 12.8503 25.0724H12.8555C19.6161 25.0724 25.1203 19.5507 25.1224 12.763C25.1274 11.1456 24.8127 9.54322 24.1965 8.04859C23.5804 6.55396 22.675 5.19676 21.5327 4.05548Z" fill="#2E2E27"/>
</g>
<defs>
<filter id="filter0_i_2702_2228" x="0.484375" y="0.445312" width="24.6367" height="30.6771" filterUnits="userSpaceOnUse" color-interpolation-filters="sRGB">
<feFlood flood-opacity="0" result="BackgroundImageFix"/>
<feBlend mode="normal" in="SourceGraphic" in2="BackgroundImageFix" result="shape"/>
<feColorMatrix in="SourceAlpha" type="matrix" values="0 0 0 0 0 0 0 0 0 0 0 0 0 0 0 0 0 0 127 0" result="hardAlpha"/>
<feOffset dy="5.83727"/>
<feGaussianBlur stdDeviation="2.91863"/>
<feComposite in2="hardAlpha" operator="arithmetic" k2="-1" k3="1"/>
<feColorMatrix type="matrix" values="0 0 0 0 0 0 0 0 0 0 0 0 0 0 0 0 0 0 0.25 0"/>
<feBlend mode="normal" in2="shape" result="effect1_innerShadow_2702_2228"/>
</filter>
</defs>
</svg>
