<svg width="27" height="25" viewBox="0 0 27 25" fill="none" xmlns="http://www.w3.org/2000/svg">
<g filter="url(#filter0_i_2702_2214)">
<path fill-rule="evenodd" clip-rule="evenodd" d="M19.597 14.8856C19.2708 14.7314 17.6717 13.9882 17.374 13.8847C17.0762 13.7823 16.8595 13.7316 16.6417 14.04C16.425 14.3464 15.8022 15.0398 15.6128 15.2447C15.4223 15.4507 15.233 15.4756 14.9079 15.3224C14.5828 15.1671 13.5342 14.8432 12.2919 13.7957C11.3254 12.9801 10.6719 11.9731 10.4826 11.6646C10.2932 11.3572 10.4618 11.1906 10.6249 11.0374C10.7715 10.8998 10.9499 10.6783 11.113 10.4992C11.2761 10.3191 11.3298 10.1908 11.4381 9.98481C11.5476 9.77988 11.4929 9.60082 11.4108 9.4466C11.3298 9.29239 10.6796 7.77816 10.4081 7.16233C10.1443 6.56306 9.87618 6.64482 9.67697 6.63447C9.48651 6.62619 9.26979 6.62412 9.05307 6.62412C8.83634 6.62412 8.48389 6.70071 8.18617 7.00915C7.88735 7.31655 7.04782 8.06072 7.04782 9.57494C7.04782 11.0881 8.21244 12.5506 8.37553 12.7566C8.53862 12.9615 10.6686 16.0686 13.9315 17.4007C14.7087 17.7174 15.314 17.9068 15.7857 18.0476C16.5651 18.2825 17.2743 18.2494 17.8348 18.1697C18.4587 18.0817 19.759 17.4255 20.0305 16.7072C20.3008 15.9889 20.3008 15.3731 20.2198 15.2447C20.1388 15.1164 19.9221 15.0398 19.5959 14.8856H19.597ZM13.6623 22.5478H13.6579C11.7199 22.5481 9.81748 22.0555 8.15005 21.1215L7.75601 20.9001L3.66014 21.9164L4.75361 18.1407L4.49639 17.7536C3.41292 16.1228 2.83954 14.2354 2.8425 12.3094C2.84469 6.66863 7.69799 2.07938 13.6667 2.07938C16.5563 2.07938 19.273 3.14545 21.3155 5.07885C22.3229 6.02752 23.1214 7.15567 23.6647 8.39803C24.2081 9.64039 24.4855 10.9723 24.481 12.3167C24.4788 17.9575 19.6255 22.5478 13.6623 22.5478ZM22.8698 3.61017C21.6638 2.46226 20.2288 1.55208 18.6481 0.932382C17.0674 0.312682 15.3724 -0.00421897 13.6612 4.24123e-05C6.4874 4.24123e-05 0.646802 5.52183 0.644613 12.3084C0.643518 14.4778 1.24225 16.5954 2.38169 18.4616L0.535156 24.8403L7.4353 23.1284C9.34408 24.1118 11.4831 24.6271 13.6568 24.6271H13.6623C20.8361 24.6271 26.6767 19.1053 26.6789 12.3177C26.6841 10.7003 26.3502 9.09791 25.6964 7.60328C25.0426 6.10865 24.0818 4.75144 22.8698 3.61017Z" fill="#FBC30A"/>
</g>
<defs>
<filter id="filter0_i_2702_2214" x="0.535156" y="0" width="26.1445" height="30.6771" filterUnits="userSpaceOnUse" color-interpolation-filters="sRGB">
<feFlood flood-opacity="0" result="BackgroundImageFix"/>
<feBlend mode="normal" in="SourceGraphic" in2="BackgroundImageFix" result="shape"/>
<feColorMatrix in="SourceAlpha" type="matrix" values="0 0 0 0 0 0 0 0 0 0 0 0 0 0 0 0 0 0 127 0" result="hardAlpha"/>
<feOffset dy="5.83727"/>
<feGaussianBlur stdDeviation="2.91863"/>
<feComposite in2="hardAlpha" operator="arithmetic" k2="-1" k3="1"/>
<feColorMatrix type="matrix" values="0 0 0 0 0 0 0 0 0 0 0 0 0 0 0 0 0 0 0.25 0"/>
<feBlend mode="normal" in2="shape" result="effect1_innerShadow_2702_2214"/>
</filter>
</defs>
</svg>
