<svg width="115" height="115" viewBox="0 0 115 115" fill="none" xmlns="http://www.w3.org/2000/svg">
<path d="M57.5 115C89.2564 115 115 89.2564 115 57.5C115 25.7436 89.2564 0 57.5 0C25.7436 0 0 25.7436 0 57.5C0 89.2564 25.7436 115 57.5 115Z" fill="#FCC30A"/>
<path d="M30.5923 18.4275C29.7251 18.4275 29.0208 19.1319 29.0208 19.9991C29.0208 19.1319 28.3164 18.4275 27.4492 18.4275C28.3164 18.4275 29.0208 17.7232 29.0208 16.856C29.0208 17.7232 29.7251 18.4275 30.5923 18.4275Z" fill="#1A1817"/>
<path d="M40.7072 10.1517L41.8508 13.7454L42.2333 13.7984L42.2636 13.8969L41.332 14.1923L41.2979 14.0825L41.582 13.8287L40.3815 10.0494L40.0028 10.0078L39.9688 9.89796L40.9495 9.58743L43.2293 12.704L43.3466 8.82627L44.3085 8.51953L44.3426 8.62935L44.0586 8.88307L45.259 12.6624L45.6339 12.7192L45.6642 12.8176L44.5054 13.185L44.4713 13.0751L44.7554 12.8214L43.6004 9.18602L43.4678 13.522L43.2293 13.5977L40.7072 10.1517Z" fill="#1A1817"/>
<path d="M54.0687 11.3162L54.0801 11.4184L52.7774 11.5737L52.7661 11.4714L53.1561 11.2556L52.5691 10.1839L50.8953 10.3846L50.6265 11.5585L51.0923 11.6721L51.1036 11.7744L49.941 11.9145L49.9297 11.8123L50.2857 11.6002L51.2324 7.75651L50.9521 7.25285L51.4975 7.18848L53.7506 11.1874L54.0687 11.3162ZM52.4177 9.92639L51.4141 8.1049L50.9597 10.1006L52.4177 9.92639Z" fill="#1A1817"/>
<path d="M58.4568 11.2113L58.8128 11.0749L59.021 7.11386L58.684 6.93966L58.6916 6.82227L61.634 6.98131L61.6756 8.02271L61.5582 8.01513L61.1758 7.21989L59.5701 7.13279L59.4755 8.88233L60.9675 8.93156L60.9486 9.2648L59.4565 9.13984L59.3505 11.1014L61.1947 11.1999L61.6302 10.4047L61.7476 10.4122L61.6226 11.5029L58.4492 11.3324L58.4568 11.2113Z" fill="#1A1817"/>
<path d="M66.0234 11.9926L66.262 10.9323L66.3756 10.9588L66.5347 11.7579C66.6899 11.9548 66.9436 12.1782 67.2883 12.2539C67.8676 12.3789 68.3637 12.1555 68.4925 11.5685C68.625 10.9588 68.1971 10.5726 67.6366 10.1749C67.1292 9.81139 66.7467 9.38726 66.8868 8.74728C67.0345 8.07322 67.7086 7.75512 68.4584 7.91795C68.9052 8.01641 69.2196 8.19818 69.4354 8.33072L69.1968 9.33425L69.0832 9.30774L68.9242 8.49735C68.7462 8.29286 68.5152 8.17546 68.3069 8.13002C67.8601 8.03156 67.4776 8.2512 67.3829 8.68669C67.2769 9.17141 67.523 9.39484 68.1214 9.82275C68.8522 10.3643 69.1893 10.849 69.0378 11.5458C68.875 12.288 68.1895 12.7121 67.2352 12.5001C66.6558 12.3675 66.2999 12.1593 66.0234 11.9926Z" fill="#1A1817"/>
<path d="M73.9441 14.2379L74.3834 14.2455L75.8451 10.5457L74.8984 10.1708L74.2622 10.7616L74.1524 10.7199L74.5387 9.75049L77.856 11.0645L77.4659 12.0302L77.3599 11.9885L77.3069 11.1213L76.3564 10.7427L74.8908 14.4424L75.2014 14.7454L75.1635 14.8401L73.9062 14.3402L73.9441 14.2379Z" fill="#1A1817"/>
<path d="M80.2287 17.1521L80.6074 17.2013L82.6864 13.8234L82.4705 13.5091L82.5311 13.4106L84.1254 14.3914C84.807 14.808 85.0039 15.554 84.6139 16.1902C84.2844 16.728 83.5119 16.9627 82.747 16.4932C82.9969 16.762 83.0688 17.0839 83.0916 17.4815L83.1446 18.5494C83.1559 18.7994 83.2052 18.9433 83.4475 19.1288L83.3869 19.2273L82.6031 18.7464L82.5614 17.012C82.5463 16.603 82.4175 16.3114 82.088 16.1069L81.9441 16.0198L81.0618 17.455L81.3042 17.8224L81.2511 17.9095L80.1719 17.243L80.2287 17.1521ZM82.8038 16.2735C83.3566 16.6143 83.8944 16.2925 84.1367 15.8986C84.4548 15.3836 84.4208 14.8875 83.8679 14.5467L83.1332 14.0961L82.0691 15.8229L82.8038 16.2735Z" fill="#1A1817"/>
<path d="M88.1285 19.9637C89.0184 18.945 90.2946 18.7216 91.2337 19.5585C92.1691 20.3954 92.0934 21.6867 91.1845 22.6864C90.2908 23.7089 89.0184 23.9285 88.0793 23.0916C87.1439 22.2585 87.2159 20.9672 88.1285 19.9637ZM90.7528 22.3002C91.5367 21.4216 91.8775 20.4559 91.0709 19.7364C90.2643 19.0169 89.3479 19.4676 88.564 20.3461C87.7763 21.2285 87.4393 22.1903 88.2459 22.9098C89.0487 23.6294 89.9651 23.1863 90.7528 22.3002Z" fill="#1A1817"/>
<path d="M96.1494 31.9842L96.4599 32.2038L99.8492 30.1589L99.8037 29.7802L99.9097 29.7158L100.781 31.1586C101.568 32.4651 101.072 33.5747 100.004 34.2184C98.9517 34.8546 97.6868 34.7524 96.9257 33.4838L96.0547 32.041L96.1494 31.9842ZM97.1264 33.2906C97.7247 34.2828 98.8229 34.2374 99.6939 33.711C100.648 33.1354 101.182 32.3401 100.519 31.2419L100.141 30.6133L96.7439 32.6582L97.1264 33.2906Z" fill="#1A1817"/>
<path d="M100.055 39.3309L100.332 39.596L104.001 38.0926L104.013 37.7139L104.119 37.6685L104.585 38.8007L104.49 38.8386L104.21 38.5925L100.54 40.0959L100.514 40.4708L100.419 40.5086L99.9531 39.3763L100.055 39.3309Z" fill="#1A1817"/>
<path d="M103.199 50.197L103.396 50.5227L107.331 50.0266L107.441 49.6631L107.554 49.6479L107.706 50.8598L107.604 50.8711L107.395 50.5606L103.468 51.0567L103.673 52.685L104.532 52.9728L104.548 53.0864L103.453 53.1584L103.082 50.2084L103.199 50.197Z" fill="#1A1817"/>
<path d="M103.774 57.667L103.914 58.0192L107.879 58.1631L108.046 57.8223L108.163 57.826L108.053 60.7722L107.012 60.829L107.016 60.7117L107.803 60.3178L107.864 58.7084L106.114 58.644L106.092 60.1398L105.758 60.1285L105.864 58.6364L103.903 58.5645L103.835 60.4125L104.637 60.8366L104.634 60.954L103.543 60.848L103.66 57.6708L103.774 57.667Z" fill="#1A1817"/>
<path d="M106.9 66.7202L103.151 65.9211L102.909 66.2582L102.806 66.2355L103.018 65.2319L103.132 65.2547L103.212 65.6258L107.093 66.4513L107.313 66.1635L107.426 66.1862L107.222 67.1557L103.382 68.5795L106.502 69.2422L106.733 68.9014L106.847 68.9241L106.635 69.9277L106.533 69.905L106.442 69.5301L102.238 68.6363L102.288 68.4016L106.9 66.7202Z" fill="#1A1817"/>
<path d="M103.025 74.0124C104.388 74.5728 104.831 75.849 104.335 77.0495C104.108 77.6023 103.846 77.9697 103.642 78.231L102.695 77.822L102.741 77.7159L103.574 77.6326C103.82 77.4433 104.017 77.1668 104.127 76.898C104.539 75.8982 103.918 75.0159 102.798 74.5577C101.733 74.1184 100.669 74.1979 100.245 75.228C100.094 75.5953 100.079 76.0232 100.162 76.3299L101.514 76.8866L101.938 76.3451L102.044 76.3905L101.461 77.8144L101.366 77.7765L101.34 77.4016L99.787 76.7617C99.6923 76.2504 99.7832 75.6672 100.018 75.103C100.533 73.842 101.718 73.4746 103.025 74.0124Z" fill="#1A1817"/>
<path d="M98.4152 81.7966L100.778 83.3152L101.096 83.1069L101.195 83.1713L100.532 84.2013L100.445 84.1445L100.487 83.7734L98.0858 82.2321C97.4534 81.8232 96.8475 81.8724 96.4347 82.5124C95.9954 83.194 96.1469 83.8264 96.7944 84.243L99.1953 85.7842L99.5134 85.576L99.6119 85.6403L99.0741 86.481L98.987 86.4242L99.0287 86.0531L96.6657 84.5346C95.8326 83.9968 95.7152 83.1561 96.234 82.3495C96.7717 81.4975 97.5556 81.2438 98.4152 81.7966Z" fill="#1A1817"/>
<path d="M90.146 90.2737L90.0703 90.2056L90.9602 89.2399L91.036 89.3081L90.8807 89.7246L92.0243 90.1563L93.1642 88.9142L92.6037 87.8501L92.1758 88.0698L92.1001 88.0016L92.8915 87.1382L92.9673 87.2063L92.8347 87.6002L94.6146 91.1333L95.1561 91.334L94.785 91.7355L90.4717 90.1677L90.146 90.2737ZM92.3046 90.2548L94.2472 90.9819L93.2967 89.1717L92.3046 90.2548Z" fill="#1A1817"/>
<path d="M82.4745 96.4427L82.2549 96.7532L84.2884 100.158L84.6671 100.112L84.7277 100.211L82.1943 101.718L81.5808 100.877L81.6793 100.817L82.4404 101.263L83.8227 100.442L82.9252 98.9382L81.6566 99.7297L81.4861 99.4419L82.7964 98.7224L81.7929 97.0334L80.2062 97.9802L80.2857 98.8852L80.1872 98.9458L79.6836 97.9726L82.4177 96.3442L82.4745 96.4427Z" fill="#1A1817"/>
<path d="M71.0734 103.951C71.4332 105.383 70.6985 106.489 69.5018 106.788C68.983 106.916 68.6384 106.939 68.1689 106.924L67.9379 105.92L68.0515 105.89L68.6157 106.534C68.8581 106.621 69.161 106.636 69.4413 106.564C70.4902 106.303 70.797 105.269 70.5016 104.095C70.2062 102.921 69.5852 102.153 68.4112 102.448C68.2067 102.501 67.8508 102.675 67.6652 102.887L67.4569 103.675L67.3433 103.705L67.082 102.736C67.3244 102.596 67.8356 102.323 68.3544 102.19C69.6117 101.876 70.7136 102.52 71.0734 103.951Z" fill="#1A1817"/>
<path d="M62.4289 104.814L62.6221 107.612L62.978 107.741L62.9856 107.858L61.7662 107.942L61.7586 107.839L62.0805 107.65L61.8836 104.806C61.8306 104.056 61.433 103.598 60.6756 103.651C59.8652 103.708 59.4486 104.208 59.5017 104.969L59.6986 107.813L60.0545 107.942L60.0621 108.055L59.0662 108.123L59.0586 108.021L59.3805 107.832L59.1873 105.033C59.1192 104.045 59.7213 103.447 60.6794 103.382C61.6867 103.318 62.357 103.791 62.4289 104.814Z" fill="#1A1817"/>
<path d="M54.2766 103.634L53.9169 103.751L53.5155 107.694L53.8449 107.883L53.8336 107.997L52.618 107.872L52.6293 107.769L52.9777 107.637L53.3754 103.698L51.7432 103.532L51.2699 104.304L51.1562 104.293L51.3304 103.21L54.288 103.509L54.2766 103.634Z" fill="#1A1817"/>
<path d="M46.4014 102.378L45.9621 102.423L44.9586 106.274L45.9432 106.532L46.5037 105.865L46.6173 105.896L46.3522 106.903L42.9023 105.998L43.175 104.991L43.2886 105.021L43.4439 105.873L44.4322 106.134L45.4433 102.287L45.0987 102.022L45.1252 101.923L46.4317 102.268L46.4014 102.378Z" fill="#1A1817"/>
<path d="M38.9778 101.322L37.8001 103.871L38.0501 104.159L38.0008 104.265L36.8913 103.75L36.9329 103.655L37.3078 103.644L38.5045 101.057C38.8226 100.372 38.69 99.7811 38.0008 99.463C37.2662 99.1222 36.6565 99.3608 36.3346 100.054L35.138 102.64L35.3879 102.928L35.3387 103.034L34.4336 102.614L34.4752 102.519L34.8502 102.508L36.0279 99.9591C36.4444 99.0578 37.2624 98.8268 38.1334 99.232C39.0498 99.6524 39.4096 100.395 38.9778 101.322Z" fill="#1A1817"/>
<path d="M32.4166 96.3717L32.0417 96.2998L29.7658 99.5451L29.9627 99.8708L29.8945 99.9655L28.3609 98.89C27.7095 98.4318 27.5543 97.6782 27.9822 97.0685C28.3457 96.5535 29.1296 96.3642 29.8605 96.8792C29.6257 96.5952 29.5727 96.2695 29.5764 95.8719L29.5878 94.804C29.5916 94.554 29.5499 94.4101 29.3227 94.2094L29.3909 94.1147L30.1445 94.6449L30.0839 96.3793C30.0725 96.7883 30.1861 97.0875 30.5004 97.3071L30.6368 97.4018L31.6062 96.0233L31.3866 95.6409L31.4472 95.5576L32.4848 96.2846L32.4166 96.3717ZM29.7961 97.0912C29.2659 96.7163 28.7092 97.0041 28.4442 97.3828C28.0958 97.8789 28.0996 98.375 28.6335 98.7499L29.3379 99.246L30.5042 97.5873L29.7961 97.0912Z" fill="#1A1817"/>
<path d="M23.1566 88.4748L23.2324 88.4028L24.145 89.3458L24.0693 89.4177L23.6641 89.2397L23.168 90.3569L24.3419 91.5687L25.4401 91.0726L25.247 90.6333L25.3227 90.5614L26.1369 91.402L26.0612 91.474L25.6749 91.3187L22.0433 92.8903L21.8123 93.4205L21.4336 93.0266L23.2513 88.8118L23.1566 88.4748ZM23.0506 90.6295L22.2099 92.5267L24.073 91.6823L23.0506 90.6295Z" fill="#1A1817"/>
<path d="M17.376 80.4837L17.073 80.2565L13.608 82.1878L13.6421 82.5665L13.5399 82.6233L12.9453 81.5554L13.0362 81.5062L13.3467 81.7182L16.8117 79.7869L16.7966 79.412L16.8875 79.3628L17.482 80.4307L17.376 80.4837Z" fill="#1A1817"/>
<path d="M14.433 74.362L14.1452 74.0288L10.4227 75.4299L10.7787 76.3842L11.6458 76.4562L11.6875 76.566L10.7105 76.9333L9.45703 73.5933L10.434 73.2335L10.4757 73.3433L9.8698 73.9606L10.2296 74.9187L13.9521 73.5213L13.9672 73.0896L14.0619 73.0518L14.5352 74.3166L14.433 74.362Z" fill="#1A1817"/>
<path d="M11.7317 64.33L11.8339 64.311L12.0839 65.5986L11.9816 65.6175L11.7393 65.2464L10.7168 65.9129L11.0387 67.5678L12.2278 67.7495L12.3073 67.2762L12.4095 67.2572L12.633 68.4084L12.5307 68.4274L12.2921 68.0866L8.39165 67.4239L7.91072 67.742L7.80469 67.2042L11.6219 64.6632L11.7317 64.33ZM10.4669 66.0795L8.72869 67.2118L10.7509 67.5185L10.4669 66.0795Z" fill="#1A1817"/>
<path d="M11.3021 59.9644L11.1393 59.6198L7.1744 59.7069L7.02671 60.0591L6.90932 60.0629L6.88281 58.8397L6.98506 58.8359L7.15925 59.1654L11.1165 59.0783L11.0787 57.4386L10.2531 57.0637L10.2493 56.9463L11.3438 56.9879L11.4081 59.9606L11.3021 59.9644Z" fill="#1A1817"/>
<path d="M11.5228 52.4694L11.4129 52.1058L7.47459 51.6287L7.27767 51.9544L7.16406 51.9392L7.31175 50.7236L7.414 50.735L7.53896 51.0872L11.4773 51.5643L11.6856 51.2538L11.7878 51.2652L11.6402 52.4807L11.5228 52.4694Z" fill="#1A1817"/>
<path d="M13.5629 42.915L13.6613 42.9415L13.3053 44.2064L13.2069 44.1799L13.1577 43.7368L11.9421 43.8693L11.4839 45.4939L12.4647 46.1907L12.7487 45.8006L12.8471 45.8271L12.529 46.9556L12.4306 46.9291L12.3738 46.5164L9.18901 44.1685L8.61719 44.2329L8.76488 43.7065L13.3205 43.1574L13.5629 42.915ZM11.6429 43.9072L9.57906 44.1344L11.2453 45.3197L11.6429 43.9072Z" fill="#1A1817"/>
<path d="M11.812 36.5207L15.2505 38.2059L15.5686 37.937L15.6594 37.9825L15.2088 38.9027L15.1066 38.8534L15.1217 38.4747L11.562 36.729L11.278 36.9562L11.1758 36.907L11.6113 36.0171L15.6784 35.574L12.8155 34.1729L12.5088 34.4455L12.4065 34.3963L12.8572 33.4761L12.948 33.5215L12.9443 33.9078L16.7993 35.7974L16.6933 36.0095L11.812 36.5207Z" fill="#1A1817"/>
<path d="M21.4254 28.4737L21.5087 28.5343L20.7324 29.5908L20.6491 29.5302L20.7589 29.0985L19.5736 28.7956L18.5777 30.1551L19.2517 31.151L19.6531 30.8859L19.7364 30.9465L19.0434 31.897L18.9601 31.8364L19.051 31.4312L16.8925 28.1139L16.332 27.9738L16.6539 27.5308L21.1111 28.6138L21.4254 28.4737ZM19.282 28.7274L17.2712 28.2162L18.4148 29.9089L19.282 28.7274Z" fill="#1A1817"/>
<path d="M32.8389 42.52C38.3564 42.52 40.0378 45.6442 40.0378 48.2382C40.0378 52.4606 37.0234 55.0357 32.5284 55.0357H27.9766L29.3285 53.1006V44.4589L27.9766 42.5238H32.8389V42.52ZM32.8579 54.3427C36.7318 54.3427 37.5157 50.9799 37.5157 48.7532C37.5157 45.0989 35.8722 43.107 32.9828 43.107H31.7029V54.3427H32.8579Z" fill="#1A1817"/>
<path d="M48.6412 53.7605L47.5278 51.1097H42.7791L41.7907 53.5939L43.5251 55.0177H39.4883L40.7872 53.5749L45.4261 42.3203H46.2857L51.22 53.7946L52.5909 55.0177H46.9636L48.6412 53.7605ZM43.1048 50.2879H47.1984L45.1156 45.2817L43.1048 50.2879Z" fill="#1A1817"/>
<path d="M61.3381 55.0319C60.096 52.9112 58.8728 50.7754 57.8314 49.3326L56.9529 49.4046V53.0968L58.3048 55.0319H53.2266L54.5785 53.0968V44.4551L53.2266 42.52H57.8503C59.4939 42.52 63.0952 42.7207 63.0952 45.754C63.0952 47.2536 61.7433 48.295 60.2626 48.8403L63.0952 53.2445L65.0303 55.0357H61.3381V55.0319ZM56.9529 48.8025C58.7062 48.7646 60.4065 47.833 60.4065 45.9699C60.4065 43.7773 58.9069 43.0653 56.9529 43.0653V48.8025Z" fill="#1A1817"/>
<path d="M65.7539 55.0319L67.1058 53.0968V44.4551L65.7539 42.52H70.8321L69.4802 44.4551V53.0968L70.8321 55.0319H65.7539Z" fill="#1A1817"/>
<path d="M77.435 55.2497C74.0723 55.2497 72.0273 52.2884 72.0273 49.3119C72.0273 45.6386 74.3676 42.2759 78.8248 42.2759C82.1875 42.2759 84.2325 45.2372 84.2325 48.2137C84.2325 51.887 81.896 55.2497 77.435 55.2497ZM74.6214 47.1004C74.6214 50.8645 76.1361 54.481 78.7339 54.481C80.9265 54.481 81.6763 51.8681 81.6763 50.4253C81.6763 46.6611 80.1237 43.0635 77.5297 43.0635C75.0606 43.0635 74.6214 45.6576 74.6214 47.1004Z" fill="#1A1817"/>
<path d="M32.3911 69.677L31.2777 67.0262H26.5252L25.5368 69.5104L27.2712 70.9342H23.2344L24.5333 69.4914L29.1722 58.2368H30.0318L34.9661 69.7111L36.337 70.9342H30.7097L32.3911 69.677ZM26.8546 66.2044H30.9483L28.8655 61.1982L26.8546 66.2044Z" fill="#1A1817"/>
<path d="M48.8585 70.934H46.026L39.3194 62.0007V69.3624L40.872 70.934H37.1078L38.4598 69.2337V60.7359L36.6875 58.4146H39.7019L47.1923 68.8474V59.9861L45.6208 58.4146H49.4228L48.0709 60.1149V69.8699L48.8585 70.934Z" fill="#1A1817"/>
<path d="M59.7623 70.9302H50.6094L51.7038 68.9951V60.3156L50.6094 58.4146H59.4177V62.2507H59.198L57.1872 59.0697H54.0819V64.1327H59.0693V64.9545H54.0819V70.2713H57.3538L59.766 66.9274L59.9668 66.9653L59.7623 70.9302Z" fill="#1A1817"/>
<path d="M70.9063 70.9302H61.2422L62.3404 68.9951V60.3156L61.2422 58.4146H66.1008L64.711 60.3345V70.1084H68.513L70.9252 66.9842H71.107L70.9063 70.9302Z" fill="#1A1817"/>
<path d="M81.8633 70.9302H72.1992L73.2974 68.9951V60.3156L72.1992 58.4146H77.0578L75.668 60.3345V70.1084H79.47L81.8823 66.9842H82.064L81.8633 70.9302Z" fill="#1A1817"/>
<path d="M83.1562 70.9376L84.5082 69.0025V60.3609L83.1562 58.4258H88.2345L86.8825 60.3609V69.0025L88.2345 70.9376H83.1562Z" fill="#1A1817"/>
<path d="M79.7173 48.8045C78.8501 48.8045 78.1458 49.5088 78.1458 50.376C78.1458 49.5088 77.4414 48.8045 76.5742 48.8045C77.4414 48.8045 78.1458 48.1001 78.1458 47.2329C78.142 48.1001 78.8464 48.8045 79.7173 48.8045Z" fill="#1A1817"/>
</svg>
