<svg width="17" height="16" viewBox="0 0 17 16" fill="none" xmlns="http://www.w3.org/2000/svg">
<g clip-path="url(#clip0_2874_1793)">
<path d="M0.5 16L1.6516 11.7219C0.998725 10.5506 0.658685 9.23912 0.658685 7.90503C0.654151 3.54551 4.2087 0 8.57934 0C12.95 0 16.5045 3.54551 16.5045 7.90503C16.5045 12.2646 12.95 15.8101 8.57934 15.8101C7.26906 15.8101 5.97237 15.4799 4.8117 14.8513L0.5 16ZM5.02933 13.2459L5.30136 13.4087C6.29881 14.0011 7.43228 14.3132 8.57934 14.3132C12.1203 14.3132 15.0038 11.437 15.0038 7.90503C15.0038 4.37309 12.1203 1.49689 8.57934 1.49689C5.0384 1.49689 2.15486 4.37309 2.15486 7.90503C2.15486 9.07179 2.4813 10.2205 3.09337 11.2289L3.26112 11.5003L2.61731 13.8881L5.02933 13.2459Z" fill="#2E2E27"/>
<path fill-rule="evenodd" clip-rule="evenodd" d="M11.5269 9.00382C11.2004 8.80936 10.7742 8.59229 10.3934 8.75057C10.0987 8.87267 9.90828 9.32942 9.71785 9.56459C9.61811 9.68669 9.50476 9.70478 9.35061 9.64147C8.24435 9.2028 7.39652 8.46566 6.78445 7.44814C6.68017 7.28985 6.6983 7.16775 6.82525 7.01852C7.01114 6.80144 7.24237 6.55724 7.29224 6.26329C7.34211 5.96934 7.20609 5.63016 7.08368 5.37239C6.92953 5.04226 6.75724 4.56741 6.42174 4.37748C6.11343 4.20563 5.70992 4.3006 5.43789 4.52219C4.96637 4.90659 4.73967 5.50354 4.74421 6.10048C4.74421 6.26781 4.76688 6.43966 4.80768 6.60246C4.90289 6.9959 5.08425 7.36221 5.28827 7.71043C5.44242 7.97273 5.61018 8.22598 5.79153 8.4747C6.38547 9.27516 7.11995 9.97159 7.97232 10.4962C8.3985 10.7585 8.85642 10.9846 9.33248 11.1429C9.86747 11.3192 10.339 11.5001 10.9148 11.3916C11.5178 11.2785 12.1117 10.9077 12.352 10.3289C12.4246 10.157 12.4563 9.96707 12.42 9.78618C12.3384 9.4063 11.8306 9.18471 11.5269 9.00382Z" fill="#2E2E27"/>
</g>
<defs>
<clipPath id="clip0_2874_1793">
<rect width="16" height="16" fill="white" transform="translate(0.5)"/>
</clipPath>
</defs>
</svg>
