<svg width="138" height="21" viewBox="0 0 138 21" fill="none" xmlns="http://www.w3.org/2000/svg">
<path fill-rule="evenodd" clip-rule="evenodd" d="M14.7524 1.49717V5.05763C12.8517 4.46193 10.7663 4.11958 9.10413 4.11958C7.0572 4.11958 5.91062 4.67419 5.91062 5.67386C5.91062 6.31063 6.41081 6.73515 7.84211 7.3103L11.6974 8.85088C14.7832 10.0833 16.3299 11.8841 16.3299 14.219C16.3299 17.8273 12.8209 20.1006 7.26497 20.1006C5.24114 20.1006 2.8941 19.8404 0.408549 19.3405V15.6637C2.87101 16.2594 5.12571 16.5812 6.88021 16.5812C9.18108 16.5812 10.4123 16.0129 10.4123 14.9516C10.4123 14.3148 9.93521 13.8424 8.8271 13.4042L4.61783 11.7198C1.49357 10.4805 0.046875 8.8098 0.046875 6.42703C0.046875 3.01036 3.42507 0.833008 8.73476 0.833008C10.5893 0.833008 12.8748 1.08635 14.7524 1.49717Z" fill="#7F7F7F"/>
<path fill-rule="evenodd" clip-rule="evenodd" d="M19.3389 1.20312H25.572V19.7175H19.3389V1.20312Z" fill="#7F7F7F"/>
<path fill-rule="evenodd" clip-rule="evenodd" d="M45.8337 1.20312V4.59925H36.4301V8.77594H44.6486V11.8366H36.4301V16.1707H45.9568V19.7175H30.374V1.20312H45.8337Z" fill="#7F7F7F"/>
<path fill-rule="evenodd" clip-rule="evenodd" d="M75.275 1.20312V19.7175H69.2497V7.53663L63.3398 19.8613H59.5306L53.6592 7.53663V19.7175H49.4961V1.20312H57.1066L62.4933 12.4665L67.8414 1.20312H75.275Z" fill="#7F7F7F"/>
<path fill-rule="evenodd" clip-rule="evenodd" d="M95.5597 1.20312V4.59925H86.133V8.77594H94.3515V11.8366H86.133V16.1707H95.6674V19.7175H80.0615V1.20312H95.5597Z" fill="#7F7F7F"/>
<path fill-rule="evenodd" clip-rule="evenodd" d="M117.514 1.20312V19.7175H110.858L103.37 7.84475V19.7175H99.207V1.20312H106.033L113.359 12.9252V1.20312H117.514Z" fill="#7F7F7F"/>
<path fill-rule="evenodd" clip-rule="evenodd" d="M135.598 1.49778V5.05824C133.705 4.46939 131.612 4.1202 129.981 4.1202C127.895 4.1202 126.756 4.66796 126.756 5.66762C126.756 6.31809 127.226 6.70837 128.703 7.30406L132.543 8.84465C135.644 10.0908 137.183 11.871 137.183 14.2333C137.183 17.8211 133.674 20.0875 128.126 20.0875C126.095 20.0875 123.74 19.8273 121.262 19.3275V15.6506C123.725 16.2463 125.972 16.5681 127.718 16.5681C130.004 16.5681 131.266 15.9998 131.266 14.9727C131.266 14.2949 130.82 13.8498 129.673 13.3979L125.471 11.7272C122.324 10.4742 120.9 8.82411 120.9 6.43449C120.9 3.02467 124.279 0.840467 129.573 0.840467C131.427 0.83362 133.721 1.08696 135.598 1.49778Z" fill="#7F7F7F"/>
</svg>
