<svg width="139" height="39" viewBox="0 0 139 39" fill="none" xmlns="http://www.w3.org/2000/svg">
<path fill-rule="evenodd" clip-rule="evenodd" d="M0.785156 38.5093C1.20185 37.9829 1.53078 37.4094 1.8961 36.8556C3.51294 34.4009 5.12121 31.9424 6.73091 29.4846C8.68738 26.4978 10.6403 23.509 12.5982 20.5229C14.4348 17.7228 16.2778 14.9265 18.1151 12.1265C19.632 9.81323 21.1426 7.49682 22.6581 5.18296C23.7191 3.56306 24.7822 1.94381 25.8475 0.325826C26.038 0.0365133 26.1857 0.0403368 26.3712 0.326463C27.9531 2.76268 29.5335 5.19953 31.1168 7.63446C32.6552 10.0006 34.1985 12.3648 35.7354 14.7322C37.3658 17.2436 38.987 19.7601 40.6195 22.2709C42.8507 25.7037 45.0897 29.1322 47.3223 32.5644C48.5709 34.4832 49.8146 36.4045 51.0597 38.3251C51.1082 38.4003 51.1496 38.48 51.1945 38.5571C34.4711 38.5571 17.7484 38.5571 1.0249 38.5539C0.947839 38.5539 0.844378 38.6094 0.785156 38.5093ZM29.5029 14.1325C28.2078 14.1383 26.7729 14.3403 25.6149 14.671C22.987 15.4217 20.5789 16.5426 18.4169 18.0784C16.9171 19.1439 15.5265 20.3132 14.2521 21.5928C12.9264 22.924 11.7719 24.3591 10.8886 25.9612C9.97599 27.6155 9.3588 29.3367 9.45584 31.2102C9.51006 32.2623 9.834 33.2507 10.4519 34.1473C11.4323 35.5697 12.9207 36.3732 14.6745 36.8403C16.0095 37.1959 17.3581 37.1137 18.698 36.9111C20.2136 36.681 21.6534 36.2235 23.0455 35.6385C24.8193 34.8935 26.449 33.9453 27.9866 32.8664C28.1136 32.7772 28.2164 32.7537 28.3719 32.8059C28.8743 32.9761 29.4023 33.064 29.9345 33.0984C31.0961 33.1723 32.21 32.985 33.231 32.4758C35.3073 31.4409 36.449 29.8631 36.516 27.7283C36.5517 26.5933 36.1243 25.5553 35.4393 24.6038C35.3694 24.507 35.3509 24.4299 35.4008 24.3196C35.7462 23.5581 35.9852 22.7692 36.135 21.9586C36.3605 20.7446 36.3819 19.5358 35.9952 18.3422C35.5043 16.8287 34.4968 15.6657 32.9684 14.8838C31.8568 14.3154 30.6395 14.1096 29.5029 14.1325Z" fill="#7F7F7F"/>
<path fill-rule="evenodd" clip-rule="evenodd" d="M54.085 38.5579C54.09 38.4706 54.0985 38.384 54.0985 38.2967C54.0992 33.1764 54.0828 28.0554 54.1078 22.9351C54.1164 21.1094 55.091 19.766 56.929 18.9555C58.6436 18.1997 60.9276 18.575 62.2726 19.7756C62.8983 20.3345 63.3272 21.0138 63.8181 21.6542C65.644 24.0363 67.4513 26.4304 69.2644 28.8207C70.3032 30.1902 71.3507 31.5552 72.3767 32.9329C73.4106 34.3215 73.2065 36.1957 71.9201 37.4001C71.2579 38.0195 70.3261 38.4503 69.3735 38.5662C66.9297 38.565 61.9258 38.5662 61.8901 38.5662C61.8873 38.542 61.8837 38.3738 61.888 38.3534C61.888 37.0878 61.888 35.8222 61.8887 34.5566C61.893 34.4604 61.8966 34.3636 61.9008 34.2673C63.2408 34.2673 64.5815 34.2673 65.9972 34.2673C64.1199 31.7935 62.2876 29.3803 60.4438 26.9504C60.3732 27.0517 60.396 27.1237 60.396 27.1926C60.3946 30.05 60.3932 32.9074 60.3939 35.7649C60.3939 36.6959 60.3989 37.6269 60.401 38.5586C58.2947 38.5579 56.1898 38.5579 54.085 38.5579Z" fill="#7F7F7F"/>
<path fill-rule="evenodd" clip-rule="evenodd" d="M123.599 38.5578C123.072 38.447 122.545 38.3393 122.072 38.0844C120.867 37.435 120.154 36.5072 120.003 35.2441C119.895 34.338 120.173 33.5287 120.734 32.7869C122.85 29.9932 124.969 27.202 127.087 24.4096C128.096 23.079 129.077 21.7319 130.119 20.4229C131.14 19.1414 132.557 18.5182 134.336 18.5787C136.597 18.6558 138.567 20.2024 138.861 22.3436C138.924 22.8075 138.924 23.079 138.924 23.1778C138.922 28.1878 138.922 33.1979 138.922 38.208C138.922 38.512 138.922 38.512 138.57 38.512C136.617 38.512 134.592 38.512 132.639 38.512C132.636 38.4642 132.631 38.4164 132.631 38.3692C132.631 34.7624 132.631 31.1549 132.632 27.548C132.632 27.3607 132.632 27.1733 132.632 26.986C132.606 26.979 132.58 26.9726 132.555 26.9656C130.719 29.384 128.883 31.8023 127.02 34.257C128.348 34.257 129.604 34.2621 130.861 34.2519C131.08 34.25 131.146 34.294 131.145 34.4979C131.135 35.8514 131.143 37.205 131.144 38.5585C128.63 38.5578 126.114 38.5578 123.599 38.5578Z" fill="#7F7F7F"/>
<path fill-rule="evenodd" clip-rule="evenodd" d="M111.506 38.5578C111.503 38.2794 111.499 38.0002 111.499 37.7218C111.498 32.9914 111.497 28.2618 111.505 23.5321C111.506 23.2989 111.436 23.2428 111.18 23.244C109.326 23.2542 107.471 23.246 105.617 23.2542C105.373 23.2555 105.3 23.1982 105.302 22.9758C105.314 21.7414 105.312 20.5071 105.304 19.2733C105.302 19.0802 105.357 19.0127 105.586 19.0127C111.578 19.0184 117.569 19.0172 123.561 19.0184C124.038 19.0184 123.968 18.9949 123.969 19.3957C123.97 20.5899 123.961 21.7847 123.976 22.979C123.979 23.2109 123.892 23.2542 123.658 23.2536C121.785 23.2466 119.913 23.2542 118.041 23.2447C117.797 23.2434 117.75 23.3097 117.75 23.5149C117.757 28.0222 117.75 32.5288 117.761 37.0361C117.762 37.6746 117.263 38.431 116.457 38.5661C114.894 38.5642 111.541 38.5578 111.506 38.5578Z" fill="#7F7F7F"/>
<path fill-rule="evenodd" clip-rule="evenodd" d="M90.8942 38.5655C90.6095 38.563 90.3241 38.5592 90.0394 38.5592C85.5756 38.5585 81.1118 38.5592 76.6473 38.5592C75.2496 38.3572 74.1985 37.2337 74.1971 35.9808C74.1893 30.438 74.1935 24.8952 74.1935 19.3524C74.1935 19.3365 74.1964 19.3205 74.1985 19.3046C74.1964 19.1153 74.2692 18.9675 74.5125 18.9853C74.591 19.0115 92.0201 18.9853 92.0201 18.9853C92.0201 18.9853 92.0244 21.6631 92.0322 22.9682C92.0337 23.1721 91.9623 23.2205 91.7454 23.218C90.9256 23.2078 90.1057 23.2135 89.2859 23.2135C86.4254 23.2135 83.5656 23.2129 80.7051 23.2173C80.6323 23.2173 80.5203 23.1441 80.4775 23.2696C80.4775 24.0821 80.4847 24.8946 80.4718 25.7071C80.469 25.9078 80.5339 25.9588 80.7558 25.9582C83.8774 25.9518 86.9991 25.9531 90.1207 25.9531C90.4882 25.9531 90.4875 25.9537 90.4875 26.2876C90.4875 27.5067 90.4811 28.7251 90.4946 29.9435C90.4968 30.1589 90.4297 30.2086 90.1985 30.2086C87.059 30.2022 83.9195 30.2073 80.78 30.1991C80.526 30.1984 80.4697 30.2647 80.4718 30.4788C80.4825 31.6494 80.4847 32.8207 80.4704 33.9913C80.4675 34.2214 80.5539 34.2603 80.7858 34.2596C84.4511 34.2539 88.1172 34.2577 91.7825 34.2507C92.0116 34.2501 92.0843 34.2909 92.0808 34.5088C92.0651 35.4169 92.0765 36.325 92.0736 37.233C92.0722 37.8588 91.562 38.4445 90.8942 38.5655Z" fill="#7F7F7F"/>
<path fill-rule="evenodd" clip-rule="evenodd" d="M108.839 38.5654C108.357 38.5654 96.9233 38.5654 96.6915 38.5654C96.4596 38.5654 96.2512 38.5125 96.1977 38.5144C94.6843 38.2684 93.6854 37.2042 93.6854 35.8373C93.6854 30.3257 93.6868 24.8141 93.6797 19.3025C93.6797 19.0738 93.7418 19.0113 94.0008 19.0132C95.8738 19.0234 97.746 19.0221 99.619 19.0139C99.8416 19.0132 99.9009 19.0655 99.9009 19.2656C99.8944 24.1718 99.8973 29.078 99.8894 33.9842C99.8894 34.2053 99.9601 34.2601 100.2 34.2595C103.374 34.2531 106.549 34.2569 109.724 34.2506C109.952 34.2499 110.026 34.2888 110.023 34.5086C110.007 35.4002 110.017 36.2923 110.016 37.1845C110.016 37.86 109.571 38.3736 108.839 38.5654Z" fill="#7F7F7F"/>
<path fill-rule="evenodd" clip-rule="evenodd" d="M10.9448 30.596C10.9427 29.5018 11.2945 28.3592 11.8396 27.2574C12.6908 25.5356 13.9559 24.0635 15.3223 22.6507C16.2962 21.6445 17.3501 20.7109 18.486 19.8545C20.6587 18.2155 23.034 16.8893 25.7718 16.1195C27.1089 15.7436 28.4617 15.4906 29.8659 15.569C31.1817 15.6422 32.3846 15.994 33.2979 16.9027C34.0008 17.6024 34.3946 18.4411 34.5858 19.3561C34.8563 20.653 34.6829 21.9198 34.2327 23.1663C34.1613 23.3645 34.0949 23.3664 33.913 23.2568C32.8741 22.6291 31.7318 22.2372 30.4703 22.227C28.6251 22.2117 27.1032 22.8782 25.8966 24.1069C24.8449 25.1774 24.2933 26.4328 24.3454 27.866C24.3918 29.145 24.9362 30.2608 25.8645 31.2288C26.0607 31.4333 26.2648 31.6341 26.4846 31.8182C26.6237 31.9349 26.6315 31.9954 26.4753 32.1056C25.8881 32.5218 25.2666 32.8914 24.6294 33.2412C23.5063 33.8568 22.3497 34.4157 21.1232 34.8484C19.7332 35.3391 18.3019 35.6876 16.7928 35.6774C14.8742 35.6641 13.2602 35.0357 11.9966 33.7255C11.3787 33.0851 11.1254 32.3172 10.9948 31.5028C10.952 31.2422 10.9513 30.9803 10.9448 30.596Z" fill="#7F7F7F"/>
<path fill-rule="evenodd" clip-rule="evenodd" d="M35.2815 24.4868C35.2593 24.5314 35.2351 24.5824 35.2094 24.6321C34.3039 26.4081 33.1381 28.0395 31.7631 29.553C30.7842 30.6306 29.6903 31.6075 28.4923 32.4913C28.1634 32.7341 28.1498 32.743 27.7674 32.5551C27.487 32.4174 27.208 32.2772 26.9376 32.1243C26.6864 31.9822 26.6886 31.9592 26.9297 31.7935C27.6161 31.3232 28.259 30.8083 28.8833 30.2762C30.4495 28.9425 31.6839 27.3793 32.7556 25.7103C33.2073 25.0074 33.7017 24.325 34.0728 23.5819C34.1127 23.5016 34.1413 23.4067 34.2761 23.5016C34.6429 23.7584 34.9575 24.0586 35.2379 24.3887C35.2593 24.4142 35.2651 24.4486 35.2815 24.4868Z" fill="#7F7F7F"/>
</svg>
