<svg width="140" height="38" viewBox="0 0 140 38" fill="none" xmlns="http://www.w3.org/2000/svg">
<path fill-rule="evenodd" clip-rule="evenodd" d="M16.2942 36.6913H0.882812L8.58853 24.7429H23.935L16.2942 36.6913ZM31.6407 36.6913H47.0377L39.332 24.7429H23.935L31.6407 36.6913ZM31.6407 12.8525L23.935 0.949219L16.2942 12.8525L23.935 24.7429L31.6407 12.8525Z" fill="#7F7F7F"/>
<path fill-rule="evenodd" clip-rule="evenodd" d="M53.7897 31.7936H59.9716V29.7894H53.7897V27.3146H60.7299V25.3103H53.7897H51.1104V27.3146V34.8484V36.8914H53.7897H60.9393V34.8484H53.7897V31.7936ZM53.5658 14.7797L56.339 23.3511H56.4545H58.7438H58.8594L61.6326 14.7797V23.3511H64.0375V11.7701H62.7014H61.5893H60.2965L57.5883 19.9226L54.9018 11.7701H53.6236H52.4464H51.1104V23.3511H53.5658V14.7797ZM113.262 11.7701H110.647V23.3511H113.262V11.7701ZM115.406 25.3103H112.792V36.8914H115.406V25.3103ZM139.116 11.7701H136.487V23.3511H139.116V11.7701ZM67.7206 11.7701H65.1063V23.3511H67.7206V11.7701ZM132.869 16.3071H127.691V11.7701H125.062V23.3511H127.691V18.3114H132.869V23.3511H135.418V11.7701H132.869V16.3071ZM71.5626 23.3511H74.2419V13.7744H77.3907V11.7701H74.2419H71.5626H68.4139V13.7744H71.5626V23.3511ZM95.3803 36.8914H98.0452V27.3146H101.259V25.3103H98.0452H95.3803H92.2316V27.3146H95.3803V36.8914ZM93.6182 23.6992C96.9258 23.6992 98.7962 22.3587 98.7962 19.7421V11.7701H96.1819V19.9806C96.1819 20.9731 95.2142 21.7786 93.6182 21.7786C91.6322 21.7786 91.0544 20.7862 91.0544 19.9806V11.7701H88.4907V19.7357C88.4907 22.5456 90.4694 23.6992 93.6182 23.6992ZM73.8664 31.7936H80.0483V29.7894H73.8664V27.3146H80.8572V25.3103H73.8664H71.2521V27.3146V34.8484V36.8914H73.8664H81.016V34.8484H73.8664V31.7936ZM102.429 23.3511H106.155C108.56 23.3511 110.062 22.0687 110.062 20.2577C110.062 18.7883 108.835 17.5058 107.542 17.2158C108.669 16.9709 109.578 15.9204 109.578 14.638C109.578 12.9237 108.192 11.7701 105.578 11.7701H102.429H99.699V23.3511H102.429ZM105.368 21.5917H102.321V18.2534H105.368C106.437 18.2534 107.34 18.827 107.34 19.9226C107.34 20.8764 106.531 21.5917 105.368 21.5917ZM105.578 13.6455C106.271 13.6455 107.08 14.2062 107.08 15.0117C107.08 15.6884 106.531 16.4489 105.419 16.4489H102.321V13.6455H105.578ZM109.694 31.3167C110.806 31.0267 112.034 30.118 112.034 28.5069C112.034 26.4639 110.438 25.2652 107.824 25.2652H104.516H101.902V36.8463H104.516V32.2641H106.762C108.084 32.2641 108.842 32.9279 109.051 33.7464C109.261 34.6551 109.21 35.9762 109.47 36.8398H112.149C111.875 35.9762 111.716 34.7389 111.666 33.785C111.55 32.2254 110.647 31.6067 109.694 31.3167ZM104.516 30.4532V27.2695H107.665C108.726 27.2695 109.427 27.9333 109.427 28.8807C109.427 29.4993 108.849 30.4532 107.78 30.4532H104.516ZM64.413 25.3103H61.7481V34.842V36.8849H64.413H70.4938V34.842H64.413V25.3103ZM81.8249 18.4983C83.9048 18.7883 85.0675 19.1621 85.0675 20.2577C85.0675 21.0246 84.2731 21.74 82.5182 21.74C80.7416 21.74 79.8389 20.8764 79.8389 19.8388H77.3401C77.3401 21.8431 78.8278 23.6411 82.6193 23.6411C86.2519 23.6411 87.7974 21.9269 87.7974 19.9806C87.7974 18.1632 86.4613 17.016 84.1142 16.5971C81.7599 16.2105 80.2072 16.1202 80.2072 14.7797C80.2072 13.9162 81.1244 13.4006 82.5182 13.4006C84.0059 13.4006 84.9086 14.0193 84.9086 15.16H87.429C87.429 13.3039 85.8836 11.4414 82.4099 11.4414C80.0555 11.4414 77.6001 12.6788 77.6001 14.9666C77.5929 16.8871 79.1456 18.0665 81.8249 18.4983ZM118.346 18.4983C120.476 18.7883 121.653 19.1621 121.653 20.2577C121.653 21.0246 120.801 21.74 119.09 21.74C117.327 21.74 116.41 20.8764 116.41 19.8388H113.912C113.912 21.8431 115.349 23.6411 119.205 23.6411C122.838 23.6411 124.369 21.9269 124.369 19.9806C124.369 18.1632 123.047 17.016 120.642 16.5971C118.353 16.2105 116.8 16.1202 116.8 14.7797C116.8 13.9162 117.703 13.4006 119.09 13.4006C120.592 13.4006 121.43 14.0193 121.43 15.16H123.993C123.993 13.3039 122.441 11.4414 118.974 11.4414C116.634 11.4414 114.114 12.6788 114.114 14.9666C114.114 16.8871 115.717 18.0665 118.346 18.4983ZM86.938 35.074C84.8075 35.074 83.5798 33.2179 83.5798 31.0267C83.5798 28.8355 84.8075 26.9795 86.938 26.9795C88.534 26.9795 89.3934 27.8882 89.7111 28.9838H92.441C92.0221 26.6959 90.0361 25.0203 86.8874 25.0203C82.8865 25.0203 80.9005 27.74 80.9005 31.0718C80.9005 34.4102 82.9804 37.1363 86.8874 37.1363C89.9856 37.1363 92.0655 35.5058 92.441 33.031H89.7111C89.3428 34.1653 88.534 35.074 86.938 35.074ZM122.072 35.074C119.992 35.074 118.765 33.2179 118.765 31.0267C118.765 28.8355 119.942 26.9795 122.072 26.9795C123.668 26.9795 124.528 27.8882 124.845 28.9838H127.575C127.156 26.6959 125.17 25.0203 122.022 25.0203C118.071 25.0203 116.035 27.74 116.035 31.0718C116.035 34.4102 118.115 37.1363 122.022 37.1363C125.12 37.1363 127.2 35.5058 127.619 33.031H124.845C124.528 34.1653 123.668 35.074 122.072 35.074Z" fill="#7F7F7F"/>
</svg>
