<svg width="135" height="25" viewBox="0 0 135 25" fill="none" xmlns="http://www.w3.org/2000/svg">
<path fill-rule="evenodd" clip-rule="evenodd" d="M13.7763 24.097C18.2172 24.2828 22.8218 21.9535 24.8074 19.5993C26.8428 17.2948 27.2698 15.777 27.6185 12.8405C27.8605 11.3722 27.4549 9.83585 26.9496 8.43575C26.2236 6.52766 24.8074 4.87356 23.1207 3.5664C20.3096 1.42289 15.8402 0.326353 11.8477 0.958254C9.03653 1.47245 6.84455 2.50084 5.1294 3.82659C3.92666 4.85498 3.12246 5.90195 2.39654 6.94893C1.998 7.71712 1.72756 8.41717 1.4073 9.21014C0.233029 12.7042 1.30055 16.6876 3.41425 19.2524C5.44966 21.7429 8.90131 23.4961 12.2177 23.9359C12.844 24.0784 13.2426 24.097 13.7763 24.097ZM35.3545 23.8678V4.87356H41.0053V23.8616H46.9478V4.87356H47.8588C50.8051 4.84878 52.627 6.36659 52.6484 8.46053V23.8616H58.2137V8.06405C58.0287 3.38674 53.4241 0.704255 49.2964 0.679474H29.4903V23.8678H35.3545ZM67.1525 23.9111V14.3831L67.124 4.85498H73.095C75.4791 4.85498 75.956 4.92313 77.1658 5.92673C78.1266 6.78785 78.1835 8.02688 77.543 9.42078C77.1658 10.4244 75.6713 11.4466 73.337 11.4714H68.6541L78.9877 23.8678H85.464L77.9416 14.5255C78.4753 14.5255 79.6567 14.1972 80.3755 13.6396C81.5498 12.8033 82.4607 11.682 82.9731 10.1704C83.5638 8.26229 83.2934 5.4621 81.7135 3.55401C79.251 0.71045 74.9667 0.685669 73.949 0.685669H61.4519V23.9173H67.1525V23.9111ZM113.519 23.8926H118.87L118.842 4.94791H123.66C126.5 4.89834 128.692 6.39137 128.692 8.46673L128.72 23.8926H134.072V8.02068C134.072 3.38054 129.417 0.846742 125.183 0.846742H113.511V23.8926H113.519ZM13.3209 19.2091C14.7371 19.3515 15.5413 19.3515 16.4238 19.048C18.4592 18.3479 19.9324 17.4187 21.0284 15.9256C21.2134 15.6902 21.6973 15.0397 21.8326 14.4326C22.288 12.8033 22.2311 11.6386 21.6973 10.1704C21.5337 9.82346 21.4056 9.5199 21.2134 9.21634C20.1459 7.58702 18.6158 6.53385 16.6871 5.93293C13.94 5.20191 10.8869 5.90195 9.01518 7.29585C7.03671 8.76409 6.04035 11.0501 6.41754 13.3299C6.58123 14.1662 7.00824 15.1017 7.40678 15.8203C9.14328 18.3417 11.3139 18.9736 13.3209 19.2091ZM98.1533 5.43732C93.869 5.43732 90.3391 8.51009 90.3391 12.2643C90.3391 16.0372 93.869 19.0913 98.1533 19.0913C102.466 19.0913 105.968 16.0372 105.968 12.2643C105.968 8.51009 102.459 5.43732 98.1533 5.43732ZM98.1533 0.611328C90.7661 0.611328 84.7168 5.83381 84.7168 12.2829C84.7168 18.7134 90.7661 23.9545 98.1533 23.9545C105.512 23.9545 111.54 18.7134 111.54 12.2829C111.54 5.83381 105.512 0.611328 98.1533 0.611328Z" fill="#7F7F7F"/>
</svg>
