<svg width="140" height="22" viewBox="0 0 140 22" fill="none" xmlns="http://www.w3.org/2000/svg">
<path d="M6.17048 0.0328587C3.28038 0.0328587 0.929688 2.10886 0.929688 4.67245V21.8937L16.9303 0.027832H6.17048V0.0328587Z" fill="#7F7F7F"/>
<path d="M16.998 9.86533L24.2885 0.0332031H19.6042L12.2568 10.1167L19.6837 21.1401H24.4759L16.998 9.86533Z" fill="#7F7F7F"/>
<path d="M41.5497 21.1398V18.1087H31.3293C30.4719 18.1087 29.4726 17.596 29.4726 16.842V11.5841H40.6355V8.55303H29.4726V4.60711C29.4726 3.84808 30.1823 3.09409 31.1589 3.07398H39.1819L41.4191 0.027832H30.6082C27.7124 0.027832 25.373 2.10384 25.373 4.66743V16.4901C25.373 19.0537 27.7181 21.1297 30.6082 21.1297H41.5497V21.1398Z" fill="#7F7F7F"/>
<path d="M79.7458 21.1398V18.1087H69.5254C68.668 18.1087 67.6687 17.596 67.6687 16.842V11.5841H78.8316V8.55303H67.6687V4.60711C67.6687 3.84808 68.3841 3.09409 69.355 3.07398H77.3781L79.6152 0.027832H68.8043C65.9085 0.027832 63.5635 2.10384 63.5635 4.66743V16.4901C63.5635 19.0537 65.9085 21.1297 68.8043 21.1297H79.7458V21.1398Z" fill="#7F7F7F"/>
<path d="M108.948 4.60711C108.948 3.84808 109.664 3.09409 110.635 3.07398H118.658L120.895 0.027832H110.089C107.194 0.027832 104.849 2.10384 104.849 4.66743V16.4901C104.849 19.0537 107.194 21.1297 110.089 21.1297H121.025V18.0986H110.805C109.947 18.0986 108.948 17.5859 108.948 16.8319V4.60711Z" fill="#7F7F7F"/>
<path d="M139.07 21.1398V18.1087H128.85C127.992 18.1087 126.999 17.596 126.999 16.842V11.5841H138.162V8.55303H126.999V4.60711C126.999 3.84808 127.708 3.09409 128.679 3.07398H136.702L138.939 0.027832H128.128C125.238 0.027832 122.888 2.10384 122.888 4.66743V16.4901C122.888 19.0537 125.238 21.1297 128.128 21.1297H139.07V21.1398Z" fill="#7F7F7F"/>
<path d="M42.8047 0.027832H47.1427L52.9683 9.06575L58.7315 0.027832H63.0751L54.7966 12.6196V21.1398H50.7993V12.6196L42.8047 0.027832Z" fill="#7F7F7F"/>
<path d="M82.8857 21.1398V0.0078125H86.8774L97.1602 14.4142V0.0078125H101.158V21.1398H97.2738L86.9966 6.93956V21.1499L82.8857 21.1398Z" fill="#7F7F7F"/>
</svg>
