<svg width="138" height="91" viewBox="0 0 138 91" fill="none" xmlns="http://www.w3.org/2000/svg">
<path fill-rule="evenodd" clip-rule="evenodd" d="M54.397 14.8746C53.9125 11.4333 53.4243 7.992 52.9398 4.55069C101.071 -5.56727 128.656 5.42319 99.2271 31.5232C85.324 42.9443 60.8941 56.204 25.3665 57.8217C18.1296 58.1512 -2.92406 57.9864 0.820229 45.9662C3.39279 37.7093 14.4379 32.2609 21.6448 29.3176C53.7736 16.204 109.66 18.5256 101.518 44.6144C94.9608 45.3521 88.4036 46.0898 81.8464 46.8275C89.549 32.7215 61.2659 26.6964 41.0422 33.3094C20.5294 40.0347 13.4765 51.6093 43.104 46.7114C103.587 33.9272 112.24 -0.175018 54.397 14.8746Z" fill="#343A40"/>
<path fill-rule="evenodd" clip-rule="evenodd" d="M77.7422 34.6606C80.8443 36.3607 83.015 38.6711 83.1389 42.3296C89.2454 39.1018 94.4093 35.3946 99.2277 31.5227C96.6289 28.6842 93.5268 26.7221 90.0116 25.4863C87.3264 28.4521 83.4243 31.5002 77.7422 34.6606Z" fill="#DEE2E6"/>
<path d="M74.3133 54.3604C74.3058 54.6787 74.2345 54.952 74.1068 55.1842C73.9791 55.4164 73.8026 55.5923 73.5735 55.7159C73.3444 55.8395 73.0815 55.9032 72.7773 55.9032C72.398 55.9032 72.0675 55.802 71.7821 55.6111C71.5004 55.4164 71.2789 55.1393 71.1211 54.776C70.9634 54.4128 70.8808 53.9822 70.8808 53.4766C70.8808 52.9823 70.9596 52.5592 71.1174 52.2072C71.2751 51.859 71.4929 51.5894 71.7783 51.4021C72.0638 51.2186 72.4018 51.125 72.7886 51.1213C72.9951 51.1213 73.1904 51.1475 73.3594 51.1999C73.5322 51.2486 73.6899 51.3122 73.8326 51.3834C73.9791 51.4545 74.1105 51.5294 74.2345 51.6043C74.3584 51.6792 74.4711 51.7391 74.58 51.7878C74.6889 51.8365 74.7941 51.8627 74.8955 51.8665C75.0307 51.8665 75.1583 51.8253 75.2672 51.7504C75.3762 51.6755 75.4663 51.5744 75.5301 51.4508C75.5977 51.3272 75.6315 51.1924 75.6315 51.0464C75.6315 50.8554 75.5639 50.6644 75.4325 50.4772C75.3011 50.29 75.1133 50.1177 74.8654 49.9642C74.6213 49.8107 74.3246 49.6871 73.9828 49.5935C73.6411 49.4999 73.258 49.4512 72.8337 49.4512C72.2515 49.4512 71.7258 49.5448 71.2563 49.7358C70.7869 49.923 70.385 50.1926 70.0508 50.5446C69.7165 50.8966 69.4574 51.3235 69.2809 51.8253C69.1006 52.3233 69.0105 52.885 69.0105 53.5103C69.0105 54.1207 69.1044 54.6787 69.2809 55.173C69.4574 55.671 69.709 56.0979 70.0358 56.4574C70.3587 56.8168 70.7418 57.0939 71.185 57.2849C71.6244 57.4796 72.1088 57.577 72.6384 57.577C73.1792 57.577 73.6711 57.4834 74.103 57.2999C74.5387 57.1202 74.9105 56.8655 75.2184 56.536C75.5264 56.2102 75.763 55.8208 75.9282 55.3714C76.0935 54.9221 76.1761 54.4315 76.1761 53.896C76.1761 53.6189 76.1348 53.3905 76.0522 53.2183C75.9658 53.046 75.8381 52.9224 75.6578 52.8438C75.4813 52.7652 75.2522 52.7277 74.9706 52.7277H73.7012C73.2956 52.7277 72.9914 52.7914 72.7886 52.9224C72.5858 53.0535 72.4844 53.2632 72.4844 53.5478C72.4844 53.8324 72.5858 54.0383 72.7886 54.1656C72.9914 54.2967 73.2956 54.3566 73.7012 54.3566H74.3133V54.3604ZM80.3035 53.1509V51.2823H81.1259C81.4752 51.2823 81.7418 51.3647 81.9259 51.5257C82.1099 51.6867 82.2038 51.9114 82.2038 52.1997C82.2038 52.4993 82.1061 52.7315 81.9183 52.8962C81.7306 53.061 81.4564 53.1471 81.1034 53.1471H80.3035V53.1509ZM80.3035 54.3154L82.3202 56.873C82.4779 57.0752 82.6281 57.2288 82.7784 57.3336C82.9248 57.4422 83.0826 57.4946 83.2478 57.4984C83.4093 57.4984 83.552 57.4572 83.6759 57.386C83.7999 57.3111 83.8938 57.2138 83.9651 57.0902C84.0327 56.9666 84.0703 56.8281 84.0703 56.6783C84.0703 56.3974 83.9013 56.0642 83.5595 55.6747L82.1925 54.1432C82.5756 54.0758 82.8985 53.9485 83.1689 53.7612C83.4393 53.574 83.6459 53.3381 83.7886 53.0498C83.9313 52.7614 84.0027 52.4356 84.0064 52.0724C84.0064 51.7167 83.9426 51.3946 83.8187 51.1026C83.691 50.8105 83.5069 50.5558 83.2628 50.3461C83.0187 50.1327 82.7145 49.9717 82.3577 49.8556C81.9972 49.7395 81.5878 49.6796 81.1184 49.6796H79.7739C79.5373 49.6796 79.3383 49.7021 79.1805 49.7507C79.0266 49.7994 78.9026 49.8743 78.8163 49.9754C78.7261 50.0765 78.666 50.2038 78.6285 50.3574C78.5947 50.5109 78.5759 50.6981 78.5759 50.9116V56.2102C78.5759 56.6259 78.6435 56.9367 78.7862 57.1426C78.9289 57.3486 79.1467 57.4534 79.4397 57.4534C79.7326 57.4534 79.9504 57.3523 80.0931 57.1426C80.2359 56.9367 80.3035 56.6259 80.3035 56.2102V54.3154ZM86.4363 54.0571C86.4363 54.63 86.5151 55.1355 86.6654 55.5736C86.8156 56.0118 87.0334 56.3787 87.3188 56.6783C87.6005 56.9741 87.946 57.1988 88.3441 57.3523C88.7459 57.5021 89.1929 57.5807 89.6886 57.5807C90.1881 57.5807 90.635 57.5021 91.0331 57.3523C91.4312 57.2025 91.7729 56.9779 92.0583 56.6783C92.34 56.3825 92.5578 56.0118 92.7118 55.5736C92.862 55.1355 92.9409 54.63 92.9409 54.0571V50.818C92.9409 50.4023 92.8733 50.0915 92.7306 49.8855C92.5879 49.6796 92.3701 49.5747 92.0771 49.5747C91.7842 49.5747 91.5664 49.6759 91.4237 49.8855C91.2847 50.0915 91.2133 50.4023 91.2133 50.818V53.8623C91.2133 54.5439 91.0819 55.0531 90.8265 55.3939C90.5674 55.7346 90.1918 55.9032 89.6886 55.9032C89.1891 55.9032 88.806 55.7346 88.5507 55.3939C88.2915 55.0531 88.1638 54.5439 88.1638 53.8623V50.818C88.1638 50.4023 88.0962 50.0915 87.9535 49.8855C87.8108 49.6796 87.593 49.5747 87.3001 49.5747C87.0071 49.5747 86.7893 49.6759 86.6466 49.8855C86.5039 50.0915 86.4363 50.4023 86.4363 50.818V54.0571ZM97.5039 53.3006V51.2823H98.2513C98.6493 51.2823 98.9498 51.3609 99.1451 51.5257C99.3404 51.6905 99.438 51.9413 99.438 52.2858C99.438 52.6191 99.3404 52.8738 99.1413 53.0423C98.9423 53.2145 98.6456 53.3006 98.2513 53.3006H97.5039ZM97.5039 56.2065V54.8884H98.6681C99.2277 54.8884 99.7047 54.7798 100.095 54.5701C100.486 54.3604 100.786 54.0645 100.993 53.6751C101.199 53.2894 101.301 52.8251 101.305 52.2858C101.305 51.7541 101.192 51.2935 100.97 50.9041C100.749 50.5146 100.433 50.2113 100.02 49.9979C99.607 49.7844 99.1113 49.6759 98.5292 49.6759H96.9706C96.734 49.6759 96.535 49.6983 96.3772 49.747C96.2233 49.7957 96.0993 49.8706 96.0129 49.9717C95.9228 50.0728 95.8627 50.2001 95.8252 50.3536C95.7914 50.5072 95.7726 50.6944 95.7726 50.9078V56.2065C95.7726 56.6221 95.8402 56.9329 95.9829 57.1389C96.1256 57.3448 96.3434 57.4497 96.6364 57.4497C96.9293 57.4497 97.1471 57.3486 97.2898 57.1389C97.4363 56.9329 97.5039 56.6221 97.5039 56.2065ZM103.359 53.5178C103.359 54.1282 103.449 54.6787 103.625 55.1767C103.802 55.6747 104.054 56.1016 104.38 56.4574C104.707 56.8168 105.098 57.0902 105.552 57.2849C106.01 57.4796 106.517 57.577 107.081 57.577C107.644 57.577 108.151 57.4796 108.609 57.2849C109.067 57.0939 109.458 56.8168 109.788 56.4574C110.115 56.0979 110.37 55.6747 110.547 55.1767C110.723 54.6787 110.814 54.1282 110.814 53.5178C110.814 52.9075 110.72 52.3533 110.543 51.8552C110.363 51.3572 110.108 50.9303 109.777 50.5746C109.447 50.2188 109.052 49.9417 108.598 49.7507C108.143 49.5598 107.636 49.4624 107.084 49.4587C106.528 49.4587 106.025 49.556 105.571 49.7507C105.116 49.9417 104.726 50.2151 104.395 50.5746C104.065 50.934 103.813 51.3609 103.633 51.8552C103.449 52.3495 103.359 52.9037 103.359 53.5178ZM105.237 53.5403C105.237 53.031 105.315 52.5967 105.469 52.2372C105.623 51.8777 105.837 51.6006 106.112 51.4096C106.386 51.2186 106.713 51.125 107.077 51.1213C107.445 51.1213 107.768 51.2186 108.042 51.4096C108.316 51.6006 108.534 51.8739 108.684 52.2372C108.838 52.5967 108.917 53.031 108.917 53.5403C108.917 54.0271 108.834 54.4502 108.68 54.8022C108.526 55.1542 108.312 55.4238 108.034 55.6148C107.76 55.8058 107.437 55.9032 107.073 55.9032C106.709 55.9032 106.386 55.8058 106.112 55.6148C105.837 55.4238 105.62 55.1542 105.466 54.8022C105.315 54.4465 105.237 54.0271 105.237 53.5403Z" fill="black"/>
<path d="M47.6488 71.2713L49.7143 65.5495L51.6409 71.2713H47.6488ZM46.5672 74.5029H52.745L53.2145 75.9334C53.4023 76.5063 53.6576 76.9369 53.9844 77.2178C54.3111 77.5024 54.7205 77.6447 55.2087 77.6447C55.5655 77.6409 55.8809 77.5735 56.1664 77.4387C56.448 77.3039 56.6696 77.1129 56.8349 76.8695C57.0001 76.6224 57.0827 76.3341 57.0865 76.0008C57.0865 75.8472 57.0639 75.6787 57.0189 75.4953C56.97 75.3118 56.91 75.1133 56.8273 74.8961L52.5986 63.8233C52.3357 63.1605 51.9676 62.6512 51.4907 62.3104C51.0175 61.9622 50.4542 61.7899 49.8045 61.7862C49.1022 61.7862 48.52 61.9697 48.0506 62.3441C47.5774 62.7186 47.1943 63.2915 46.8901 64.0592L42.545 74.9373C42.4736 75.0983 42.4285 75.2668 42.3985 75.4391C42.3684 75.6076 42.3572 75.7836 42.3572 75.9558C42.3609 76.2854 42.4398 76.5737 42.5938 76.8209C42.7478 77.0717 42.9581 77.2665 43.2285 77.405C43.4989 77.5473 43.8106 77.6185 44.1674 77.6222C44.5767 77.6222 44.941 77.4911 45.2527 77.2328C45.5644 76.9744 45.8123 76.5812 46.0001 76.0607L46.5672 74.5029ZM62.3292 75.1096V68.021L69.2132 76.4089C69.5737 76.8508 69.9305 77.1728 70.2797 77.3788C70.6328 77.5848 71.0046 77.6896 71.3989 77.6859C72.0073 77.6859 72.4467 77.5024 72.7246 77.1354C73.0025 76.7684 73.1377 76.2217 73.134 75.4953V64.2951C73.134 63.46 72.98 62.8347 72.6683 62.4228C72.3566 62.0071 71.8759 61.8012 71.2299 61.8012C70.5877 61.8012 70.107 62.0071 69.7915 62.4228C69.4836 62.8347 69.3258 63.46 69.3258 64.2951V71.511L62.3029 62.9508C62.1039 62.7036 61.9011 62.4977 61.6945 62.3292C61.4917 62.1644 61.2739 62.0371 61.0448 61.951C60.8195 61.8686 60.5641 61.8236 60.2825 61.8236C59.6741 61.8236 59.2309 62.0221 58.9417 62.4153C58.6563 62.8085 58.5136 63.3889 58.5173 64.164V75.1096C58.5173 75.9446 58.6713 76.57 58.983 76.9819C59.2947 77.3975 59.7754 77.6035 60.4214 77.6035C61.0674 77.6035 61.5443 77.3975 61.8598 76.9819C62.1753 76.5662 62.3292 75.9409 62.3292 75.1096ZM78.2528 65.2687V75.1096C78.2528 75.9446 78.4068 76.57 78.7185 76.9819C79.0302 77.3975 79.5109 77.6035 80.1569 77.6035C80.8028 77.6035 81.2798 77.3975 81.5952 76.9819C81.9069 76.57 82.0609 75.9446 82.0609 75.1096V65.2687H83.4693C84.3744 65.2687 85.0504 65.1339 85.4973 64.8718C85.9479 64.6059 86.1695 64.194 86.1695 63.6435C86.1695 63.0893 85.9479 62.6774 85.4973 62.4041C85.0504 62.1345 84.3744 61.9959 83.4693 61.9959H76.8445C75.9394 61.9959 75.2634 62.1345 74.8165 62.4041C74.3658 62.6774 74.1442 63.0893 74.1442 63.6435C74.1442 64.194 74.3658 64.6059 74.8165 64.8718C75.2634 65.1339 75.9394 65.2687 76.8445 65.2687H78.2528ZM86.3573 69.7098C86.361 70.9343 86.5563 72.0427 86.9432 73.0388C87.33 74.0349 87.882 74.8924 88.6069 75.6113C89.3279 76.3303 90.188 76.8845 91.1907 77.2702C92.1972 77.6596 93.3163 77.8544 94.5519 77.8581C95.7875 77.8544 96.9142 77.6596 97.9169 77.2702C98.9234 76.8845 99.7872 76.3303 100.512 75.6113C101.233 74.8924 101.793 74.0349 102.179 73.0388C102.57 72.0427 102.765 70.9343 102.769 69.7098C102.765 68.4816 102.566 67.3694 102.172 66.3696C101.778 65.3735 101.214 64.516 100.486 63.7971C99.7571 63.0818 98.8933 62.5276 97.8868 62.1457C96.8841 61.76 95.7725 61.5653 94.5519 61.5615C93.3314 61.5653 92.2235 61.76 91.2207 62.1457C90.218 62.5276 89.358 63.0818 88.6294 63.7971C87.9046 64.516 87.345 65.3735 86.9544 66.3696C86.5601 67.3694 86.361 68.4853 86.3573 69.7098ZM90.4922 69.7548C90.4959 68.7325 90.6687 67.86 91.0104 67.1373C91.3484 66.4146 91.8216 65.8641 92.4263 65.4784C93.0347 65.0964 93.7445 64.9055 94.5557 64.9017C95.3669 64.9055 96.0804 65.0964 96.6851 65.4784C97.2935 65.8604 97.7667 66.4146 98.1009 67.1373C98.4427 67.86 98.6154 68.7325 98.6192 69.7548C98.6154 70.7321 98.4389 71.5784 98.0972 72.2861C97.7554 72.9938 97.2822 73.5368 96.6738 73.9188C96.0654 74.3007 95.3631 74.4954 94.5557 74.4992C93.752 74.4954 93.0459 74.3007 92.4375 73.9188C91.8291 73.5368 91.3522 72.9938 91.0142 72.2861C90.6724 71.5784 90.4959 70.7321 90.4922 69.7548ZM104.913 64.2951V75.1957C104.91 75.7499 104.981 76.1843 105.135 76.51C105.289 76.8358 105.548 77.068 105.931 77.2028C106.307 77.3414 106.829 77.4088 107.497 77.405H111.936C112.841 77.405 113.517 77.274 113.964 77.0081C114.415 76.7422 114.637 76.3341 114.637 75.7798C114.637 75.2256 114.415 74.8175 113.964 74.5516C113.517 74.2857 112.841 74.1547 111.936 74.1547H108.718V64.2951C108.718 63.46 108.564 62.8347 108.252 62.4228C107.94 62.0071 107.46 61.8012 106.814 61.8012C106.168 61.8012 105.691 62.0071 105.375 62.4228C105.067 62.8347 104.913 63.46 104.913 64.2951ZM119.643 75.1096V64.2951C119.643 63.46 119.489 62.8347 119.177 62.4228C118.865 62.0071 118.385 61.8012 117.739 61.8012C117.093 61.8012 116.616 62.0071 116.3 62.4228C115.989 62.8347 115.835 63.46 115.835 64.2951V75.1096C115.835 75.9446 115.989 76.57 116.3 76.9819C116.612 77.3975 117.093 77.6035 117.739 77.6035C118.385 77.6035 118.862 77.3975 119.177 76.9819C119.489 76.5662 119.643 75.9409 119.643 75.1096ZM126.5 75.1096V68.021L133.384 76.4089C133.745 76.8508 134.102 77.1728 134.451 77.3788C134.804 77.5848 135.176 77.6896 135.57 77.6859C136.179 77.6859 136.618 77.5024 136.896 77.1354C137.174 76.7684 137.309 76.2217 137.305 75.4953V64.2951C137.305 63.46 137.151 62.8347 136.839 62.4228C136.528 62.0071 136.047 61.8012 135.401 61.8012C134.759 61.8012 134.278 62.0071 133.963 62.4228C133.655 62.8347 133.497 63.46 133.497 64.2951V71.511L126.474 62.9508C126.275 62.7036 126.072 62.4977 125.866 62.3292C125.663 62.1644 125.445 62.0371 125.216 61.951C124.991 61.8686 124.735 61.8236 124.454 61.8236C123.845 61.8236 123.402 62.0221 123.113 62.4153C122.827 62.8085 122.685 63.3889 122.689 64.164V75.1096C122.689 75.9446 122.843 76.57 123.154 76.9819C123.466 77.3975 123.947 77.6035 124.593 77.6035C125.239 77.6035 125.716 77.3975 126.031 76.9819C126.346 76.5662 126.5 75.9409 126.5 75.1096Z" fill="black"/>
<path fill-rule="evenodd" clip-rule="evenodd" d="M42.2407 80.9443H138V85.0709H42.2407V80.9443Z" fill="#DEE2E6"/>
<path fill-rule="evenodd" clip-rule="evenodd" d="M42.2407 86.2129H138V90.3432H42.2407V86.2129Z" fill="#343A40"/>
</svg>
