<svg width="120" height="24" viewBox="0 0 120 24" fill="none" xmlns="http://www.w3.org/2000/svg">
<g clip-path="url(#clip0)">
<path d="M8.13778 20.567C10.795 20.5578 13.074 20.1249 14.4579 19.213C16.2294 18.0524 17.4566 16.0352 18.6745 12.2402C19.7632 8.86896 20.2245 6.41882 19.062 5.10164C18.2869 4.21738 16.4324 3.79367 14.0335 3.79367C13.9228 3.79367 13.8213 3.79367 13.7198 3.79367C13.7198 3.79367 12.7049 3.77525 11.69 3.895L6.67077 19.563C6.67077 19.563 6.4032 20.567 7.60264 20.567H8.13778ZM6.32016 3.36997C6.21867 3.01073 5.29602 1.17773 5.29602 1.17773H14.8178C18.0101 1.17773 21.9222 1.46328 23.8505 3.66472C25.4098 5.43324 25.5482 8.21498 24.2749 12.1757C20.9811 22.4184 13.7936 23.2658 6.30171 23.2658H0L6.32016 3.36997Z" fill="#4F4F4F"/>
<path d="M33.9444 20.5669L44.0105 20.5761L43.1432 23.275H26.3787L32.6988 3.3699C32.5973 3.01067 31.6931 1.16846 31.6931 1.16846H49.528L48.6607 3.8673H38.0594L35.965 10.4071H43.3554L42.4881 13.106H35.0977L33.0587 19.4985C33.0587 19.4985 32.7726 20.5393 33.9444 20.5669Z" fill="#4F4F4F"/>
<path d="M51.198 23.2658L56.2726 7.00827L62.399 23.2658H67.1507L74.2643 1.16846H70.4261L65.5729 16.643L65.4991 16.4588L59.7879 1.16846H52.5266C52.5266 1.16846 53.4308 3.00146 53.5323 3.36069L47.2122 23.2658H51.198Z" fill="#4F4F4F"/>
<path d="M92.994 4.86237C92.1267 4.4663 90.0415 3.56361 87.0798 3.53598C86.2309 3.51756 84.1734 3.76626 83.4814 5.91243C82.8909 7.72701 84.8562 8.70338 87.1259 9.82713C90.0323 11.2733 93.3261 12.922 92.0529 16.8828C90.6781 21.1567 86.2125 23.699 79.8001 23.6069C75.1314 23.5332 72.8433 22.6765 72.8433 22.6765L74.1534 18.5961L75.0945 19.1303C76.0264 19.6645 78.4899 20.908 81.2578 20.908C82.1805 20.908 83.4907 20.733 84.5425 20.0882C85.2991 19.6277 85.825 18.8632 86.1387 17.9052C86.7753 15.9341 84.7547 14.9116 82.4296 13.7326C79.5878 12.2957 76.3678 10.6653 77.6134 6.81512C78.1301 5.2216 79.2096 3.84916 80.7504 2.83594C82.7525 1.51876 85.0223 0.846353 88.6667 0.837142C91.2225 0.81872 93.7044 1.15953 94.747 1.42665L95.1345 1.53718L94.9869 2.00695L94.2488 4.3005L93.9351 5.29529L92.994 4.86237Z" fill="#4F4F4F"/>
<path d="M105.238 21.0001C106.622 21.0001 107.803 20.6961 108.808 20.0053C111.115 18.4394 112.407 15.2063 113.338 12.3049C114.353 9.13625 115.11 5.99529 113.744 4.43862C113.163 3.77542 112.222 3.45303 110.884 3.45303C106.031 3.45303 103.983 7.70854 102.507 12.3049C101.713 14.7918 100.818 18.2828 102.294 19.9777C102.912 20.6593 103.872 21.0001 105.238 21.0001ZM96.8691 12.3049C98.3177 7.79144 100.301 4.83469 103.115 2.99248C105.431 1.46345 108.264 0.726562 111.761 0.726562C115.11 0.726562 117.38 1.45424 118.699 2.95564C120.341 4.81627 120.434 7.79144 118.976 12.3049C117.398 17.2143 114.16 23.7266 104.352 23.7266C100.873 23.7266 98.5207 22.9805 97.1736 21.4514C95.5497 19.6 95.4482 16.6893 96.8691 12.3049Z" fill="#4F4F4F"/>
</g>
<defs>
<clipPath id="clip0">
<rect width="120" height="23" fill="white" transform="translate(0 0.726562)"/>
</clipPath>
</defs>
</svg>
