<svg width="157" height="38" viewBox="0 0 157 38" fill="none" xmlns="http://www.w3.org/2000/svg">
<path d="M45.7939 25.9541H48.5734V26.5011H46.4525V27.9578H48.4506V28.4991H46.4525V30.62H45.7939V25.9541Z" fill="#4F4F4F"/>
<path d="M50.9622 25.9531H51.6096V30.6246H50.9622V25.9531Z" fill="#4F4F4F"/>
<path d="M54.4058 25.9531H55.0476V30.0497H57.2187V30.6246H54.4058V25.9531Z" fill="#4F4F4F"/>
<path d="M60.1043 30.6259V26.5069H58.5415V25.96H62.3088V26.5069H60.7461V30.6259H60.1043Z" fill="#4F4F4F"/>
<path d="M64.5303 25.9531H66.1991C66.4391 25.9531 66.9302 25.9531 67.2762 26.1708C67.6223 26.3885 67.7953 26.7457 67.7953 27.1196C67.7953 27.4489 67.6725 27.7391 67.466 27.9456C67.2651 28.1465 67.0586 28.2079 66.9135 28.2526C67.36 28.3698 67.5609 28.5707 67.6223 29.1512C67.6892 29.7037 67.7339 30.1056 67.9125 30.619H67.2204C67.1144 30.3065 67.053 29.7372 67.0083 29.38C66.9302 28.6991 66.7683 28.5093 65.987 28.5093H65.1721V30.619H64.5303V25.9531ZM65.1554 27.9624H66.1767C66.2493 27.9624 66.6177 27.9624 66.7907 27.8619C66.88 27.8117 67.1088 27.6442 67.1088 27.2536C67.1088 26.5001 66.4335 26.5001 66.1767 26.5001H65.1554V27.9624Z" fill="#4F4F4F"/>
<path d="M71.9309 25.9531H72.6229L74.5094 30.6246H73.8062L73.2983 29.4079H71.1328L70.6249 30.6246H69.9607L71.9309 25.9531ZM71.3393 28.8833H73.1085L72.249 26.595L71.3393 28.8833Z" fill="#4F4F4F"/>
<path d="M77.406 30.6259V26.5069H75.8376V25.96H79.6106V26.5069H78.0422V30.6259H77.406Z" fill="#4F4F4F"/>
<path d="M81.8433 25.9531H82.4907V30.6246H81.8433V25.9531Z" fill="#4F4F4F"/>
<path d="M85.6716 26.4562C86.1572 25.9315 86.799 25.8311 87.2288 25.8311C88.5236 25.8311 89.3385 26.6571 89.3385 28.2477C89.3385 29.4868 88.8418 30.737 87.1786 30.737C85.5879 30.737 85.0688 29.604 85.0688 28.3259C85.0688 27.7901 85.1581 27.0087 85.6716 26.4562ZM86.1628 29.7547C86.4251 30.084 86.8269 30.1788 87.1953 30.1788C87.5748 30.1788 87.9599 30.0784 88.2278 29.7547C88.6073 29.2914 88.6464 28.5491 88.6464 28.2366C88.6464 27.1761 88.2948 26.3724 87.2288 26.3724C86.0456 26.3724 85.7386 27.3212 85.7386 28.2812C85.7498 28.7891 85.8391 29.3528 86.1628 29.7547Z" fill="#4F4F4F"/>
<path d="M91.9507 25.9531H92.8493L95.1431 29.8153V25.9531H95.7403V30.6246H94.9143L92.5423 26.6564V30.6246H91.9507V25.9531Z" fill="#4F4F4F"/>
<path d="M102.432 29.2576C102.443 29.5814 102.482 30.1841 103.56 30.1841C104.531 30.1841 104.654 29.5814 104.654 29.3525C104.654 28.8279 104.235 28.7274 103.582 28.56C102.868 28.387 102.555 28.3088 102.315 28.147C101.936 27.8902 101.829 27.5386 101.829 27.2317C101.829 26.2773 102.728 25.8643 103.61 25.8643C103.922 25.8643 104.548 25.9145 104.921 26.3275C105.178 26.6121 105.195 26.9303 105.206 27.12H104.531C104.497 26.5396 104.006 26.4056 103.548 26.4056C102.901 26.4056 102.516 26.6959 102.516 27.1647C102.516 27.5777 102.789 27.7228 103.359 27.8568C104.469 28.1414 104.598 28.1637 104.866 28.3479C105.301 28.6325 105.334 29.0846 105.334 29.28C105.334 30.106 104.687 30.7367 103.493 30.7367C103.135 30.7367 102.41 30.6809 102.042 30.2065C101.774 29.866 101.768 29.4865 101.768 29.2632H102.432V29.2576Z" fill="#4F4F4F"/>
<path d="M108.315 26.4562C108.8 25.9315 109.442 25.8311 109.872 25.8311C111.167 25.8311 111.982 26.6571 111.982 28.2477C111.982 29.4868 111.485 30.737 109.822 30.737C108.231 30.737 107.712 29.604 107.712 28.3259C107.712 27.7901 107.801 27.0087 108.315 26.4562ZM108.806 29.7547C109.074 30.084 109.47 30.1788 109.838 30.1788C110.218 30.1788 110.603 30.0784 110.876 29.7547C111.256 29.2914 111.295 28.5491 111.295 28.2366C111.295 27.1761 110.943 26.3724 109.877 26.3724C108.694 26.3724 108.393 27.3212 108.393 28.2812C108.393 28.7891 108.482 29.3528 108.806 29.7547Z" fill="#4F4F4F"/>
<path d="M114.577 25.9531H115.219V30.0497H117.395V30.6246H114.582V25.9531H114.577Z" fill="#4F4F4F"/>
<path d="M120.437 25.9531V28.8442C120.437 29.3409 120.549 29.5474 120.644 29.687C120.934 30.0777 121.386 30.1446 121.71 30.1446C122.971 30.1446 122.971 29.1512 122.971 28.8163V25.9531H123.596V28.833C123.596 29.0842 123.591 29.6088 123.217 30.0721C122.759 30.6469 122.045 30.7195 121.71 30.7195C121.269 30.7195 120.493 30.5967 120.064 29.9772C119.924 29.7707 119.79 29.4972 119.79 28.7996V25.9531H120.437Z" fill="#4F4F4F"/>
<path d="M127.542 30.6259V26.5069H125.979V25.96H129.752V26.5069H128.184V30.6259H127.542Z" fill="#4F4F4F"/>
<path d="M131.979 25.9531H132.627V30.6246H131.979V25.9531Z" fill="#4F4F4F"/>
<path d="M135.808 26.4562C136.293 25.9315 136.935 25.8311 137.365 25.8311C138.66 25.8311 139.475 26.6571 139.475 28.2477C139.475 29.4868 138.978 30.737 137.315 30.737C135.724 30.737 135.205 29.604 135.205 28.3259C135.205 27.7901 135.294 27.0087 135.808 26.4562ZM136.299 29.7547C136.567 30.084 136.963 30.1788 137.332 30.1788C137.711 30.1788 138.096 30.0784 138.364 29.7547C138.744 29.2914 138.788 28.5491 138.788 28.2366C138.788 27.1761 138.437 26.3724 137.371 26.3724C136.187 26.3724 135.88 27.3212 135.88 28.2812C135.88 28.7891 135.975 29.3528 136.299 29.7547Z" fill="#4F4F4F"/>
<path d="M142.087 25.9531H142.985L145.279 29.8153V25.9531H145.877V30.6246H145.051L142.679 26.6564V30.6246H142.087V25.9531Z" fill="#4F4F4F"/>
<path d="M149.153 29.2576C149.164 29.5814 149.203 30.1841 150.28 30.1841C151.251 30.1841 151.374 29.5814 151.374 29.3525C151.374 28.8279 150.955 28.7274 150.302 28.56C149.594 28.387 149.275 28.3088 149.035 28.147C148.656 27.8902 148.55 27.5386 148.55 27.2317C148.55 26.2773 149.449 25.8643 150.33 25.8643C150.643 25.8643 151.268 25.9145 151.642 26.3275C151.899 26.6121 151.915 26.9303 151.927 27.12H151.251C151.218 26.5396 150.727 26.4056 150.269 26.4056C149.622 26.4056 149.236 26.6959 149.236 27.1647C149.236 27.5777 149.51 27.7228 150.079 27.8568C151.19 28.1414 151.313 28.1637 151.586 28.3479C152.021 28.6325 152.049 29.0846 152.049 29.28C152.049 30.106 151.402 30.7367 150.208 30.7367C149.85 30.7367 149.13 30.6809 148.762 30.2065C148.494 29.866 148.489 29.4865 148.489 29.2632H149.153V29.2576Z" fill="#4F4F4F"/>
<path d="M157 19.8586C157 20.6065 156.386 21.2149 155.633 21.2149C154.879 21.2149 154.276 20.6065 154.276 19.8586C154.276 19.0884 154.896 18.4912 155.633 18.4912C156.369 18.4912 157 19.0884 157 19.8586ZM154.511 19.8586C154.511 20.4781 155.019 20.9804 155.633 20.9804C156.263 20.9804 156.766 20.467 156.766 19.8586C156.766 19.2279 156.258 18.7256 155.633 18.7256C155.024 18.7256 154.511 19.2168 154.511 19.8586ZM155.008 19.0996H155.711C155.962 19.0996 156.274 19.0996 156.274 19.4958C156.274 19.6521 156.202 19.8195 155.906 19.8586V19.8642C156.196 19.8698 156.207 20.0149 156.235 20.1656C156.286 20.506 156.286 20.5172 156.314 20.6121H155.861C155.839 20.5172 155.828 20.4167 155.811 20.2605C155.789 20.0874 155.783 20.0205 155.599 20.0205H155.426V20.6121H155.002V19.0996H155.008ZM155.432 19.747H155.588C155.727 19.747 155.867 19.747 155.867 19.5572C155.867 19.3675 155.711 19.3675 155.588 19.3675H155.432V19.747Z" fill="#4F4F4F"/>
<path d="M8.20999 23.4257C8.20999 20.1551 10.8611 17.504 14.1317 17.504C17.4023 17.504 20.0534 20.1551 20.0534 23.4257C20.0534 26.6963 17.4023 29.3474 14.1317 29.3474C10.8555 29.3474 8.20999 26.6963 8.20999 23.4257ZM22.2579 2.57422V11.6437C19.9473 10.0475 17.1511 9.11542 14.1317 9.11542C11.6704 9.11542 9.35414 9.73494 7.32816 10.8289C8.40533 10.5386 9.53832 10.3935 10.7104 10.4214C16.7102 10.5665 21.5491 15.1822 22.1296 21.0034C22.1407 21.0481 22.1519 21.0927 22.1686 21.1374H28.2634V2.57422H22.2579ZM6.10029 21.1374C7.09933 17.638 10.3141 15.0762 14.1317 15.0762C16.18 15.0762 18.0553 15.8129 19.5064 17.0352C17.7539 13.9543 14.4777 11.8391 10.6769 11.7442C6.59143 11.6437 2.99154 13.9097 1.19438 17.2863C0.714398 18.2965 0.351618 19.3681 0.117206 20.49C0.0837185 20.7021 0.0558123 20.9141 0.0334874 21.1318H6.10029V21.1374ZM17.5585 36.4411C11.5587 36.2904 6.7198 31.6803 6.13935 25.8591C6.12819 25.8145 6.11703 25.7698 6.10029 25.7252H0C1.0995 32.5398 7.01003 37.7471 14.1317 37.7471C16.593 37.7471 18.9092 37.1276 20.9352 36.0281C19.8636 36.3239 18.725 36.469 17.5585 36.4411ZM22.1686 25.7252C21.1696 29.2246 17.9548 31.7864 14.1317 31.7864C12.0834 31.7864 10.2137 31.0497 8.75695 29.8274C10.5095 32.9082 13.7856 35.0235 17.5865 35.1184C21.6775 35.2188 25.2718 32.9529 27.069 29.5706C27.549 28.566 27.9117 27.4888 28.1461 26.367C28.1796 26.1549 28.2075 25.9428 28.2299 25.7252H22.1686Z" fill="#4F4F4F"/>
<path d="M46.2963 5.45387C46.2963 3.05394 45.0405 3.21021 43.8406 3.18789V2.49023C44.8843 2.54605 45.9503 2.54605 46.9884 2.54605C48.1102 2.54605 49.6283 2.49023 51.6041 2.49023C58.5136 2.49023 62.281 7.10591 62.281 11.8276C62.281 14.4676 60.735 21.1148 51.2859 21.1148C49.9241 21.1148 48.6739 21.059 47.4181 21.059C46.2182 21.059 45.0461 21.0869 43.8406 21.1148V20.4171C45.4424 20.2553 46.2182 20.2051 46.2963 18.3912V5.45387ZM48.9083 17.9726C48.9083 20.0265 50.3762 20.2665 51.6822 20.2665C57.4476 20.2665 59.3397 15.9187 59.3397 11.9393C59.3397 6.94964 56.136 3.34416 50.9845 3.34416C49.8906 3.34416 49.3827 3.4223 48.9028 3.45021V17.9726H48.9083Z" fill="#4F4F4F"/>
<path d="M68.9952 8.92578C72.7068 8.92578 75.4806 11.3815 75.4806 15.1712C75.4806 18.6148 72.757 21.5226 69.3413 21.5226C65.7916 21.5226 62.8838 19.0669 62.8838 15.2772C62.8838 11.8336 65.4177 8.92578 68.9952 8.92578ZM69.3134 20.825C71.9812 20.825 73.0249 17.733 73.0249 15.4335C73.0249 13.2457 71.8528 9.61785 69.0231 9.61785C66.3776 9.61785 65.3395 12.7154 65.3395 15.0093C65.3395 17.1972 66.5172 20.825 69.3134 20.825Z" fill="#4F4F4F"/>
<path d="M76.6082 12.4752C76.6082 11.4873 76.3124 11.2194 75.0622 10.7115V10.2036C76.2119 9.82966 77.3058 9.48363 78.5839 8.91992C78.6621 8.91992 78.7458 8.97573 78.7458 9.18782V10.9236C80.2695 9.82966 81.5755 8.91992 83.3615 8.91992C85.6275 8.91992 86.4311 10.572 86.4311 12.6538V19.541C86.4311 20.4228 87.0172 20.4228 87.7651 20.4228H88.245V21.1205C87.313 21.1205 86.3753 21.0647 85.4154 21.0647C84.4554 21.0647 83.4954 21.0926 82.5355 21.1205V20.4228H83.0154C83.7633 20.4228 84.2935 20.4228 84.2935 19.541V12.6314C84.2935 11.1078 83.3615 10.3655 81.8378 10.3655C80.9839 10.3655 79.622 11.0575 78.7458 11.6436V19.541C78.7458 20.4228 79.3318 20.4228 80.0797 20.4228H80.5597V21.1205C79.6276 21.1205 78.6956 21.0647 77.73 21.0647C76.77 21.0647 75.8101 21.0926 74.8501 21.1205V20.4228H75.3301C76.078 20.4228 76.6082 20.4228 76.6082 19.541V12.4752Z" fill="#4F4F4F"/>
<path d="M141.735 12.4752C141.735 11.4873 141.44 11.2194 140.184 10.7115V10.2036C141.333 9.82966 142.427 9.48363 143.705 8.91992C143.784 8.91992 143.867 8.97573 143.867 9.18782V10.9236C145.391 9.82966 146.697 8.91992 148.483 8.91992C150.749 8.91992 151.553 10.572 151.553 12.6538V19.541C151.553 20.4228 152.139 20.4228 152.887 20.4228H153.367V21.1205C152.435 21.1205 151.497 21.0647 150.537 21.0647C149.577 21.0647 148.617 21.0926 147.657 21.1205V20.4228H148.137C148.885 20.4228 149.415 20.4228 149.415 19.541V12.6314C149.415 11.1078 148.483 10.3655 146.959 10.3655C146.105 10.3655 144.744 11.0575 143.862 11.6436V19.541C143.862 20.4228 144.448 20.4228 145.196 20.4228H145.676V21.1205C144.744 21.1205 143.806 21.0647 142.846 21.0647C141.886 21.0647 140.926 21.0926 139.966 21.1205V20.4228H140.446C141.194 20.4228 141.73 20.4228 141.73 19.541V12.4752H141.735Z" fill="#4F4F4F"/>
<path d="M99.7477 20.0768C98.9998 20.7745 98.1737 21.5168 97.1077 21.5168C96.0138 21.5168 95.5059 20.501 95.4501 19.541C94.1943 20.6907 92.9944 21.5168 91.3423 21.5168C89.6345 21.5168 88.4624 20.3447 88.4624 18.9271C88.5684 16.7895 89.6624 16.3932 95.4278 14.4174V12.6538C95.4278 11.158 94.5459 10.3599 92.8381 10.3599C91.666 10.3599 90.8623 11.0296 90.8121 12.2296C90.8121 12.9775 89.9582 13.3514 89.3163 13.3514C88.9145 13.3514 88.8363 13.0054 88.8363 12.8156C88.8363 11.4036 90.0363 10.7338 91.906 9.77385C92.8381 9.29386 93.2957 8.91992 94.306 8.91992C95.5059 8.91992 97.5598 9.69571 97.5598 11.1636V18.5531C97.5598 19.647 97.9338 20.0768 98.5198 20.0768C98.8658 20.0768 99.2677 19.9149 99.5077 19.6247L99.7477 20.0768ZM95.4222 15.1932C94.0604 15.729 90.5944 16.343 90.5944 18.341C90.5944 19.3847 91.4484 20.261 92.4865 20.261C93.7367 20.261 94.5404 19.4908 95.4222 18.715V15.1932Z" fill="#4F4F4F"/>
<path d="M99.8425 20.4227H100.35C101.098 20.4227 101.634 20.4227 101.634 19.5409V4.68366C101.634 2.94789 101.232 2.89766 100.216 2.60186V2.1721C101.282 1.82606 102.404 1.34608 102.968 1.02237C103.258 0.860512 103.476 0.726562 103.554 0.726562C103.716 0.726562 103.766 0.888418 103.766 1.1005V19.5409C103.766 20.4227 104.352 20.4227 105.1 20.4227H105.552V21.1204C104.648 21.1204 103.71 21.0646 102.75 21.0646C101.79 21.0646 100.83 21.0925 99.8425 21.1204V20.4227Z" fill="#4F4F4F"/>
<path d="M116.748 18.8212C116.748 19.9151 117.016 19.9151 118.054 19.9151H118.512V20.4509H118.484C118.082 20.529 117.362 20.7411 116.586 20.9811C115.76 21.249 115.063 21.5169 114.906 21.5169C114.638 21.5169 114.611 21.1151 114.611 20.7969V19.5691H114.555C113.595 20.5569 112.099 21.5169 110.475 21.5169C107.271 21.5169 105.513 18.7151 105.513 15.7292C105.513 12.1237 108.421 8.92567 112.105 8.92567C112.959 8.92567 113.84 9.08752 114.616 9.40565V4.68393C114.616 2.94817 114.214 2.89794 113.199 2.60213V2.17238C114.265 1.82634 115.386 1.34636 115.95 1.02265C116.24 0.866371 116.452 0.732422 116.536 0.732422C116.698 0.732422 116.748 0.894278 116.748 1.10636V18.8212ZM114.611 12.2353C114.611 10.2596 112.959 9.7796 111.781 9.7796C109.883 9.7796 107.807 11.1916 107.807 14.7971C107.807 17.7328 109.593 19.9207 112.021 19.9207C112.825 19.9207 114.611 19.3347 114.611 18.3468V12.2353Z" fill="#4F4F4F"/>
<path d="M119.762 17.409C120.108 19.1671 121.174 20.6628 123.122 20.6628C124.696 20.6628 125.282 19.7029 125.282 18.7652C125.282 15.6174 119.466 16.6276 119.466 12.3356C119.466 10.8399 120.666 8.91992 123.602 8.91992C124.456 8.91992 125.606 9.15991 126.644 9.69571L126.833 12.4194H126.219C125.952 10.7394 125.019 9.77943 123.312 9.77943C122.246 9.77943 121.23 10.3934 121.23 11.5431C121.23 14.663 127.419 13.703 127.419 17.8945C127.419 19.6582 126.007 21.5223 122.826 21.5223C121.76 21.5223 120.504 21.1484 119.572 20.6126L119.282 17.5429L119.762 17.409Z" fill="#4F4F4F"/>
<path d="M134.246 8.92578C137.957 8.92578 140.731 11.3815 140.731 15.1712C140.731 18.6148 138.007 21.5226 134.597 21.5226C131.047 21.5226 128.14 19.0669 128.14 15.2772C128.134 11.8336 130.668 8.92578 134.246 8.92578ZM134.564 20.825C137.231 20.825 138.275 17.733 138.275 15.4335C138.275 13.2457 137.098 9.61785 134.273 9.61785C131.634 9.61785 130.59 12.7154 130.59 15.0093C130.59 17.1972 131.762 20.825 134.564 20.825Z" fill="#4F4F4F"/>
</svg>
