<svg width="140" height="38" viewBox="0 0 140 38" fill="none" xmlns="http://www.w3.org/2000/svg">
<g clip-path="url(#clip0)">
<path d="M21.8206 37.9141L25.0671 27.4974H13.0102V24.3704H26.0134L29.1183 14.3253H13.0102V11.3702H30.0163L33.2973 0.726562H0V37.9141H21.8206ZM128.582 24.1021L121.54 0.726562H103.543V37.9141H114.781V14.6039H114.86L121.82 37.9141H140.004V0.726562H128.668V24.1021H128.582ZM92.204 28.3747C96.3588 28.3747 99.6226 25.0859 99.6226 20.9062C99.6226 16.7299 96.5419 13.0318 92.3905 13.0318C88.2322 13.0318 84.9512 16.7265 84.9512 20.9062C84.9512 25.0894 88.0492 28.3747 92.204 28.3747ZM86.2325 0.726562H51.6193V11.3702H62.5434V37.9141H80.1263C79.0315 37.2777 71.5646 31.5189 71.5646 20.7204C71.568 11.7831 77.1665 2.97983 86.2325 0.726562ZM39.1445 28.0547L36.0741 37.9141H54.0853L51.2049 28.0547H39.1445ZM45.2852 7.85446L48.7286 19.7022H41.6968L45.2852 7.85446Z" fill="#828282"/>
</g>
<defs>
<clipPath id="clip0">
<rect width="140" height="37.1875" fill="white" transform="translate(0 0.726562)"/>
</clipPath>
</defs>
</svg>
