<svg width="203" height="40" viewBox="0 0 203 40" fill="none" xmlns="http://www.w3.org/2000/svg">
<path d="M191.882 5.41319C197.681 8.00937 198.153 10.909 198.153 13.9435C198.153 24.2608 161.267 31.2402 112.782 32.2517V1.8055C112.782 1.23232 112.31 0.760281 111.737 0.760281C111.164 0.760281 110.692 1.23232 110.692 1.8055V32.2854C107.455 32.3528 104.151 32.3528 100.813 32.3528C96.5983 32.3528 92.4511 32.3191 88.3714 32.2179V1.77178C88.3714 1.1986 87.8994 0.726562 87.3262 0.726562C86.753 0.726562 86.281 1.1986 86.281 1.77178V32.1505C39.6508 31.0041 4.14715 24.0585 4.14715 13.9435C4.14715 10.909 4.58547 8.00937 10.4185 5.41319C2.023 8.95344 0 11.6171 0 15.9665C0 29.2172 45.1804 39.6019 100.408 39.703C100.509 39.703 100.644 39.703 100.779 39.703C100.88 39.703 101.015 39.703 101.116 39.703C157.12 39.6019 202.3 29.2172 202.3 15.9665C202.3 11.6171 200.277 8.91972 191.882 5.41319Z" fill="#343A40"/>
<path d="M24.917 18.6976V4.63773L23.6021 3.28906H33.6159V6.32356L31.8289 4.53658H26.7714V10.3696H30.5477L31.8964 9.05462V12.9658L30.5477 11.6171H26.7377V18.6639L28.0864 20.0125H23.6021L24.917 18.6976Z" fill="#343A40"/>
<path d="M39.5498 18.6976V4.63773L38.2349 3.28906H42.7192L41.3705 4.63773V18.6639H45.3828L47.2035 16.8432V20.0125H38.2349L39.5498 18.6976Z" fill="#343A40"/>
<path d="M51.688 20.0131L53.0029 18.6644V4.60453L51.688 3.25586H61.7018V6.29036L59.9149 4.50338H54.8574V10.4375H58.6336L59.9486 9.12257V13.0337L58.6336 11.685H54.8574V18.6981H59.9149L61.7018 16.8774V19.9456L51.688 20.0131Z" fill="#343A40"/>
<path d="M66.2201 3.28906H69.8615V4.5703L72.9634 9.93125L76.3688 4.60401L75.0538 3.28906H79.3021L77.9535 4.63773L73.7389 11.2799L78.0883 18.6639L79.4033 20.0125H75.7619V18.7313L72.5251 13.1343L69.0186 18.6976L70.3335 20.0125H66.0852L67.4339 18.6639L71.7496 11.8531L67.535 4.67145L66.2201 3.28906Z" fill="#343A40"/>
<path d="M95.5536 18.2256L97.3743 20.0125H91.811L93.598 18.2256V5.07605L91.811 3.28906H96.4639L103.41 13.2692V5.07605L101.623 3.28906H107.152L105.365 5.07605V21.9681L95.5536 7.8071V18.2256Z" fill="#343A40"/>
<path d="M129.236 11.0773H133.721L132.406 12.426V19.0344C131.495 19.6413 130.383 20.2482 127.82 20.2482C123.269 20.2482 120.065 16.0674 120.065 11.6505C120.065 7.13245 123.269 3.05273 127.82 3.05273C129.708 3.05273 130.72 3.49105 131.698 4.03052V6.93015L129.843 5.10944C129.27 4.50254 128.663 4.33396 127.787 4.33396C124.55 4.33396 122.223 8.0428 122.223 11.6842C122.223 15.2919 124.078 19.0344 127.787 19.0344C129.338 19.0344 130.147 18.259 130.551 17.8544V12.4597L129.236 11.0773Z" fill="#343A40"/>
<path d="M141.003 20.0125H136.991L138.34 18.6639L143.633 3.28906H144.476L149.702 18.6639L151.051 20.0125H146.33L147.645 18.6976L146.465 15.1573H140.936L139.722 18.6976L141.003 20.0125ZM141.34 13.9435H146.027L143.734 7.03162L141.34 13.9435Z" fill="#343A40"/>
<path d="M160.93 20.0125H156.446L157.761 18.6639V4.53658H154.625L152.804 6.32356V3.28906H164.571V6.32356L162.784 4.53658H159.615V18.6976L160.93 20.0125Z" fill="#343A40"/>
<path d="M168.685 20.0131L170 18.6644V4.60453L168.685 3.25586H178.699V6.29036L176.912 4.50338H171.854V10.4375H175.631L176.979 9.12257V13.0337L175.631 11.685H171.854V18.6981H176.912L178.699 16.8774V19.9456L168.685 20.0131Z" fill="#343A40"/>
</svg>
