<svg width="139" height="88" viewBox="0 0 139 88" fill="none" xmlns="http://www.w3.org/2000/svg">
<path d="M69.5081 3.23242C33.7111 3.23242 30.6855 5.80198 30.6855 27.7384C30.6855 32.7506 31.4977 49.9285 34.4436 56.9551C38.4246 66.4244 48.6477 66.1548 69.5081 66.1548C90.3525 66.1548 100.592 66.4085 104.573 56.9551C107.519 49.9285 108.331 32.7506 108.331 27.7384C108.315 5.81784 105.305 3.23242 69.5081 3.23242Z" stroke="#7F7F7F" stroke-width="0.1095" stroke-miterlimit="22.9256"/>
<mask id="path-2-inside-1" fill="white">
<path fill-rule="evenodd" clip-rule="evenodd" d="M111.531 20.6644C111.452 19.1893 111.308 17.6824 111.053 16.2073C110.815 13.8916 109.557 7.00769 103.235 4.35883C103.203 4.34297 103.171 4.32711 103.139 4.32711C103.123 4.31125 103.107 4.31125 103.091 4.29539C100.4 3.05819 97.343 2.51891 94.4289 2.13823C89.4447 1.47205 84.4923 1.1231 79.5241 0.932761C78.5686 0.901038 77.661 0.869315 76.7852 0.837593C76.6896 0.837593 76.5941 0.837593 76.4985 0.821731H76.4348C73.1227 0.726562 70.5589 0.726562 69.5079 0.726562C68.457 0.726562 65.8932 0.726562 62.581 0.821731H62.5173C62.4218 0.821731 62.3262 0.821731 62.2466 0.837593C61.3708 0.869315 60.4472 0.901038 59.4918 0.932761C54.5235 1.1231 49.5712 1.47205 44.587 2.13823C41.6888 2.51891 38.6314 3.05819 35.9403 4.29539C35.9244 4.31125 35.8925 4.31125 35.8766 4.32711C35.8447 4.34297 35.8129 4.34297 35.797 4.35883C29.5229 6.97597 28.2331 13.7964 27.9783 16.1597C27.9783 16.2232 27.9624 16.3025 27.9465 16.3501C27.7076 17.7935 27.5961 19.2369 27.5006 20.6644C27.2936 24.2491 27.3254 27.802 27.4847 31.3709C27.4847 31.5295 27.5006 31.704 27.5006 31.8784C27.5006 32.1481 27.5165 32.4019 27.5165 32.6715C27.5961 34.7969 27.7395 37.0334 27.9305 39.3016C28.2968 44.2504 28.9019 49.215 30.1121 54.0051C30.4943 55.5278 30.972 57.0664 31.6408 58.5257C31.6886 58.6367 31.7364 58.7477 31.7841 58.8587C31.816 58.9222 31.8478 59.0015 31.8797 59.0649C31.8797 59.0808 31.8956 59.0808 31.8956 59.0967C32.3892 60.2704 32.9307 61.238 33.5198 61.9359C34.4912 63.0938 35.7014 64.0454 37.055 64.8226C37.0709 64.8226 37.0709 64.8385 37.0868 64.8385C37.1027 64.8544 37.1186 64.8544 37.1346 64.8702C37.3575 64.9971 37.5964 65.124 37.8193 65.235C37.9785 65.3143 38.1537 65.4095 38.3129 65.4888C38.4403 65.5681 38.5837 65.6316 38.711 65.695C43.5041 67.868 49.0298 68.0584 54.205 68.3756C59.2848 68.6928 64.3964 68.8832 69.5079 68.899C74.6195 68.8832 79.7311 68.6928 84.8108 68.3756C89.9702 68.0584 95.5117 67.868 100.289 65.695C100.432 65.6316 100.576 65.5681 100.703 65.4888C100.846 65.4254 100.99 65.3619 101.117 65.2826C101.133 65.2826 101.133 65.2668 101.149 65.2668C102.869 64.4102 104.334 63.3317 105.512 61.9359C106.133 61.2062 106.69 60.1594 107.216 58.9063C107.232 58.8746 107.248 58.8429 107.264 58.8112C107.264 58.7953 107.28 58.7953 107.28 58.7794C107.311 58.716 107.343 58.6525 107.359 58.605C108.028 57.1298 108.506 55.5596 108.904 54.0051C110.225 48.7709 110.846 43.3463 111.197 37.9692C111.197 37.9375 111.197 37.9216 111.197 37.9058C111.34 36.1293 111.436 34.3687 111.499 32.6715C111.499 32.5446 111.499 32.4177 111.515 32.2908C111.531 31.9895 111.547 31.6881 111.547 31.4026C111.706 27.8179 111.738 24.2491 111.531 20.6644ZM101.913 58.256C101.818 58.4146 101.706 58.5732 101.595 58.716C101.244 59.1918 100.878 59.6042 100.56 59.9532C100.544 59.969 100.544 59.969 100.544 59.969C99.636 60.7463 97.0086 62.3483 94.7792 63.1572C94.7314 63.1731 94.6677 63.1889 94.62 63.2048C93.6805 63.4427 92.8524 63.5696 92.3428 63.6013C92.311 63.6013 92.2951 63.6172 92.2632 63.6013C92.2473 63.6172 92.2473 63.6172 92.2314 63.6013C91.6263 63.522 91.26 63.1889 91.2122 62.5069C91.2441 62.2372 91.2759 61.9041 91.3078 61.4759C91.3237 61.3648 91.3237 61.2697 91.3396 61.1428C91.3715 60.889 91.4033 60.6194 91.4352 60.2863C91.4511 60.0959 91.483 59.9056 91.4989 59.6994C92.311 53.339 92.9002 46.9468 93.4098 40.5546C93.4575 40.0947 93.5053 39.5236 93.5849 38.7464C94.2378 32.1481 94.6359 26.5014 94.8907 21.8699C95.0181 19.6651 95.0977 17.6983 95.1614 15.9535C95.1614 15.8901 95.1614 15.8267 95.1614 15.7791C95.2092 14.4943 95.241 13.3523 95.2569 12.3213C95.2569 12.2578 95.2569 12.1944 95.2569 12.1468C95.3206 9.0221 95.2729 7.21389 95.2729 6.81736C95.4162 6.57943 95.6391 6.42082 96.0054 6.40496C96.0213 6.40496 96.0531 6.42082 96.0691 6.42082C96.1168 6.43668 96.1487 6.43668 96.1964 6.45254C96.2442 6.4684 96.2761 6.48427 96.3238 6.48427C96.7538 6.62702 97.1996 6.75391 97.6455 6.8808C97.757 6.91252 97.8844 6.96011 97.9958 6.99183C98.2506 7.07114 98.4895 7.15045 98.7443 7.24562C99.1264 7.38837 99.5086 7.53112 99.8749 7.7056C100.098 7.7849 100.305 7.89593 100.512 8.00696C100.671 8.08627 100.83 8.16558 100.99 8.27661C101.165 8.35592 101.324 8.46695 101.483 8.57798C101.579 8.62556 101.658 8.68901 101.738 8.75245C102.025 8.94279 102.279 9.14899 102.486 9.37105C102.502 9.38691 102.502 9.38691 102.518 9.40277C102.614 9.49794 102.709 9.59311 102.789 9.68828C102.948 9.89448 103.139 10.1165 103.299 10.3069C103.314 10.3227 103.314 10.3227 103.33 10.3386C103.33 10.3386 103.346 10.3545 103.346 10.3703C103.362 10.402 103.394 10.4338 103.41 10.4655C103.426 10.4813 103.426 10.4972 103.442 10.5131C103.521 10.64 103.617 10.7669 103.697 10.8937C103.776 10.9889 103.84 11.0999 103.888 11.211C104.079 11.4965 104.238 11.7978 104.365 12.0992C104.429 12.242 104.509 12.3847 104.572 12.5433C104.652 12.702 104.716 12.8606 104.764 13.0192C104.907 13.3205 105.018 13.6378 105.098 13.9709C105.209 14.2881 105.305 14.6212 105.385 14.9543C105.48 15.2874 105.544 15.6205 105.607 15.9535C105.687 16.3025 105.735 16.6673 105.783 17.0321C105.83 17.2383 105.846 17.4604 105.878 17.6824V17.6983C105.894 17.7935 105.91 17.9045 105.91 18.0155C106.229 20.8071 106.149 23.6781 106.181 26.2159C106.26 32.7667 105.942 39.4285 105.05 45.9317C105.002 46.2806 104.955 46.6454 104.907 47.0261C104.891 47.0896 104.891 47.153 104.875 47.2323C104.764 47.8192 104.668 48.3585 104.572 48.8185C104.461 49.4529 103.824 52.8631 103.744 53.2121C103.458 54.3858 102.964 55.972 102.709 56.7016C102.709 56.7174 102.693 56.7174 102.693 56.7333C102.646 56.9078 102.55 57.0664 102.47 57.2409C102.423 57.3519 102.359 57.4788 102.295 57.5898C102.2 57.8277 102.056 58.0498 101.913 58.256ZM38.504 60.0166C38.09 59.5566 37.5964 59.0015 37.1346 58.3195C36.9913 58.0815 36.8479 57.8436 36.7206 57.5898C36.6569 57.4788 36.5772 57.3678 36.5295 57.2409C36.4976 57.1933 36.4817 57.1457 36.4658 57.0823C36.4498 57.0347 36.418 57.003 36.4021 56.9554C36.3862 56.9395 36.3862 56.9236 36.3862 56.9078C36.1632 56.3368 35.59 54.5127 35.2715 53.2121C35.1919 52.8631 34.5549 49.4529 34.4434 48.8185C34.332 48.3426 34.2364 47.7557 34.109 47.1213C34.0613 46.7247 34.0135 46.3123 33.9498 45.9317C33.0421 39.4285 32.7396 32.7667 32.8192 26.2159C32.8351 25.2484 32.8192 24.2332 32.8351 23.2022C32.8351 22.5202 32.851 21.8381 32.867 21.1561C32.8988 20.4265 32.9307 19.7127 32.9944 18.9831C33.0103 18.6659 33.0421 18.3486 33.074 18.0314C33.1536 17.3018 33.2651 16.588 33.4084 15.8742C33.488 15.4143 33.5995 14.9543 33.7428 14.5102C33.7428 14.4943 33.7428 14.4943 33.7428 14.4784C33.7746 14.3991 33.7905 14.304 33.8224 14.2246C33.8702 14.0185 33.9339 13.8123 34.0135 13.6219V13.6061C34.0931 13.3681 34.1886 13.1302 34.2683 12.9081C34.523 12.2737 34.8256 11.671 35.1759 11.0999C35.2237 11.0048 35.2715 10.9096 35.3511 10.8303C35.3511 10.8144 35.367 10.7827 35.3829 10.7669C35.4785 10.6082 35.59 10.4496 35.7014 10.3069C35.7173 10.291 35.7173 10.2752 35.7333 10.2593L35.7492 10.2434C35.781 10.1958 35.8129 10.1641 35.8447 10.1165C35.9084 10.0372 35.9881 9.94206 36.0517 9.86275C36.0995 9.81517 36.1314 9.76758 36.1632 9.72C36.2588 9.60897 36.3702 9.48208 36.4817 9.38691C36.4976 9.37105 36.4976 9.37105 36.5135 9.35519C36.7206 9.13313 36.9753 8.92693 37.262 8.73659C37.3416 8.67314 37.4212 8.6097 37.5167 8.56211C37.7238 8.41936 37.9467 8.29247 38.1696 8.16558C38.6155 7.92766 39.0773 7.7056 39.5391 7.4994C39.7779 7.40423 40.0168 7.30906 40.2557 7.22975C40.5104 7.13458 40.7493 7.05528 41.0041 6.97597C41.4022 6.83322 41.8003 6.72219 42.2143 6.5953C42.3099 6.57943 42.4213 6.54771 42.5169 6.51599C42.6602 6.48427 42.7876 6.43668 42.9309 6.40496C42.9468 6.40496 42.9787 6.3891 42.9946 6.3891C43.3449 6.40496 43.5838 6.56357 43.7271 6.80149C43.7112 7.26148 43.6793 9.43449 43.7589 13.2095C43.7749 13.6219 43.7908 14.066 43.8067 14.526C43.8386 15.7315 43.8863 17.0797 43.95 18.5548C43.9659 18.8879 43.9819 19.2527 43.9978 19.6017C44.0296 20.3313 44.0615 21.0768 44.1093 21.854C44.1411 22.425 44.173 23.0277 44.2048 23.6305C44.3481 26.1366 44.5392 28.8965 44.794 31.9102C44.8418 32.5763 44.9055 33.2584 44.9691 33.9563C44.9851 34.1466 45.001 34.337 45.0169 34.5432C45.1284 35.8914 45.2558 37.2872 45.3991 38.7306C45.415 38.8733 45.4309 39.0161 45.4469 39.1588C45.4787 39.5554 45.5106 39.9043 45.5424 40.2057C45.5743 40.6022 45.6061 40.9195 45.638 41.1732C45.6539 41.2843 45.6698 41.4112 45.6698 41.5222C45.6857 41.6649 45.7017 41.7918 45.7017 41.9187C45.7176 41.998 45.7335 42.0773 45.7335 42.1566C45.7335 42.1725 45.7335 42.1725 45.7335 42.1725C45.7335 42.1884 45.7335 42.1884 45.7335 42.2042C45.7494 42.3628 45.7653 42.4897 45.7813 42.6483C45.7972 42.7118 45.7972 42.7594 45.7972 42.8228C45.8131 42.8704 45.8131 42.9021 45.8131 42.9497V43.0132C45.829 43.0607 45.829 43.1083 45.845 43.1876C45.845 43.1876 45.845 43.2035 45.845 43.2352C45.845 43.2669 45.845 43.3145 45.8609 43.378C45.8609 43.4256 45.8609 43.489 45.8768 43.5525C45.9087 43.9331 45.9564 44.3138 45.9883 44.6786C46.0201 45.0117 46.052 45.3448 46.0838 45.6779C46.0997 45.8206 46.1157 45.9793 46.1316 46.122C46.1634 46.4868 46.1953 46.8358 46.2431 47.1847C46.2908 47.5654 46.3227 47.9778 46.3705 48.4219C46.4501 49.4212 46.5456 50.3729 46.6412 51.2453C46.6412 51.2611 46.6412 51.2928 46.6571 51.3246C47.0393 55.163 47.31 57.796 47.5011 59.5566C47.5011 59.636 47.5011 59.6994 47.517 59.7628C47.5648 60.3021 47.6125 60.7463 47.6603 61.1269C47.6603 61.1904 47.6762 61.238 47.6762 61.3014C47.6762 61.3648 47.6921 61.4283 47.6921 61.4759C47.7081 61.5869 47.724 61.6979 47.724 61.7931C47.7399 61.8566 47.7399 61.92 47.7399 61.9676C47.7558 61.9993 47.7558 62.031 47.7558 62.0628C47.7718 62.1738 47.7718 62.269 47.7877 62.3641V62.4117C47.7877 63.1731 47.3577 63.5061 46.6889 63.5855C46.1634 63.5537 45.2876 63.411 44.2685 63.1413C42.0869 62.38 39.4913 60.8256 38.504 60.0166ZM51.6253 5.37396C51.6572 5.3581 51.6891 5.3581 51.7368 5.3581C51.7846 5.32638 51.8642 5.32638 51.9279 5.32638C52.0075 5.31052 52.0871 5.31052 52.1668 5.29466C52.5489 5.24707 53.0426 5.19949 53.6955 5.12018C54.4598 5.05674 55.3834 4.97743 56.4662 4.89812C57.0076 4.8664 57.5968 4.85054 58.2656 4.81881C64.7626 4.61262 69.2691 4.56503 69.5079 4.56503C69.7468 4.56503 74.2533 4.61262 80.7502 4.81881C81.4031 4.83468 81.9764 4.8664 82.5178 4.89812C83.6006 4.97743 84.5401 5.04087 85.3045 5.12018C85.4637 5.13604 85.6229 5.1519 85.7663 5.16777C85.9096 5.18363 86.0529 5.19949 86.1803 5.21535C86.4351 5.24707 86.658 5.2788 86.8491 5.29466C86.9287 5.29466 87.0083 5.31052 87.072 5.32638C87.2472 5.34224 87.3905 5.37396 87.502 5.38983C87.5338 5.38983 87.5497 5.40569 87.5816 5.40569C87.7727 5.48499 87.8523 5.61189 87.8523 5.80222C87.6612 6.53185 87.3268 7.86421 86.9287 9.46622C85.4796 14.9543 83.9032 21.2989 82.4382 26.5807C81.419 30.1495 80.0336 34.4956 78.4253 37.0017C77.2151 38.6671 75.6068 39.9202 73.3615 40.3802C72.3105 40.5229 71.0526 40.5546 69.5079 40.5546C67.9633 40.5546 66.7212 40.5229 65.6543 40.3802C63.425 39.9202 61.8007 38.683 60.5905 37.0175C58.9981 34.559 57.6287 30.3081 56.6255 26.771C55.1286 21.3464 53.5044 14.7798 52.0075 9.14899C51.6413 7.68973 51.3228 6.48427 51.1636 5.80222C51.1636 5.59602 51.2432 5.46913 51.4343 5.38983C51.4661 5.37396 51.498 5.37396 51.5298 5.3581C51.5617 5.38983 51.5935 5.37396 51.6253 5.37396ZM81.8012 63.8392C81.8012 63.8551 81.8171 63.9027 81.833 63.9503C81.849 64.0613 81.8649 64.1565 81.833 64.2199V64.2358C81.8171 64.2834 81.7534 64.3151 81.7216 64.3468H69.5239H57.3261C57.2784 64.3151 57.2306 64.2834 57.2147 64.2358C57.2147 64.2199 57.1987 64.204 57.1987 64.1882C57.1828 64.1406 57.1987 64.0772 57.1987 64.0137C57.2147 63.9344 57.2306 63.8551 57.2306 63.8234C57.3102 63.522 57.3898 63.2206 57.4854 62.9034C58.1382 60.7621 59.6351 55.9561 59.6669 55.8451C59.9058 55.163 60.1606 54.4493 60.495 53.6403C61.0682 52.1969 62.0715 51.1501 62.8836 50.6267C63.3454 50.3253 63.8549 50.1032 64.4123 49.9288C64.6671 49.8812 64.9378 49.8177 65.2403 49.7543C65.7817 49.6432 66.3868 49.5639 66.976 49.5005C67.7404 49.4529 68.5684 49.4212 69.5398 49.4212C70.4952 49.4212 71.3392 49.437 72.0876 49.5005C72.6927 49.5798 73.2819 49.6591 73.8233 49.7543C74.1418 49.8177 74.4125 49.8653 74.6832 49.9288C75.2246 50.1032 75.7342 50.3094 76.1801 50.6108C76.9922 51.1342 77.9795 52.1811 78.5686 53.6245C78.8394 54.3065 79.0782 54.9251 79.2852 55.512C79.3171 55.6072 79.3489 55.7023 79.3808 55.8133C79.3808 55.8133 81.0687 61.2221 81.6738 63.1889C81.6897 63.4268 81.7375 63.633 81.8012 63.8392Z"/>
</mask>
<path fill-rule="evenodd" clip-rule="evenodd" d="M111.531 20.6644C111.452 19.1893 111.308 17.6824 111.053 16.2073C110.815 13.8916 109.557 7.00769 103.235 4.35883C103.203 4.34297 103.171 4.32711 103.139 4.32711C103.123 4.31125 103.107 4.31125 103.091 4.29539C100.4 3.05819 97.343 2.51891 94.4289 2.13823C89.4447 1.47205 84.4923 1.1231 79.5241 0.932761C78.5686 0.901038 77.661 0.869315 76.7852 0.837593C76.6896 0.837593 76.5941 0.837593 76.4985 0.821731H76.4348C73.1227 0.726562 70.5589 0.726562 69.5079 0.726562C68.457 0.726562 65.8932 0.726562 62.581 0.821731H62.5173C62.4218 0.821731 62.3262 0.821731 62.2466 0.837593C61.3708 0.869315 60.4472 0.901038 59.4918 0.932761C54.5235 1.1231 49.5712 1.47205 44.587 2.13823C41.6888 2.51891 38.6314 3.05819 35.9403 4.29539C35.9244 4.31125 35.8925 4.31125 35.8766 4.32711C35.8447 4.34297 35.8129 4.34297 35.797 4.35883C29.5229 6.97597 28.2331 13.7964 27.9783 16.1597C27.9783 16.2232 27.9624 16.3025 27.9465 16.3501C27.7076 17.7935 27.5961 19.2369 27.5006 20.6644C27.2936 24.2491 27.3254 27.802 27.4847 31.3709C27.4847 31.5295 27.5006 31.704 27.5006 31.8784C27.5006 32.1481 27.5165 32.4019 27.5165 32.6715C27.5961 34.7969 27.7395 37.0334 27.9305 39.3016C28.2968 44.2504 28.9019 49.215 30.1121 54.0051C30.4943 55.5278 30.972 57.0664 31.6408 58.5257C31.6886 58.6367 31.7364 58.7477 31.7841 58.8587C31.816 58.9222 31.8478 59.0015 31.8797 59.0649C31.8797 59.0808 31.8956 59.0808 31.8956 59.0967C32.3892 60.2704 32.9307 61.238 33.5198 61.9359C34.4912 63.0938 35.7014 64.0454 37.055 64.8226C37.0709 64.8226 37.0709 64.8385 37.0868 64.8385C37.1027 64.8544 37.1186 64.8544 37.1346 64.8702C37.3575 64.9971 37.5964 65.124 37.8193 65.235C37.9785 65.3143 38.1537 65.4095 38.3129 65.4888C38.4403 65.5681 38.5837 65.6316 38.711 65.695C43.5041 67.868 49.0298 68.0584 54.205 68.3756C59.2848 68.6928 64.3964 68.8832 69.5079 68.899C74.6195 68.8832 79.7311 68.6928 84.8108 68.3756C89.9702 68.0584 95.5117 67.868 100.289 65.695C100.432 65.6316 100.576 65.5681 100.703 65.4888C100.846 65.4254 100.99 65.3619 101.117 65.2826C101.133 65.2826 101.133 65.2668 101.149 65.2668C102.869 64.4102 104.334 63.3317 105.512 61.9359C106.133 61.2062 106.69 60.1594 107.216 58.9063C107.232 58.8746 107.248 58.8429 107.264 58.8112C107.264 58.7953 107.28 58.7953 107.28 58.7794C107.311 58.716 107.343 58.6525 107.359 58.605C108.028 57.1298 108.506 55.5596 108.904 54.0051C110.225 48.7709 110.846 43.3463 111.197 37.9692C111.197 37.9375 111.197 37.9216 111.197 37.9058C111.34 36.1293 111.436 34.3687 111.499 32.6715C111.499 32.5446 111.499 32.4177 111.515 32.2908C111.531 31.9895 111.547 31.6881 111.547 31.4026C111.706 27.8179 111.738 24.2491 111.531 20.6644ZM101.913 58.256C101.818 58.4146 101.706 58.5732 101.595 58.716C101.244 59.1918 100.878 59.6042 100.56 59.9532C100.544 59.969 100.544 59.969 100.544 59.969C99.636 60.7463 97.0086 62.3483 94.7792 63.1572C94.7314 63.1731 94.6677 63.1889 94.62 63.2048C93.6805 63.4427 92.8524 63.5696 92.3428 63.6013C92.311 63.6013 92.2951 63.6172 92.2632 63.6013C92.2473 63.6172 92.2473 63.6172 92.2314 63.6013C91.6263 63.522 91.26 63.1889 91.2122 62.5069C91.2441 62.2372 91.2759 61.9041 91.3078 61.4759C91.3237 61.3648 91.3237 61.2697 91.3396 61.1428C91.3715 60.889 91.4033 60.6194 91.4352 60.2863C91.4511 60.0959 91.483 59.9056 91.4989 59.6994C92.311 53.339 92.9002 46.9468 93.4098 40.5546C93.4575 40.0947 93.5053 39.5236 93.5849 38.7464C94.2378 32.1481 94.6359 26.5014 94.8907 21.8699C95.0181 19.6651 95.0977 17.6983 95.1614 15.9535C95.1614 15.8901 95.1614 15.8267 95.1614 15.7791C95.2092 14.4943 95.241 13.3523 95.2569 12.3213C95.2569 12.2578 95.2569 12.1944 95.2569 12.1468C95.3206 9.0221 95.2729 7.21389 95.2729 6.81736C95.4162 6.57943 95.6391 6.42082 96.0054 6.40496C96.0213 6.40496 96.0531 6.42082 96.0691 6.42082C96.1168 6.43668 96.1487 6.43668 96.1964 6.45254C96.2442 6.4684 96.2761 6.48427 96.3238 6.48427C96.7538 6.62702 97.1996 6.75391 97.6455 6.8808C97.757 6.91252 97.8844 6.96011 97.9958 6.99183C98.2506 7.07114 98.4895 7.15045 98.7443 7.24562C99.1264 7.38837 99.5086 7.53112 99.8749 7.7056C100.098 7.7849 100.305 7.89593 100.512 8.00696C100.671 8.08627 100.83 8.16558 100.99 8.27661C101.165 8.35592 101.324 8.46695 101.483 8.57798C101.579 8.62556 101.658 8.68901 101.738 8.75245C102.025 8.94279 102.279 9.14899 102.486 9.37105C102.502 9.38691 102.502 9.38691 102.518 9.40277C102.614 9.49794 102.709 9.59311 102.789 9.68828C102.948 9.89448 103.139 10.1165 103.299 10.3069C103.314 10.3227 103.314 10.3227 103.33 10.3386C103.33 10.3386 103.346 10.3545 103.346 10.3703C103.362 10.402 103.394 10.4338 103.41 10.4655C103.426 10.4813 103.426 10.4972 103.442 10.5131C103.521 10.64 103.617 10.7669 103.697 10.8937C103.776 10.9889 103.84 11.0999 103.888 11.211C104.079 11.4965 104.238 11.7978 104.365 12.0992C104.429 12.242 104.509 12.3847 104.572 12.5433C104.652 12.702 104.716 12.8606 104.764 13.0192C104.907 13.3205 105.018 13.6378 105.098 13.9709C105.209 14.2881 105.305 14.6212 105.385 14.9543C105.48 15.2874 105.544 15.6205 105.607 15.9535C105.687 16.3025 105.735 16.6673 105.783 17.0321C105.83 17.2383 105.846 17.4604 105.878 17.6824V17.6983C105.894 17.7935 105.91 17.9045 105.91 18.0155C106.229 20.8071 106.149 23.6781 106.181 26.2159C106.26 32.7667 105.942 39.4285 105.05 45.9317C105.002 46.2806 104.955 46.6454 104.907 47.0261C104.891 47.0896 104.891 47.153 104.875 47.2323C104.764 47.8192 104.668 48.3585 104.572 48.8185C104.461 49.4529 103.824 52.8631 103.744 53.2121C103.458 54.3858 102.964 55.972 102.709 56.7016C102.709 56.7174 102.693 56.7174 102.693 56.7333C102.646 56.9078 102.55 57.0664 102.47 57.2409C102.423 57.3519 102.359 57.4788 102.295 57.5898C102.2 57.8277 102.056 58.0498 101.913 58.256ZM38.504 60.0166C38.09 59.5566 37.5964 59.0015 37.1346 58.3195C36.9913 58.0815 36.8479 57.8436 36.7206 57.5898C36.6569 57.4788 36.5772 57.3678 36.5295 57.2409C36.4976 57.1933 36.4817 57.1457 36.4658 57.0823C36.4498 57.0347 36.418 57.003 36.4021 56.9554C36.3862 56.9395 36.3862 56.9236 36.3862 56.9078C36.1632 56.3368 35.59 54.5127 35.2715 53.2121C35.1919 52.8631 34.5549 49.4529 34.4434 48.8185C34.332 48.3426 34.2364 47.7557 34.109 47.1213C34.0613 46.7247 34.0135 46.3123 33.9498 45.9317C33.0421 39.4285 32.7396 32.7667 32.8192 26.2159C32.8351 25.2484 32.8192 24.2332 32.8351 23.2022C32.8351 22.5202 32.851 21.8381 32.867 21.1561C32.8988 20.4265 32.9307 19.7127 32.9944 18.9831C33.0103 18.6659 33.0421 18.3486 33.074 18.0314C33.1536 17.3018 33.2651 16.588 33.4084 15.8742C33.488 15.4143 33.5995 14.9543 33.7428 14.5102C33.7428 14.4943 33.7428 14.4943 33.7428 14.4784C33.7746 14.3991 33.7905 14.304 33.8224 14.2246C33.8702 14.0185 33.9339 13.8123 34.0135 13.6219V13.6061C34.0931 13.3681 34.1886 13.1302 34.2683 12.9081C34.523 12.2737 34.8256 11.671 35.1759 11.0999C35.2237 11.0048 35.2715 10.9096 35.3511 10.8303C35.3511 10.8144 35.367 10.7827 35.3829 10.7669C35.4785 10.6082 35.59 10.4496 35.7014 10.3069C35.7173 10.291 35.7173 10.2752 35.7333 10.2593L35.7492 10.2434C35.781 10.1958 35.8129 10.1641 35.8447 10.1165C35.9084 10.0372 35.9881 9.94206 36.0517 9.86275C36.0995 9.81517 36.1314 9.76758 36.1632 9.72C36.2588 9.60897 36.3702 9.48208 36.4817 9.38691C36.4976 9.37105 36.4976 9.37105 36.5135 9.35519C36.7206 9.13313 36.9753 8.92693 37.262 8.73659C37.3416 8.67314 37.4212 8.6097 37.5167 8.56211C37.7238 8.41936 37.9467 8.29247 38.1696 8.16558C38.6155 7.92766 39.0773 7.7056 39.5391 7.4994C39.7779 7.40423 40.0168 7.30906 40.2557 7.22975C40.5104 7.13458 40.7493 7.05528 41.0041 6.97597C41.4022 6.83322 41.8003 6.72219 42.2143 6.5953C42.3099 6.57943 42.4213 6.54771 42.5169 6.51599C42.6602 6.48427 42.7876 6.43668 42.9309 6.40496C42.9468 6.40496 42.9787 6.3891 42.9946 6.3891C43.3449 6.40496 43.5838 6.56357 43.7271 6.80149C43.7112 7.26148 43.6793 9.43449 43.7589 13.2095C43.7749 13.6219 43.7908 14.066 43.8067 14.526C43.8386 15.7315 43.8863 17.0797 43.95 18.5548C43.9659 18.8879 43.9819 19.2527 43.9978 19.6017C44.0296 20.3313 44.0615 21.0768 44.1093 21.854C44.1411 22.425 44.173 23.0277 44.2048 23.6305C44.3481 26.1366 44.5392 28.8965 44.794 31.9102C44.8418 32.5763 44.9055 33.2584 44.9691 33.9563C44.9851 34.1466 45.001 34.337 45.0169 34.5432C45.1284 35.8914 45.2558 37.2872 45.3991 38.7306C45.415 38.8733 45.4309 39.0161 45.4469 39.1588C45.4787 39.5554 45.5106 39.9043 45.5424 40.2057C45.5743 40.6022 45.6061 40.9195 45.638 41.1732C45.6539 41.2843 45.6698 41.4112 45.6698 41.5222C45.6857 41.6649 45.7017 41.7918 45.7017 41.9187C45.7176 41.998 45.7335 42.0773 45.7335 42.1566C45.7335 42.1725 45.7335 42.1725 45.7335 42.1725C45.7335 42.1884 45.7335 42.1884 45.7335 42.2042C45.7494 42.3628 45.7653 42.4897 45.7813 42.6483C45.7972 42.7118 45.7972 42.7594 45.7972 42.8228C45.8131 42.8704 45.8131 42.9021 45.8131 42.9497V43.0132C45.829 43.0607 45.829 43.1083 45.845 43.1876C45.845 43.1876 45.845 43.2035 45.845 43.2352C45.845 43.2669 45.845 43.3145 45.8609 43.378C45.8609 43.4256 45.8609 43.489 45.8768 43.5525C45.9087 43.9331 45.9564 44.3138 45.9883 44.6786C46.0201 45.0117 46.052 45.3448 46.0838 45.6779C46.0997 45.8206 46.1157 45.9793 46.1316 46.122C46.1634 46.4868 46.1953 46.8358 46.2431 47.1847C46.2908 47.5654 46.3227 47.9778 46.3705 48.4219C46.4501 49.4212 46.5456 50.3729 46.6412 51.2453C46.6412 51.2611 46.6412 51.2928 46.6571 51.3246C47.0393 55.163 47.31 57.796 47.5011 59.5566C47.5011 59.636 47.5011 59.6994 47.517 59.7628C47.5648 60.3021 47.6125 60.7463 47.6603 61.1269C47.6603 61.1904 47.6762 61.238 47.6762 61.3014C47.6762 61.3648 47.6921 61.4283 47.6921 61.4759C47.7081 61.5869 47.724 61.6979 47.724 61.7931C47.7399 61.8566 47.7399 61.92 47.7399 61.9676C47.7558 61.9993 47.7558 62.031 47.7558 62.0628C47.7718 62.1738 47.7718 62.269 47.7877 62.3641V62.4117C47.7877 63.1731 47.3577 63.5061 46.6889 63.5855C46.1634 63.5537 45.2876 63.411 44.2685 63.1413C42.0869 62.38 39.4913 60.8256 38.504 60.0166ZM51.6253 5.37396C51.6572 5.3581 51.6891 5.3581 51.7368 5.3581C51.7846 5.32638 51.8642 5.32638 51.9279 5.32638C52.0075 5.31052 52.0871 5.31052 52.1668 5.29466C52.5489 5.24707 53.0426 5.19949 53.6955 5.12018C54.4598 5.05674 55.3834 4.97743 56.4662 4.89812C57.0076 4.8664 57.5968 4.85054 58.2656 4.81881C64.7626 4.61262 69.2691 4.56503 69.5079 4.56503C69.7468 4.56503 74.2533 4.61262 80.7502 4.81881C81.4031 4.83468 81.9764 4.8664 82.5178 4.89812C83.6006 4.97743 84.5401 5.04087 85.3045 5.12018C85.4637 5.13604 85.6229 5.1519 85.7663 5.16777C85.9096 5.18363 86.0529 5.19949 86.1803 5.21535C86.4351 5.24707 86.658 5.2788 86.8491 5.29466C86.9287 5.29466 87.0083 5.31052 87.072 5.32638C87.2472 5.34224 87.3905 5.37396 87.502 5.38983C87.5338 5.38983 87.5497 5.40569 87.5816 5.40569C87.7727 5.48499 87.8523 5.61189 87.8523 5.80222C87.6612 6.53185 87.3268 7.86421 86.9287 9.46622C85.4796 14.9543 83.9032 21.2989 82.4382 26.5807C81.419 30.1495 80.0336 34.4956 78.4253 37.0017C77.2151 38.6671 75.6068 39.9202 73.3615 40.3802C72.3105 40.5229 71.0526 40.5546 69.5079 40.5546C67.9633 40.5546 66.7212 40.5229 65.6543 40.3802C63.425 39.9202 61.8007 38.683 60.5905 37.0175C58.9981 34.559 57.6287 30.3081 56.6255 26.771C55.1286 21.3464 53.5044 14.7798 52.0075 9.14899C51.6413 7.68973 51.3228 6.48427 51.1636 5.80222C51.1636 5.59602 51.2432 5.46913 51.4343 5.38983C51.4661 5.37396 51.498 5.37396 51.5298 5.3581C51.5617 5.38983 51.5935 5.37396 51.6253 5.37396ZM81.8012 63.8392C81.8012 63.8551 81.8171 63.9027 81.833 63.9503C81.849 64.0613 81.8649 64.1565 81.833 64.2199V64.2358C81.8171 64.2834 81.7534 64.3151 81.7216 64.3468H69.5239H57.3261C57.2784 64.3151 57.2306 64.2834 57.2147 64.2358C57.2147 64.2199 57.1987 64.204 57.1987 64.1882C57.1828 64.1406 57.1987 64.0772 57.1987 64.0137C57.2147 63.9344 57.2306 63.8551 57.2306 63.8234C57.3102 63.522 57.3898 63.2206 57.4854 62.9034C58.1382 60.7621 59.6351 55.9561 59.6669 55.8451C59.9058 55.163 60.1606 54.4493 60.495 53.6403C61.0682 52.1969 62.0715 51.1501 62.8836 50.6267C63.3454 50.3253 63.8549 50.1032 64.4123 49.9288C64.6671 49.8812 64.9378 49.8177 65.2403 49.7543C65.7817 49.6432 66.3868 49.5639 66.976 49.5005C67.7404 49.4529 68.5684 49.4212 69.5398 49.4212C70.4952 49.4212 71.3392 49.437 72.0876 49.5005C72.6927 49.5798 73.2819 49.6591 73.8233 49.7543C74.1418 49.8177 74.4125 49.8653 74.6832 49.9288C75.2246 50.1032 75.7342 50.3094 76.1801 50.6108C76.9922 51.1342 77.9795 52.1811 78.5686 53.6245C78.8394 54.3065 79.0782 54.9251 79.2852 55.512C79.3171 55.6072 79.3489 55.7023 79.3808 55.8133C79.3808 55.8133 81.0687 61.2221 81.6738 63.1889C81.6897 63.4268 81.7375 63.633 81.8012 63.8392Z" fill="#7F7F7F" stroke="#7F7F7F" stroke-width="2" mask="url(#path-2-inside-1)"/>
<path fill-rule="evenodd" clip-rule="evenodd" d="M25.5898 84.3167C25.5579 83.9043 25.5261 83.6663 25.5261 83.254V75.2598C25.5261 74.7839 25.3668 74.0226 26.3223 73.8798L28.6631 73.6419V71.7861H16.1946V73.6419C16.7201 73.6419 18.1851 73.8164 18.5992 73.975C18.838 74.0702 19.3317 74.2447 19.3317 75.2757C19.3317 76.1163 19.3317 78.1307 19.3317 78.1307H9.41104V75.1488C9.41104 74.7681 9.49066 74.1654 10.1913 73.9274C10.6213 73.7688 11.9748 73.7212 12.6118 73.6578V71.802H0V73.6578C0.907664 73.753 1.65609 73.753 2.51598 73.9433C3.24848 74.1178 3.20071 74.895 3.20071 75.3232V83.587C3.18479 84.3643 3.18479 84.1898 3.18479 84.1898C3.18479 84.9194 2.45229 85.1415 1.9268 85.1573L0 85.3001V87.1559H12.6118V85.3001C12.2137 85.3001 10.9716 85.1256 10.4302 85.0622C9.42697 84.9194 9.41104 84.3167 9.41104 83.7615V81.0334H19.3157V83.3808C19.3157 83.8884 19.5387 84.8401 18.4558 85.0146C17.5322 85.1732 16.5131 85.3001 16.1787 85.3001V87.1559H28.7268V85.3001C27.9783 85.2208 27.7076 85.2208 26.2904 85.0146C25.8445 84.9511 25.6216 84.618 25.5898 84.3167Z" fill="#7F7F7F"/>
<path fill-rule="evenodd" clip-rule="evenodd" d="M51.4343 73.3084C48.9342 71.6746 45.6061 71.3574 42.1028 71.3574C39.0136 71.3574 35.3352 71.8333 33.1377 73.2291C30.6854 74.7835 29.4592 77.4165 29.4592 79.6212C29.4592 81.6198 30.8128 84.2845 32.9147 85.7437C35.1441 87.2982 38.6314 87.7423 41.9117 87.7423C45.3991 87.7423 48.5839 87.5044 51.1476 85.9341C53.5203 84.5066 54.9694 82.0639 54.9216 79.5578C54.8897 77.0834 53.6955 74.8311 51.4343 73.3084ZM36.5931 81.1598C36.0995 79.2406 36.5295 77.2262 37.6282 75.9572C39.4595 73.6097 44.9054 73.7684 46.6571 76.0524C48.0743 77.702 48.0743 80.2874 47.1189 82.397C46.0201 84.4748 43.8385 84.9031 41.1155 84.8079C38.7588 84.57 37.1983 83.4756 36.5931 81.1598Z" fill="#7F7F7F"/>
<path fill-rule="evenodd" clip-rule="evenodd" d="M73.5367 71.7385V73.6578C76.3234 73.6736 76.6259 74.3398 76.6259 76.0846V83.5236L67.4537 71.7227H55.9248V73.5784C57.342 73.5784 59.0937 74.1177 59.0937 76.0211L59.0777 82.8415C58.9822 84.6973 59.0618 85.2366 56.0044 85.3159V87.1717H65.6384V85.3159C62.6288 85.2683 62.6606 84.3801 62.6606 82.5877V75.688L71.6099 87.3303H80.2247V76.9252C80.2247 76.3066 80.2088 75.577 80.368 74.9743C80.7024 73.7688 81.7216 73.7371 83.3617 73.5943V71.7385H73.5367Z" fill="#7F7F7F"/>
<path fill-rule="evenodd" clip-rule="evenodd" d="M107.678 73.7371C106.722 73.0709 105.448 72.6427 104.143 72.2937C102.486 71.8496 100.209 71.802 98.5373 71.7861L95.4799 71.802H84.6517V73.6578L86.7696 73.864C87.3269 73.9909 87.7091 74.4033 87.6931 75.1805V84.047C87.6931 84.047 87.6135 84.8242 87.0084 85.0622C86.4033 85.3001 85.5275 85.3318 84.6357 85.3318V87.1876L96.0373 87.2035C97.6297 87.1717 101.101 87.2669 103.283 86.9021C105.687 86.5056 108.124 85.3159 109.159 83.7932C110.464 81.8582 110.608 80.6685 110.608 79.3203C110.592 77.3059 109.811 75.2757 107.678 73.7371ZM103.315 79.2727C103.426 81.5409 103.044 84.6498 98.0118 84.396C97.98 84.396 93.4894 84.396 93.4894 84.396V74.7681H98.2189C99.9227 74.7522 100.862 74.9743 101.881 75.7674C103.012 76.6397 103.251 77.9562 103.315 79.2727Z" fill="#7F7F7F"/>
<path fill-rule="evenodd" clip-rule="evenodd" d="M114.907 71.7541V73.7368C114.907 73.7368 119.509 73.4037 117.503 76.4015L113.824 82.413C112.662 84.253 112.312 85.3157 109.397 85.3315V87.1873H119.366V85.3315C118.012 85.2364 116.022 84.9985 117.136 83.2854C117.136 83.2854 117.662 82.5241 117.646 82.4923H127.423L127.997 83.2854C129.605 85.617 125.672 85.3315 125.672 85.3315V87.1873H138.984V85.3315C136.787 85.284 136.341 84.9509 135.545 83.7295L127.216 71.7383L114.907 71.7541ZM119.063 79.9069L122.423 74.6885L125.879 79.9069H119.063Z" fill="#7F7F7F"/>
</svg>
