<svg width="132" height="36" viewBox="0 0 132 36" fill="none" xmlns="http://www.w3.org/2000/svg">
<g clip-path="url(#clip0)">
<path d="M17.4345 3.32654L14.4413 20.7828C13.7203 24.6936 12.7809 26.7254 10.1155 26.7254C8.23658 26.7254 6.68539 25.2179 6.05181 24.5406L0 31.4664C1.31086 32.515 4.85019 35.3116 10.902 35.3116C14.2884 35.3116 17.8933 34.3284 20.3402 32.4932C23.5737 30.0463 24.535 27.9926 25.2996 24.2566L28.5986 3.30469H17.4345V3.32654Z" fill="#343A40"/>
<path d="M73.3863 7.17163L75.1123 0.726562L63.9481 5.0961L63.4238 7.17163L57.6997 14.4688H61.5012L59.0324 23.7103C58.5299 25.4581 58.1585 27.0093 58.1367 28.3639C58.1148 29.5655 58.3988 30.6142 58.7484 31.51C59.7752 34.0224 62.2877 35.2678 65.3901 35.2459C71.9662 35.2241 74.9375 29.4781 75.593 28.0362C75.593 28.0143 75.593 28.0143 75.593 28.0143C75.593 27.9269 75.5274 27.8832 75.4619 27.8832C75.44 27.8832 75.44 27.8832 75.4182 27.8832C75.0468 28.1017 74.304 28.4294 72.7746 28.495C70.7865 28.5824 68.6454 27.4681 68.6454 25.8077C68.6454 24.9775 68.9076 23.9288 69.1697 22.9894L71.4419 14.4906H76.9038L78.8264 7.19348L73.3863 7.17163Z" fill="#343A40"/>
<path d="M93.9887 7.73975C82.6716 7.73975 76.9912 16.1074 76.9912 23.5793C76.9912 30.6143 81.8632 35.4426 88.8545 35.4426C95.9113 35.4426 98.9044 29.6311 99.5162 28.1892C99.5162 28.1673 99.5162 28.1673 99.5162 28.1673C99.5162 28.0799 99.4506 28.0144 99.3851 28.0144C99.3632 28.0144 99.3633 28.0144 99.3414 28.0144C98.6641 28.3421 96.8508 29.0194 94.0324 28.8446C90.0998 28.6043 87.5436 25.1087 87.5436 21.9407C87.5436 18.467 89.8595 13.6168 95.4307 13.6168C98.4893 13.6168 100.15 14.9932 101.177 15.7797L102.837 9.40017C99.1011 7.89268 95.671 7.73975 93.9887 7.73975Z" fill="#343A40"/>
<path d="M43.0398 34.6997H53.5267C53.3738 34.4594 52.6965 33.367 52.4125 31.6847C52.0848 29.784 52.6528 27.337 52.6528 27.337L57.0442 10.7983C55.6241 10.0337 54.5317 9.53116 52.5436 8.91942C50.4899 8.30768 48.1522 7.89258 45.7489 7.89258C32.9899 7.89258 27.7028 18.9257 27.7028 25.8732C27.7028 25.8732 26.9162 35.3988 34.9999 35.3114C40.6584 35.3114 42.5155 29.6966 42.5155 29.6966L42.7777 29.1504L42.9087 28.9756C42.7995 29.6966 42.6247 30.6797 42.6247 31.8813C42.6247 32.93 42.8432 33.9787 43.0398 34.6997ZM40.44 28.3639C38.8014 28.3639 37.3594 27.6429 37.3594 24.8464C37.3594 22.1373 38.9543 14.4687 44.875 14.4687C45.5305 14.4687 46.1422 14.578 46.601 14.7746L43.5423 26.1572C43.4331 26.5068 43.3457 27.1185 43.2802 27.337C42.7995 27.7521 42.0785 28.3639 40.44 28.3639Z" fill="#343A40"/>
<path d="M115.137 35.7265C107.119 35.7265 101.482 31.3788 101.482 23.4262C101.482 15.4737 107.381 7.36816 117.54 7.36816C126.148 7.36816 131.086 13.0704 131.086 19.9961C131.086 26.179 126.891 35.7265 115.137 35.7265ZM120.992 18.6416C120.992 14.8401 118.808 14.2065 117.54 14.2065C113.018 14.2065 111.532 21.8532 111.532 24.606C111.532 25.7421 111.685 26.9437 112.428 27.7958C112.952 28.4512 113.914 28.9318 114.984 28.9318C119.55 28.9537 120.992 21.0885 120.992 18.6416Z" fill="#343A40"/>
</g>
<defs>
<clipPath id="clip0">
<rect width="131.086" height="35" fill="white" transform="translate(0 0.726562)"/>
</clipPath>
</defs>
</svg>
