<svg width="175" height="31" viewBox="0 0 175 31" fill="none" xmlns="http://www.w3.org/2000/svg">
<path fill-rule="evenodd" clip-rule="evenodd" d="M154.553 2.98939H135.484V10.1545H150.551C155.798 10.1545 154.686 13.1585 154.686 13.1585H142.926C137.229 13.1585 135.218 15.6146 134.504 17.9691C134.504 17.4718 134.494 16.9542 134.473 16.4163C134.473 14.2343 135.566 2.9285 124.704 2.9285L103.777 2.9082V2.9285H98.6321L72.6419 23.5713V12.0219C72.6419 2.67478 65.3328 2.98939 63.5464 2.98939H44.4876V10.1545H59.5447C64.7918 10.1545 63.6791 13.1585 63.6791 13.1585H51.9192C44.8142 13.1585 43.3851 16.9644 43.089 19.6234V12.2147C42.8338 9.94136 43.5994 2.98939 33.432 2.98939H0V30.6552H9.91221V10.8243H16.9049V30.6552H26.3067V10.9461H30.5635C31.4618 10.9156 33.7178 10.3473 33.5239 14.7113L33.5545 30.6247H43.089V23.5002C43.9465 30.2999 50.2756 30.7769 51.225 30.6552H72.6419V30.5943H77.4704L103.777 9.39332V30.7262H124.561C125.286 30.7262 132.309 30.6552 134.096 22.0997C134.187 30.2796 141.211 30.7871 142.221 30.6552H163.638V12.0219C163.638 2.67478 156.329 2.98939 154.553 2.98939ZM63.6178 23.8047H54.1752C52.2662 23.8047 52.0825 22.0997 52.0825 21.7242C52.0825 19.6335 53.5116 19.5422 54.2773 19.5422H63.6178V23.8047ZM121.366 22.5158H112.822V11.0577L121.448 11.0374C125.919 11.0374 125.449 15.7262 125.449 16.6294C125.725 22.4752 121.723 22.5158 121.366 22.5158ZM154.614 23.8047H145.182C143.273 23.8047 143.079 22.0997 143.079 21.7242C143.079 19.6335 144.508 19.5422 145.274 19.5422H154.614V23.8047Z" fill="#343A40"/>
<path fill-rule="evenodd" clip-rule="evenodd" d="M95.8962 2.8584L85.6675 11.079H74.1628V2.8584H95.8962Z" fill="#343A40"/>
<path fill-rule="evenodd" clip-rule="evenodd" d="M101.459 22.415V30.6255H79.7261L89.9548 22.415H101.459Z" fill="#343A40"/>
<path fill-rule="evenodd" clip-rule="evenodd" d="M165.312 5.46608C165.312 2.73603 167.538 0.726562 170.171 0.726562C172.774 0.726562 175 2.73603 175 5.46608C175 8.21641 172.774 10.236 170.171 10.236C167.538 10.236 165.312 8.22656 165.312 5.46608Z" fill="#343A40"/>
<path fill-rule="evenodd" clip-rule="evenodd" d="M170.172 9.44383C172.336 9.44383 174.041 7.75912 174.041 5.46548C174.041 3.21244 172.336 1.51758 170.172 1.51758C167.987 1.51758 166.272 3.21244 166.272 5.46548C166.272 7.75912 167.977 9.44383 170.172 9.44383Z" fill="white"/>
<path fill-rule="evenodd" clip-rule="evenodd" d="M169.161 8.22647H168.324V2.74609H170.427C171.733 2.74609 172.376 3.22309 172.376 4.30902C172.376 5.29346 171.754 5.71971 170.947 5.8212L172.519 8.23662H171.58L170.131 5.86179H169.171V8.22647H169.161Z" fill="#343A40"/>
<path fill-rule="evenodd" clip-rule="evenodd" d="M170.161 5.14212C170.866 5.14212 171.499 5.09138 171.499 4.24903C171.499 3.56905 170.876 3.44727 170.294 3.44727H169.161V5.14212H170.161Z" fill="white"/>
</svg>
