<svg width="117" height="99" viewBox="0 0 117 99" fill="none" xmlns="http://www.w3.org/2000/svg">
<path d="M68.4167 53.3348C68.3244 53.358 67.9546 53.358 67.7932 53.358H55.873V56.1299H68.0011C68.0934 56.1299 68.8097 56.1299 68.9485 56.1067C71.4203 55.8757 72.5523 53.8195 72.5523 52.0175C72.5523 50.1692 71.3738 48.1827 69.1331 47.9748C68.6942 47.9284 68.3244 47.9284 68.163 47.9284H60.239C59.8924 47.9284 59.5 47.9052 59.3613 47.8593C58.7378 47.6974 58.5068 47.143 58.5068 46.6809C58.5068 46.2652 58.7378 45.7108 59.3845 45.5256C59.5691 45.4792 59.7775 45.4566 60.2164 45.4566H71.652V42.7305H60.0312C59.5459 42.7305 59.1767 42.7537 58.876 42.7995C56.8895 43.077 55.5032 44.6705 55.5032 46.7035C55.5032 48.3667 56.5429 50.3073 58.8301 50.6307C59.2458 50.6771 59.8234 50.6771 60.0776 50.6771H67.7938C67.9326 50.6771 68.2792 50.6771 68.3482 50.7003C69.226 50.8159 69.5267 51.4625 69.5267 52.0402C69.5261 52.5952 69.1795 53.196 68.4167 53.3348Z" fill="#7F7F7F"/>
<path d="M45.8236 53.3348C45.7313 53.358 45.3615 53.358 45.2227 53.358H33.2792V56.1299H45.4073C45.4996 56.1299 46.216 56.1299 46.3547 56.1067C48.8265 55.8757 49.9586 53.8195 49.9586 52.0175C49.9586 50.1692 48.7801 48.1827 46.5393 47.9748C46.1004 47.9284 45.7307 47.9284 45.5693 47.9284H37.6453C37.2987 47.9284 36.9063 47.9052 36.7675 47.8593C36.1441 47.6974 35.913 47.143 35.913 46.6809C35.913 46.2652 36.1441 45.7108 36.7908 45.5256C36.9753 45.4792 37.1838 45.4566 37.6226 45.4566H49.0582V42.7305H37.4374C36.9521 42.7305 36.5829 42.7537 36.2822 42.7995C34.2957 43.077 32.9094 44.6705 32.9094 46.7035C32.9094 48.3667 33.9491 50.3073 36.2364 50.6307C36.652 50.6771 37.2296 50.6771 37.4839 50.6771H45.1995C45.3382 50.6771 45.6848 50.6771 45.7539 50.7003C46.6316 50.8159 46.9323 51.4625 46.9323 52.0402C46.9323 52.5952 46.609 53.196 45.8236 53.3348Z" fill="#7F7F7F"/>
<path d="M27.065 42.6377H24.062V56.1985H27.065V42.6377Z" fill="#7F7F7F"/>
<path d="M17.4313 56.1985V42.6377H14.4283V52.7567L4.42549 42.6377H0.567383V56.1985H3.57037V46.0337L13.6429 56.1985H17.4313Z" fill="#7F7F7F"/>
<path d="M114.02 42.6377V52.7567L104.017 42.6377H100.159V56.1985H103.162V46.0337L113.211 56.1985H117V42.6377H114.02Z" fill="#7F7F7F"/>
<path d="M84.5192 42.6377L76.064 56.1985H79.7142L81.216 53.7731H91.0807L92.5825 56.1985H96.2096L87.7532 42.6377H84.5192ZM89.5319 51.2084H82.7631L86.1591 45.7562L89.5319 51.2084Z" fill="#7F7F7F"/>
<path d="M17.2699 34.9452C23.3223 17.2726 40.0017 5.39821 58.8069 5.39821C77.6121 5.39821 94.314 17.2726 100.344 34.9452L100.39 35.084H113.628V33.4899L108.13 32.8432C104.734 32.4502 104.017 30.949 103.094 29.0548L102.863 28.5927C94.9148 11.6817 77.6115 0.731445 58.8069 0.731445C39.979 0.731445 22.6989 11.6817 14.7516 28.6385L14.5206 29.1006C13.5964 30.9948 12.8806 32.4966 9.48461 32.889L3.98657 33.5357V35.1298H17.2008L17.2699 34.9452Z" fill="#7F7F7F"/>
<path d="M100.39 63.7762L100.343 63.9149C94.2909 81.5875 77.6115 93.4387 58.8063 93.4387C40.0011 93.4387 23.2992 81.5643 17.2694 63.8917L17.2229 63.7529H4.00928V65.347L9.50732 65.9937C12.9033 66.3867 13.6197 67.8879 14.5433 69.7821L14.7743 70.2442C22.7216 87.2011 40.0244 98.1513 58.8289 98.1513C77.6335 98.1513 94.9369 87.2011 102.884 70.2674L103.115 69.8054C104.039 67.9111 104.755 66.4093 108.151 66.0169L113.649 65.3703V63.7762H100.39Z" fill="#7F7F7F"/>
</svg>
