<svg width="155" height="72" viewBox="0 0 155 72" fill="none" xmlns="http://www.w3.org/2000/svg">
<path fill-rule="evenodd" clip-rule="evenodd" d="M74.7916 44.6141H80.2895V53.2997H86.8638V40.6811C86.8638 40.1346 86.5989 37.9652 84.7193 37.9652H81.3659L86.9963 28.6006H80.0246L74.7916 36.7481V28.6006H68.623V53.308H74.7916V44.6141Z" fill="#4F4F4F"/>
<path fill-rule="evenodd" clip-rule="evenodd" d="M121.333 37.5595V35.1169H132.462V28.6006H116.506C115.165 28.6006 114.088 29.6853 114.088 30.9107V41.774C114.088 43.1319 114.627 44.0841 115.835 44.0841H125.225V46.8H114.097V53.1838H130.193C131.534 53.1838 132.47 51.9584 132.47 50.6005V39.8613C132.47 38.6359 131.534 37.5512 130.193 37.5512H121.333V37.5595Z" fill="#4F4F4F"/>
<path fill-rule="evenodd" clip-rule="evenodd" d="M148.69 37.824V28.5918H155V53.1668H148.69V45.0193H143.06V53.1668H136.759V28.5918H143.06V37.824H148.69Z" fill="#4F4F4F"/>
<path d="M97.0566 67.4249C97.0566 70.0083 95.7152 70.9522 93.9681 70.9522H60.8482C59.2419 70.9522 58.1655 70.2732 58.1655 67.5574V5.38307C58.1655 2.66724 59.3744 1.98828 61.1132 1.98828H94.2414C95.9884 1.98828 97.0566 2.94048 97.0566 5.51555V67.4249V67.4249Z" stroke="#4F4F4F" stroke-width="2.0722" stroke-miterlimit="2.6131"/>
<path fill-rule="evenodd" clip-rule="evenodd" d="M106.04 68.6421C106.04 69.5943 105.775 70.2732 105.105 70.9522C104.567 71.4987 103.763 71.9044 102.96 71.9044C102.025 71.9044 101.354 71.4987 100.683 70.9522C100.145 70.2732 99.8801 69.5943 99.8801 68.6421C99.8801 67.8306 100.145 67.0109 100.683 66.4727C101.354 65.7937 102.025 65.5205 102.96 65.5205C103.763 65.5205 104.567 65.7937 105.105 66.4727C105.775 67.0192 106.04 67.8306 106.04 68.6421ZM102.96 65.9262C102.157 65.9262 101.486 66.1995 101.081 66.7377C100.543 67.2841 100.278 67.9631 100.278 68.6421C100.278 69.4535 100.543 70.1325 101.081 70.5465C101.486 71.0929 102.157 71.3579 102.96 71.3579C103.631 71.3579 104.302 71.0846 104.84 70.5465C105.378 70.1407 105.643 69.4618 105.643 68.6421C105.643 67.9631 105.378 67.2841 104.84 66.7377C104.302 66.1995 103.631 65.9262 102.96 65.9262Z" fill="#4F4F4F"/>
<path fill-rule="evenodd" clip-rule="evenodd" d="M101.619 66.8789H102.828C103.233 66.8789 103.631 67.0114 103.763 67.0114C104.169 67.2846 104.302 67.5579 104.302 67.9636C104.302 68.2368 104.169 68.5101 104.037 68.6425C103.904 68.6425 103.631 68.775 103.498 68.775C103.763 68.775 103.904 68.9075 104.037 69.1807C104.169 69.3132 104.302 69.454 104.302 69.7272V69.8597C104.302 69.9922 104.302 70.1329 104.302 70.1329C104.302 70.2654 104.302 70.2654 104.302 70.4062H103.763V70.2737V70.0005C103.763 69.5947 103.631 69.3215 103.358 69.189C103.225 69.0565 103.093 69.0565 102.687 69.0565H102.281V70.4145H101.611V66.8789H101.619ZM103.763 67.9636C103.763 67.6903 103.631 67.5579 103.498 67.5579C103.366 67.4254 103.093 67.4254 102.828 67.4254H102.29V68.6508H102.828C103.093 68.6508 103.233 68.6508 103.366 68.5183C103.631 68.5101 103.763 68.2368 103.763 67.9636Z" fill="#4F4F4F"/>
<path fill-rule="evenodd" clip-rule="evenodd" d="M97.0566 5.51555C97.0566 2.9322 95.9802 1.98828 94.2414 1.98828H61.1132C59.3661 1.98828 58.1655 2.66724 58.1655 5.38307V67.6981C58.1655 70.414 59.2419 71.0929 60.9807 71.0929H94.1089C95.7152 71.0929 97.0566 70.1407 97.0566 67.5657V5.51555ZM68.3582 14.6152C68.3582 13.2573 68.3582 12.8516 69.9645 12.8516H85.2576C86.7314 12.8516 86.7314 13.2573 86.7314 14.756V58.201C86.7314 59.6914 86.4665 60.1054 85.2576 60.1054H70.5027C68.4907 60.1054 68.3582 60.1054 68.3582 58.201V14.7477V14.6152Z" fill="#E0E0E0"/>
<path fill-rule="evenodd" clip-rule="evenodd" d="M16.0536 53.1673C17.13 52.7615 18.3306 51.6769 18.3306 50.4514V31.0432C18.3306 29.6853 17.2542 28.6006 16.0536 28.6006H2.10188C1.02548 28.7331 0.222323 29.826 0.0898438 31.0432V50.4597C0.0898438 51.8176 1.02548 52.7698 2.10188 53.1755H16.0536V53.1673ZM12.0296 45.8395C11.8971 46.7917 11.0939 46.7917 10.6882 46.7917H7.33482C6.79662 46.6509 6.66414 46.5184 6.3909 45.8395V36.4666C6.25842 36.0608 6.25842 35.1086 7.32654 34.9762H11.0856C12.0213 35.1086 12.0213 36.0608 12.0213 36.4666V45.8395H12.0296Z" fill="#4F4F4F"/>
<path fill-rule="evenodd" clip-rule="evenodd" d="M29.8646 37.5595V35.1169H40.9929V28.6006H25.0374C23.696 28.6006 22.6196 29.6853 22.6196 30.9107V41.774C22.6196 43.1319 23.1578 44.0841 24.3667 44.0841H33.7562V46.8H22.6196V53.1838H38.7159C40.0573 53.1838 40.9929 51.9584 40.9929 50.6005V39.8613C40.9929 38.6359 40.0573 37.5512 38.7159 37.5512H29.8646V37.5595Z" fill="#4F4F4F"/>
<path fill-rule="evenodd" clip-rule="evenodd" d="M57.2217 37.6915V28.5918H63.6635V53.1668H57.2217V45.0193H51.7238V53.1668H45.2903V28.5918H51.7238V37.6915H57.2217Z" fill="#4F4F4F"/>
<path fill-rule="evenodd" clip-rule="evenodd" d="M107.522 53.1673C108.599 52.7615 109.799 51.6769 109.799 50.4514V31.0432C109.799 29.6853 108.864 28.6006 107.522 28.6006H93.5706C92.4942 28.7331 91.6911 29.826 91.5586 31.0432V50.4597C91.5586 51.8176 92.4942 52.7698 93.5706 53.1755H107.522V53.1673ZM103.498 45.8395C103.366 46.7917 102.563 46.7917 102.157 46.7917H98.8036C98.2654 46.5184 98.1329 46.5184 97.8679 45.8395V36.4666C97.7354 36.0608 97.7355 35.1086 98.8036 34.9762H102.563C103.498 35.1086 103.498 36.0608 103.498 36.4666V45.8395Z" fill="#4F4F4F"/>
</svg>
