<svg xmlns="http://www.w3.org/2000/svg" width="157" height="21" viewBox="0 0 157 21">
    <g class="fill-color" fill="#FFF" fill-rule="evenodd">
        <path d="M42.035.254v6.393c0 .218-.005.453-.014.707-.009.254-.013.499-.013.735h.08a4.799 4.799 0 0 1 1.731-1.823c.721-.435 1.587-.653 2.596-.653 1.586 0 2.816.485 3.69 1.456.875.97 1.312 2.271 1.312 3.903v9.522h-4.218v-8.706c0-.797-.203-1.437-.608-1.917-.406-.481-1.005-.721-1.798-.721-.83 0-1.496.299-2.001.897-.505.599-.757 1.36-.757 2.286v8.16H37.79V.255h4.245zM60.422 20.93c-1.172 0-2.226-.195-3.163-.585a6.953 6.953 0 0 1-2.393-1.619 7.135 7.135 0 0 1-1.514-2.42c-.352-.926-.527-1.932-.527-3.02s.18-2.1.54-3.034a7.391 7.391 0 0 1 1.514-2.434 6.937 6.937 0 0 1 2.326-1.619c.9-.39 1.901-.585 3-.585 1.028 0 1.952.164 2.772.49.82.326 1.546.78 2.177 1.36.81.798 1.406 1.786 1.784 2.965.379 1.18.559 2.485.54 3.918h-10.49c.145 1.088.505 1.94 1.082 2.557.577.616 1.379.925 2.406.925.667 0 1.212-.123 1.636-.368a2.51 2.51 0 0 0 .987-1.047h4.11a5.892 5.892 0 0 1-.852 1.782 6.028 6.028 0 0 1-1.433 1.442 6.637 6.637 0 0 1-1.987.952c-.758.226-1.596.34-2.515.34zm-.216-12.296c-.974 0-1.713.29-2.217.87-.505.58-.83 1.37-.974 2.367h6.138c-.072-1.016-.37-1.809-.892-2.38-.523-.571-1.208-.857-2.055-.857zM69.049.254h4.272v20.24h-4.272V.254zm6.545 0h4.272v20.24h-4.272V.254zm13.439 20.702c-1.154 0-2.199-.195-3.136-.585a7.096 7.096 0 0 1-2.407-1.618 7.171 7.171 0 0 1-1.54-2.435c-.361-.934-.542-1.945-.542-3.033 0-1.088.18-2.1.541-3.034a7.171 7.171 0 0 1 1.541-2.434 7.096 7.096 0 0 1 2.407-1.619c.937-.39 1.982-.585 3.136-.585 1.136 0 2.172.195 3.11.585.937.39 1.734.93 2.392 1.619.658.689 1.167 1.5 1.528 2.434.36.934.54 1.946.54 3.034 0 1.088-.18 2.099-.54 3.033a7.278 7.278 0 0 1-1.528 2.435 6.953 6.953 0 0 1-2.393 1.618c-.937.39-1.973.585-3.109.585zm-.027-3.101c1.063 0 1.879-.422 2.447-1.265.568-.843.851-1.945.851-3.305 0-1.379-.283-2.494-.851-3.346-.568-.853-1.384-1.279-2.447-1.279-1.082 0-1.902.426-2.46 1.279-.56.852-.839 1.967-.839 3.346 0 1.36.28 2.462.839 3.305.558.843 1.378 1.265 2.46 1.265zm13.358-17.6v6.392c0 .218-.004.453-.013.707-.01.254-.014.499-.014.735h.081a4.799 4.799 0 0 1 1.73-1.823c.722-.435 1.587-.653 2.596-.653 1.586 0 2.817.485 3.69 1.456.875.97 1.312 2.271 1.312 3.903v9.522h-4.218v-8.706c0-.797-.202-1.437-.608-1.917-.406-.481-1.005-.721-1.798-.721-.83 0-1.496.299-2 .897-.505.599-.758 1.36-.758 2.286v8.16H98.12V.255h4.245zm18.387 20.674c-1.171 0-2.226-.195-3.163-.585a6.953 6.953 0 0 1-2.393-1.619 7.135 7.135 0 0 1-1.514-2.42c-.351-.926-.527-1.932-.527-3.02s.18-2.1.54-3.034a7.391 7.391 0 0 1 1.515-2.434 6.937 6.937 0 0 1 2.325-1.619c.901-.39 1.902-.585 3.001-.585 1.028 0 1.951.164 2.771.49.82.326 1.546.78 2.177 1.36.811.798 1.406 1.786 1.784 2.965.379 1.18.56 2.485.541 3.918h-10.49c.144 1.088.504 1.94 1.081 2.557.577.616 1.379.925 2.406.925.667 0 1.213-.123 1.636-.368a2.51 2.51 0 0 0 .987-1.047h4.11a5.892 5.892 0 0 1-.852 1.782 6.028 6.028 0 0 1-1.433 1.442 6.637 6.637 0 0 1-1.987.952c-.757.226-1.595.34-2.515.34zm-.216-12.296c-.973 0-1.712.29-2.217.87-.505.58-.83 1.37-.973 2.367h6.137c-.072-1.016-.37-1.809-.892-2.38-.523-.571-1.208-.857-2.055-.857zm8.843-8.379h4.272v20.24h-4.272V.254zm6.545 0h4.272v20.24h-4.272V.254zm13.44 20.702c-1.154 0-2.2-.195-3.137-.585a7.096 7.096 0 0 1-2.406-1.618 7.171 7.171 0 0 1-1.541-2.435c-.36-.934-.541-1.945-.541-3.033 0-1.088.18-2.1.54-3.034a7.171 7.171 0 0 1 1.542-2.434 7.096 7.096 0 0 1 2.406-1.619c.937-.39 1.983-.585 3.136-.585 1.136 0 2.172.195 3.11.585.937.39 1.734.93 2.392 1.619.658.689 1.168 1.5 1.528 2.434.36.934.54 1.946.54 3.034 0 1.088-.18 2.099-.54 3.033a7.278 7.278 0 0 1-1.528 2.435 6.953 6.953 0 0 1-2.392 1.618c-.938.39-1.974.585-3.11.585zm-.028-3.101c1.064 0 1.88-.422 2.447-1.265.568-.843.852-1.945.852-3.305 0-1.379-.284-2.494-.852-3.346-.568-.853-1.383-1.279-2.447-1.279-1.081 0-1.901.426-2.46 1.279-.559.852-.838 1.967-.838 3.346 0 1.36.28 2.462.838 3.305.559.843 1.379 1.265 2.46 1.265zM24.305 9.05h3.768c.242 0 .438.197.438.438v3.357a.437.437 0 0 1-.438.437h-3.768v3.795a.437.437 0 0 1-.438.437h-3.33a.437.437 0 0 1-.438-.437v-3.795h-3.768a.437.437 0 0 1-.438-.437V9.488c0-.241.196-.437.438-.437h3.768V5.257c0-.242.196-.438.437-.438h3.331c.242 0 .438.196.438.438V9.05zm-15.622 0h3.769c.241 0 .437.197.437.438v3.357a.437.437 0 0 1-.437.437H8.683v3.795a.437.437 0 0 1-.437.437H4.915a.437.437 0 0 1-.438-.437v-3.795H.71a.437.437 0 0 1-.437-.437V9.488c0-.241.195-.437.437-.437h3.768V5.257c0-.242.196-.438.438-.438h3.33c.242 0 .438.196.438.438V9.05z"/>
    </g>
</svg>
