<?xml version="1.0" encoding="utf-8"?>
<!-- Generator: Adobe Illustrator 24.0.0, SVG Export Plug-In . SVG Version: 6.00 Build 0)  -->
<svg version="1.1" id="Capa_1" xmlns="http://www.w3.org/2000/svg" xmlns:xlink="http://www.w3.org/1999/xlink" x="0px" y="0px"
	 viewBox="0 0 425.41 336.89" style="enable-background:new 0 0 425.41 336.89;" xml:space="preserve">
<style type="text/css">
	.st0{fill-rule:evenodd;clip-rule:evenodd;fill:#B2B2B2;}
	.st1{fill-rule:evenodd;clip-rule:evenodd;fill:#003D71;}
	.st2{fill-rule:evenodd;clip-rule:evenodd;}
</style>
<g>
	<g>
		<path class="st0" d="M210.19,38.41l31.58,19.62l14.28-8.84L210.2,20.71l-45.88,28.4l14.29,8.85L210.19,38.41L210.19,38.41z
			 M210.21,86.91L275.1,46.6v97.09l9.51-5.89V64.93l15.04,9.31v54.25v17.34l-34.7,21.48l-6,3.71V75.64l-48.73,30.27l-48.78-30.2
			v95.32l-15.46-9.57l-10.2-6.31l-15.04-9.31V128.5V74.3l15.04-9.31v72.82l9.51,5.89V46.73L210.21,86.91L210.21,86.91z
			 M210.23,115.8l-40.38-25V185l-49.11-30.4v17.34l63.48,39.3V193.9v-77.29l26.01,16.1l25.92-16.1v77.29v17.34v0.01l14.38-8.9v-0.01
			l8.41-5.2v0.01l16.15-10v-0.01l9.51-5.89v0.01l15.04-9.31v-0.01v-8.77v-8.58L250.54,185V90.76L210.23,115.8L210.23,115.8z
			 M145.99,161.46l-0.69-17.77v17.34L145.99,161.46L145.99,161.46z M210.19,209.86l16.39-10.18v17.71l-16.37,10.17l-16.41-10.16
			v-17.69L210.19,209.86z"/>
	</g>
	<path class="st1" d="M210.2,227.56v-17.71l-0.01,0.01l-16.4-10.15v17.69L210.2,227.56L210.2,227.56z M210.2,132.69l-25.97-16.08
		v77.29v17.34l-63.48-39.3V154.6l49.11,30.4v-94.2l40.35,24.98V132.69L210.2,132.69z M210.2,105.9V86.91l-64.9-40.18v96.97
		l-9.51-5.89V64.99l-15.04,9.31v54.2v17.34c13.57,8.4,27.13,16.8,40.7,25.2V75.72L210.2,105.9L210.2,105.9z M210.2,38.41l-0.01-0.01
		l-31.57,19.55l-14.29-8.85l45.88-28.4V38.41z"/>
	<path class="st1" d="M29.78,246h6.91l8.71,26.11L54.16,246h6.89l6.27,37.43h-6.87l-4-23.64l-7.92,23.64h-6.29l-7.89-23.64
		l-4.07,23.64h-6.95L29.78,246L29.78,246z M73.15,246h20.43v6.99H80.24v6.72h13.34v6.88H80.24v9.85h13.34v6.99H73.15V246L73.15,246z
		 M134.61,252.57l-5,4.74c-3.4-3.58-7.21-5.37-11.46-5.37c-3.58,0-6.6,1.23-9.05,3.67c-2.46,2.44-3.68,5.45-3.68,9.03
		c0,2.49,0.55,4.71,1.63,6.64c1.09,1.94,2.62,3.46,4.6,4.56c1.99,1.1,4.2,1.65,6.63,1.65c2.07,0,3.96-0.38,5.67-1.16
		c1.72-0.77,3.61-2.18,5.66-4.21l4.84,5.06c-2.76,2.7-5.38,4.58-7.84,5.62c-2.46,1.05-5.27,1.57-8.43,1.57
		c-5.82,0-10.59-1.84-14.3-5.53c-3.71-3.68-5.56-8.42-5.56-14.18c0-3.74,0.84-7.05,2.54-9.95c1.69-2.9,4.1-5.23,7.25-6.99
		c3.15-1.76,6.53-2.65,10.17-2.65c3.08,0,6.06,0.65,8.92,1.95C130.08,248.32,132.54,250.17,134.61,252.57L134.61,252.57z
		 M140.81,246h7.25v14.13h12.51V246h7.19v37.43h-7.19V267h-12.51v16.42h-7.25V246L140.81,246z M187.76,246h7.18l14.4,37.43h-7.41
		l-2.92-7.71h-15.34l-2.99,7.71h-7.41L187.76,246L187.76,246z M191.35,255.94l-5.07,12.88h10.12L191.35,255.94L191.35,255.94z
		 M214.92,246h6.76l16.12,24.63V246h7.09v37.43h-6.81l-16.07-24.55v24.55h-7.09V246L214.92,246z M252.91,246H260v37.43h-7.09V246
		L252.91,246z M302.42,252.57l-5,4.74c-3.4-3.58-7.21-5.37-11.46-5.37c-3.58,0-6.6,1.23-9.05,3.67c-2.46,2.44-3.68,5.45-3.68,9.03
		c0,2.49,0.55,4.71,1.63,6.64c1.09,1.94,2.62,3.46,4.6,4.56c1.99,1.1,4.2,1.65,6.63,1.65c2.07,0,3.96-0.38,5.67-1.16
		c1.72-0.77,3.61-2.18,5.66-4.21l4.84,5.06c-2.76,2.7-5.38,4.58-7.84,5.62c-2.46,1.05-5.27,1.57-8.43,1.57
		c-5.82,0-10.59-1.84-14.3-5.53c-3.71-3.68-5.56-8.42-5.56-14.18c0-3.74,0.84-7.05,2.54-9.95c1.69-2.9,4.1-5.23,7.25-6.99
		c3.15-1.76,6.53-2.65,10.17-2.65c3.08,0,6.06,0.65,8.92,1.95C297.89,248.32,300.35,250.17,302.42,252.57L302.42,252.57z
		 M308.72,246h7.19v12.95L326.04,246h8.59l-13.08,16.71l14.34,20.72h-8.45l-11.54-16.67v16.67h-7.19V246L308.72,246z M352.44,246
		h7.18l14.4,37.43h-7.41l-2.92-7.71h-15.34l-2.99,7.71h-7.41L352.44,246L352.44,246z M356.03,255.94l-5.07,12.88h10.12
		L356.03,255.94L356.03,255.94z M379.5,246h7.09v30.65h10.48v6.78H379.5V246z"/>
	<path class="st2" d="M55.82,298.95H39.67v4.04h16.15v12.12H35.63v-4.04h16.15v-4.04H35.63v-12.11h20.18V298.95L55.82,298.95z
		 M69.57,298.95v12.11h12.11v-12.11H69.57L69.57,298.95z M85.72,294.92v20.19H65.54v-20.19H85.72L85.72,294.92z M115.62,315.11
		H95.44v-20.19h4.04v16.15h16.15V315.11L115.62,315.11z M129.38,294.92v16.15h12.11v-16.15h4.04v20.19h-20.18v-20.19H129.38
		L129.38,294.92z M155.25,294.92h20.18v4.04h-8.07v16.15h-4.04v-16.15h-8.07V294.92L155.25,294.92z M189.19,294.92v20.19h-4.04
		v-20.19H189.19L189.19,294.92z M202.95,298.95v12.11h12.11v-12.11H202.95L202.95,298.95z M219.09,294.92v20.19h-20.18v-20.19
		H219.09L219.09,294.92z M228.82,315.11v-20.19h4.04l12.11,14.32v-14.32H249v20.19h-4.04l-12.11-13.88v13.88H228.82L228.82,315.11z
		 M278.9,298.95h-16.15v4.04h16.15v12.12h-20.18v-4.04h16.15v-4.04h-16.15v-12.11h20.18V298.95L278.9,298.95z M324.95,294.92v8.07
		h12.11v-8.07h4.04v20.19h-4.04v-8.08h-16.15v-12.11H324.95L324.95,294.92z M350.82,315.11v-4.04h4.04v4.04H350.82L350.82,315.11z
		 M364.58,315.11v-20.19h20.18v20.19H364.58L364.58,315.11z M380.73,311.06v-12.11h-12.11v12.11H380.73z"/>
</g>
</svg>
